<svg width="57" height="22" viewBox="0 0 57 22" fill="none" xmlns="http://www.w3.org/2000/svg">
<path fill-rule="evenodd" clip-rule="evenodd" d="M35.4237 16.7393C32.148 19.6357 27.4154 21.1813 23.3224 21.1813C17.8668 21.2149 12.5973 18.8026 8.54661 14.4171C8.24091 14.0871 8.51335 13.6312 8.88172 13.8891C13.0886 16.8284 18.2931 18.5965 23.6665 18.5965C27.5402 18.5765 31.3725 17.6375 34.9427 15.8338C35.4953 15.5529 35.966 16.2727 35.4185 16.7547" fill="white"/>
<path fill-rule="evenodd" clip-rule="evenodd" d="M36.785 14.8746C36.3654 14.2315 34.0196 14.5676 32.9644 14.7211C32.6459 14.7672 32.596 14.4326 32.8851 14.1901C34.7564 12.6122 37.8236 13.0681 38.1804 13.5945C38.5373 14.121 38.0871 17.8185 36.3322 19.5806C36.0623 19.8522 35.8052 19.7064 35.9254 19.3503C36.3194 18.1669 37.2045 15.5131 36.785 14.8746Z" fill="white"/>
<path fill-rule="evenodd" clip-rule="evenodd" d="M33.0434 3.04194V1.50706C33.0422 1.45559 33.0497 1.40436 33.0655 1.3565C33.0813 1.30863 33.1051 1.26513 33.1353 1.22865C33.1656 1.19217 33.2018 1.16347 33.2416 1.14431C33.2814 1.12515 33.3241 1.11592 33.367 1.1172H39.0947C39.1377 1.11531 39.1806 1.12397 39.2208 1.14264C39.261 1.16132 39.2975 1.18961 39.3283 1.2258C39.3591 1.26199 39.3833 1.30533 39.3997 1.35315C39.416 1.40098 39.4241 1.4523 39.4234 1.50398V2.81938C39.4234 3.03887 39.2686 3.32742 38.9923 3.78328L36.0274 8.86681C37.1274 8.83611 38.2927 9.03411 39.2929 9.70793C39.3831 9.76696 39.4586 9.85358 39.5119 9.95898C39.5651 10.0644 39.5941 10.1848 39.596 10.3081V11.9442C39.596 12.1683 39.3914 12.4293 39.1752 12.2927C38.239 11.7155 37.2012 11.4157 36.1487 11.4183C35.0961 11.421 34.0594 11.7261 33.1252 12.308C32.9244 12.4339 32.7172 12.176 32.7172 11.9504V10.3986C32.6984 10.03 32.7724 9.66319 32.9295 9.3457L36.369 3.42873H33.3772C33.334 3.43081 33.2909 3.42232 33.2505 3.40376C33.2101 3.3852 33.1733 3.35696 33.1423 3.32077C33.1113 3.28458 33.0868 3.2412 33.0702 3.19326C33.0536 3.14532 33.0454 3.09383 33.0459 3.04194" fill="white"/>
<path fill-rule="evenodd" clip-rule="evenodd" d="M12.1492 12.6198H10.4046C10.3261 12.6155 10.2515 12.5775 10.1944 12.5127C10.1374 12.4479 10.1016 12.3606 10.0938 12.2668V1.53492C10.0947 1.48291 10.1043 1.43165 10.1218 1.38406C10.1393 1.33647 10.1644 1.29349 10.1958 1.25757C10.2272 1.22165 10.2641 1.1935 10.3045 1.17472C10.345 1.15594 10.3881 1.14691 10.4314 1.14813H12.0533C12.1338 1.15117 12.2106 1.18957 12.2691 1.25607C12.3275 1.32256 12.3636 1.4125 12.3705 1.50882V2.91631H12.4025C12.8246 1.56101 13.6227 0.930176 14.6958 0.930176C15.769 0.930176 16.4686 1.56101 16.9572 2.91631C17.3793 1.56101 18.3386 0.930176 19.3632 0.930176C20.0948 0.930176 20.898 1.28934 21.379 2.10283C21.9328 3.00534 21.8202 4.31612 21.8202 5.46728V12.233C21.8182 12.3378 21.7817 12.4373 21.7186 12.5098C21.6556 12.5823 21.5712 12.6219 21.4838 12.6198H19.7418C19.6586 12.6155 19.5799 12.5732 19.5219 12.5016C19.4639 12.43 19.4309 12.3345 19.4297 12.2346V6.54477C19.4297 6.09352 19.4616 4.96384 19.3798 4.53561C19.2519 3.81268 18.8592 3.61468 18.3565 3.61468C18.1298 3.62236 17.9101 3.71023 17.7249 3.86724C17.5396 4.02425 17.3972 4.24342 17.3154 4.49724C17.1363 5.03905 17.1529 5.94156 17.1529 6.55091V12.233C17.1521 12.2848 17.1428 12.3359 17.1255 12.3834C17.1082 12.4309 17.0833 12.4738 17.0521 12.5097C17.021 12.5457 16.9843 12.5739 16.9441 12.5928C16.9039 12.6116 16.861 12.6208 16.8178 12.6198H15.077C14.9937 12.6155 14.9149 12.5733 14.8567 12.5017C14.7985 12.4301 14.7652 12.3346 14.7636 12.2346V6.54477C14.7636 5.3491 14.9261 3.58705 13.6905 3.58705C12.4549 3.58705 12.4869 5.30305 12.4869 6.54477V12.233C12.4861 12.285 12.4767 12.3362 12.4593 12.3838C12.4419 12.4314 12.4169 12.4744 12.3857 12.5103C12.3544 12.5462 12.3175 12.5744 12.2772 12.5932C12.2368 12.612 12.1938 12.6211 12.1505 12.6198" fill="white"/>
<path fill-rule="evenodd" clip-rule="evenodd" d="M44.3494 0.921143C46.937 0.921143 48.335 3.58569 48.335 6.97318C48.335 10.2471 46.7899 12.8441 44.3494 12.8441C41.813 12.8441 40.4316 10.178 40.4316 6.85806C40.4316 3.53811 41.8297 0.921143 44.3494 0.921143ZM44.3673 3.11142C43.0883 3.11142 43 5.21114 43 6.52039C43 7.82964 42.9847 10.6308 44.3494 10.6308C45.7142 10.6308 45.7654 8.37299 45.7654 6.99467C45.7654 6.09062 45.7334 5.00853 45.5095 4.15053C45.3138 3.40458 44.9237 3.11142 44.3712 3.11142" fill="white"/>
<path fill-rule="evenodd" clip-rule="evenodd" d="M51.6882 12.62H49.9525C49.8693 12.6154 49.7907 12.573 49.7326 12.5015C49.6744 12.43 49.641 12.3347 49.6392 12.2347V1.49826C49.649 1.40048 49.6887 1.31054 49.7506 1.24589C49.8125 1.18123 49.8922 1.14646 49.9743 1.14831H51.5897C51.6622 1.15175 51.7318 1.18364 51.7877 1.2391C51.8436 1.29455 51.8828 1.3705 51.8993 1.45528V3.09607H51.9313C52.4186 1.62259 53.1016 0.921143 54.3039 0.921143C55.0854 0.921143 55.849 1.25882 56.3376 2.18435C56.793 3.04235 56.793 4.48667 56.793 5.52732V12.2808C56.7812 12.3764 56.7408 12.4635 56.6794 12.5259C56.6179 12.5883 56.5396 12.6218 56.4592 12.62H54.7119C54.6357 12.6146 54.5634 12.5777 54.5072 12.5156C54.451 12.4535 54.4145 12.37 54.4037 12.2793V6.44671C54.4037 5.27253 54.5175 3.55807 53.3139 3.55807C53.0951 3.5695 52.8837 3.65637 52.7049 3.80826C52.5262 3.96016 52.3877 4.17064 52.306 4.41453C52.063 5.06993 52.0285 5.72378 52.0285 6.44671V12.2332C52.0258 12.3383 51.9887 12.4378 51.9252 12.5102C51.8618 12.5826 51.7771 12.6221 51.6895 12.62" fill="white"/>
<path fill-rule="evenodd" clip-rule="evenodd" d="M28.4748 7.49332C28.4748 8.30834 28.4902 8.98675 28.1487 9.71275C27.8711 10.3006 27.4324 10.6628 26.9425 10.6628C26.2735 10.6628 25.8821 10.0489 25.8821 9.14638C25.8821 7.36592 27.2137 7.04206 28.4748 7.04206V7.49332ZM30.2297 12.586C30.1737 12.6443 30.1039 12.6803 30.0301 12.6888C29.9563 12.6973 29.8821 12.678 29.8178 12.6336C29.2397 12.058 29.1361 11.791 28.8202 11.2415C27.8634 12.4111 27.1855 12.761 25.9474 12.761C24.4803 12.761 23.3394 11.6743 23.3394 9.50247C23.3394 7.8049 24.1068 6.6522 25.1966 6.0843C26.1431 5.58699 27.4631 5.49643 28.4735 5.36136V5.09583C28.4735 4.597 28.5055 4.00913 28.2612 3.5809C28.0502 3.19411 27.6421 3.03756 27.2827 3.03756C26.6189 3.03756 26.0292 3.44583 25.8821 4.29155C25.8734 4.38632 25.8392 4.47511 25.7847 4.54458C25.7303 4.61405 25.6586 4.66045 25.5803 4.67681L23.8919 4.45732C23.8507 4.44998 23.8112 4.43265 23.7757 4.40638C23.7403 4.38012 23.7096 4.34547 23.6857 4.30454C23.6618 4.26361 23.645 4.21727 23.6365 4.16833C23.628 4.11939 23.6278 4.06888 23.6361 4.01988C24.0198 1.56407 25.8745 0.818115 27.5309 0.818115C28.3789 0.818115 29.4878 1.08979 30.1555 1.85876C31.0035 2.80886 30.9229 4.0782 30.9229 5.45806V8.71508C30.9229 9.69587 31.2619 10.1241 31.5817 10.6536C31.6917 10.844 31.7173 11.0696 31.5817 11.2077C31.2261 11.5669 30.5929 12.2269 30.2463 12.5983L30.2297 12.586Z" fill="white"/>
<path fill-rule="evenodd" clip-rule="evenodd" d="M5.63418 7.49332C5.63418 8.30834 5.64953 8.98675 5.30802 9.71275C5.03046 10.3006 4.59174 10.6628 4.10186 10.6628C3.4329 10.6628 3.04151 10.0489 3.04151 9.14638C3.04151 7.36592 4.37429 7.04206 5.63418 7.04206V7.49332ZM7.39034 12.586C7.33452 12.6442 7.26497 12.6801 7.19139 12.6886C7.1178 12.6971 7.04383 12.6779 6.97976 12.6336C6.40034 12.058 6.29674 11.791 5.97953 11.2415C5.02406 12.4111 4.34616 12.761 3.10802 12.761C1.64093 12.761 0.5 11.6743 0.5 9.50247C0.5 7.8049 1.26744 6.6522 2.35721 6.0843C3.30372 5.58699 4.62371 5.49643 5.63418 5.36136V5.09583C5.63418 4.597 5.66615 4.00913 5.42185 3.5809C5.2108 3.19411 4.80278 3.03756 4.44336 3.03756C3.77953 3.03756 3.1886 3.44583 3.04279 4.29155C3.0342 4.38641 3.00009 4.47533 2.94562 4.54484C2.89116 4.61436 2.8193 4.66068 2.74093 4.67681L1.05256 4.45732C1.01135 4.44998 0.971806 4.43265 0.936354 4.40638C0.900902 4.38012 0.870279 4.34547 0.846345 4.30454C0.822412 4.26361 0.80567 4.21727 0.797143 4.16833C0.788616 4.11939 0.788481 4.06888 0.796745 4.01988C1.18047 1.56407 3.03511 0.818115 4.69278 0.818115C5.53953 0.818115 6.64848 1.08979 7.31743 1.85876C8.16417 2.80886 8.08487 4.0782 8.08487 5.45806V8.71508C8.08487 9.69587 8.42255 10.1241 8.74231 10.6536C8.85231 10.844 8.87789 11.0696 8.73592 11.2077C8.38034 11.5669 7.7472 12.2269 7.40057 12.5983L7.39034 12.586Z" fill="white"/>
</svg>
