<svg width="89" height="33" viewBox="0 0 89 33" fill="none" xmlns="http://www.w3.org/2000/svg">
<path fill-rule="evenodd" clip-rule="evenodd" d="M53.131 22.7708C48.9922 26.4303 43.0127 28.3832 37.8412 28.3832C30.9481 28.4256 24.2903 25.3777 19.1722 19.8367C18.786 19.4197 19.1302 18.8437 19.5956 19.1695C24.9109 22.8833 31.4868 25.1174 38.276 25.1174C43.1704 25.092 48.0124 23.9057 52.5234 21.6266C53.2215 21.2718 53.8162 22.1813 53.1245 22.7902" fill="white"/>
<path fill-rule="evenodd" clip-rule="evenodd" d="M54.8511 20.4141C54.321 19.6015 51.3571 20.0262 50.0238 20.2202C49.6214 20.2784 49.5584 19.8556 49.9236 19.5492C52.288 17.5556 56.1633 18.1316 56.6142 18.7967C57.0651 19.4619 56.4962 24.1337 54.279 26.36C53.938 26.7033 53.6131 26.519 53.7651 26.0691C54.2628 24.5739 55.3811 21.2209 54.8511 20.4141Z" fill="white"/>
<path fill-rule="evenodd" clip-rule="evenodd" d="M50.1232 5.46443V3.52513C50.1217 3.4601 50.1312 3.39538 50.1512 3.3349C50.1711 3.27442 50.2012 3.21946 50.2394 3.17337C50.2777 3.12727 50.3234 3.09102 50.3737 3.06681C50.424 3.0426 50.4779 3.03094 50.5321 3.03255H57.7689C57.8233 3.03017 57.8776 3.04111 57.9283 3.0647C57.9791 3.08829 58.0253 3.12404 58.0641 3.16977C58.103 3.21549 58.1337 3.27024 58.1543 3.33067C58.175 3.3911 58.1852 3.45594 58.1843 3.52125V5.18323C58.1843 5.46055 57.9887 5.82514 57.6396 6.40111L53.8936 12.8241C55.2834 12.7853 56.7556 13.0355 58.0194 13.8868C58.1334 13.9614 58.2288 14.0708 58.2961 14.204C58.3633 14.3372 58.4 14.4894 58.4024 14.6451V16.7124C58.4024 16.9955 58.1439 17.3252 57.8707 17.1526C56.6879 16.4233 55.3766 16.0445 54.0467 16.0479C52.7169 16.0512 51.407 16.4367 50.2267 17.172C49.9729 17.331 49.7111 17.0052 49.7111 16.7201V14.7595C49.6874 14.2938 49.7809 13.8303 49.9794 13.4291L54.3251 5.95313H50.545C50.4904 5.95577 50.436 5.94504 50.3849 5.92159C50.3339 5.89814 50.2874 5.86246 50.2482 5.81673C50.2091 5.77101 50.1781 5.71619 50.1571 5.65562C50.1362 5.59505 50.1258 5.53 50.1265 5.46443" fill="white"/>
<path fill-rule="evenodd" clip-rule="evenodd" d="M23.7235 17.5656H21.5192C21.42 17.5602 21.3258 17.5121 21.2537 17.4302C21.1816 17.3483 21.1364 17.2381 21.1265 17.1196V3.55998C21.1277 3.49427 21.1398 3.4295 21.1619 3.36937C21.184 3.30925 21.2158 3.25494 21.2554 3.20956C21.295 3.16417 21.3417 3.1286 21.3928 3.10487C21.4439 3.08115 21.4984 3.06974 21.5531 3.07128H23.6023C23.704 3.07512 23.8011 3.12364 23.8749 3.20766C23.9488 3.29167 23.9944 3.40531 24.0031 3.52701V5.30535H24.0435C24.5768 3.59295 25.5852 2.7959 26.9411 2.7959C28.297 2.7959 29.181 3.59295 29.7984 5.30535C30.3317 3.59295 31.5437 2.7959 32.8382 2.7959C33.7626 2.7959 34.7775 3.2497 35.3852 4.27753C36.0849 5.41784 35.9427 7.07399 35.9427 8.52847V17.0769C35.9402 17.2093 35.894 17.335 35.8144 17.4266C35.7347 17.5182 35.628 17.5682 35.5177 17.5656H33.3166C33.2115 17.5602 33.1121 17.5067 33.0388 17.4162C32.9655 17.3257 32.9238 17.205 32.9223 17.0788V9.88986C32.9223 9.31971 32.9627 7.89238 32.8592 7.35131C32.6976 6.4379 32.2015 6.18773 31.5664 6.18773C31.2799 6.19744 31.0023 6.30846 30.7683 6.50684C30.5342 6.70522 30.3542 6.98214 30.2509 7.30283C30.0246 7.9874 30.0456 9.12771 30.0456 9.89761V17.0769C30.0446 17.1424 30.0328 17.2069 30.0109 17.2669C29.9891 17.3269 29.9576 17.3811 29.9183 17.4265C29.879 17.4719 29.8326 17.5075 29.7818 17.5314C29.731 17.5553 29.6768 17.5669 29.6222 17.5656H27.4227C27.3175 17.5602 27.2179 17.5068 27.1444 17.4164C27.0708 17.3259 27.0287 17.2052 27.0268 17.0788V9.88986C27.0268 8.37915 27.232 6.15283 25.6709 6.15283C24.1098 6.15283 24.1502 8.32097 24.1502 9.88986V17.0769C24.1491 17.1425 24.1373 17.2073 24.1153 17.2674C24.0934 17.3275 24.0617 17.3818 24.0222 17.4272C23.9828 17.4726 23.9362 17.5082 23.8852 17.532C23.8342 17.5557 23.7798 17.5672 23.7251 17.5656" fill="white"/>
<path fill-rule="evenodd" clip-rule="evenodd" d="M64.4086 2.78442C67.6779 2.78442 69.4443 6.15105 69.4443 10.4311C69.4443 14.5676 67.4921 17.8489 64.4086 17.8489C61.2039 17.8489 59.4585 14.4803 59.4585 10.2856C59.4585 6.09093 61.2249 2.78442 64.4086 2.78442ZM64.4312 5.5518C62.8151 5.5518 62.7036 8.20477 62.7036 9.85899C62.7036 11.5132 62.6842 15.0524 64.4086 15.0524C66.1329 15.0524 66.1976 12.1997 66.1976 10.4582C66.1976 9.31599 66.1572 7.94878 65.8744 6.86471C65.6271 5.92221 65.1342 5.5518 64.436 5.5518" fill="white"/>
<path fill-rule="evenodd" clip-rule="evenodd" d="M73.6813 17.5658H71.4882C71.3831 17.5599 71.2838 17.5064 71.2103 17.416C71.1368 17.3257 71.0946 17.2052 71.0923 17.079V3.5136C71.1047 3.39005 71.1549 3.27642 71.2331 3.19473C71.3113 3.11304 71.412 3.06911 71.5157 3.07144H73.5568C73.6484 3.07579 73.7363 3.11609 73.8069 3.18616C73.8776 3.25622 73.9271 3.35219 73.9479 3.4593V5.53241H73.9883C74.604 3.67069 75.467 2.78442 76.9861 2.78442C77.9736 2.78442 78.9384 3.21107 79.5557 4.38047C80.131 5.46454 80.131 7.28942 80.131 8.60427V17.1372C80.1161 17.2579 80.0651 17.368 79.9875 17.4469C79.9099 17.5258 79.8109 17.568 79.7092 17.5658H77.5017C77.4054 17.5589 77.314 17.5123 77.243 17.4338C77.172 17.3554 77.1258 17.2499 77.1122 17.1352V9.7659C77.1122 8.28234 77.256 6.11614 75.7353 6.11614C75.4588 6.13059 75.1917 6.24034 74.9658 6.43226C74.74 6.62417 74.565 6.89012 74.4618 7.19827C74.1548 8.02635 74.1111 8.85249 74.1111 9.7659V17.0771C74.1077 17.2098 74.0609 17.3355 73.9807 17.427C73.9005 17.5185 73.7935 17.5684 73.6829 17.5658" fill="white"/>
<path fill-rule="evenodd" clip-rule="evenodd" d="M44.3514 11.0883C44.3514 12.1181 44.3708 12.9753 43.9393 13.8925C43.5886 14.6353 43.0343 15.093 42.4153 15.093C41.5701 15.093 41.0756 14.3173 41.0756 13.1769C41.0756 10.9274 42.7579 10.5182 44.3514 10.5182V11.0883ZM46.5686 17.5229C46.4979 17.5966 46.4097 17.6419 46.3165 17.6527C46.2232 17.6635 46.1295 17.6391 46.0483 17.583C45.3178 16.8558 45.1869 16.5184 44.7877 15.8241C43.5789 17.3018 42.7224 17.744 41.158 17.744C39.3043 17.744 37.8628 16.371 37.8628 13.6269C37.8628 11.482 38.8324 10.0256 40.2093 9.30804C41.4052 8.67971 43.073 8.56529 44.3498 8.39463V8.05913C44.3498 7.42886 44.3902 6.6861 44.0815 6.14504C43.8148 5.65633 43.2993 5.45853 42.8452 5.45853C42.0064 5.45853 41.2614 5.97438 41.0756 7.04293C41.0645 7.16267 41.0213 7.27486 40.9525 7.36263C40.8837 7.45041 40.7931 7.50903 40.6942 7.5297L38.5609 7.25238C38.5089 7.24311 38.4589 7.22121 38.4141 7.18802C38.3693 7.15483 38.3306 7.11106 38.3004 7.05935C38.2702 7.00764 38.249 6.94908 38.2382 6.88725C38.2275 6.82541 38.2273 6.7616 38.2377 6.69968C38.7225 3.5968 41.0659 2.6543 43.1587 2.6543C44.2302 2.6543 45.6313 2.99755 46.4749 3.96914C47.5464 5.16957 47.4446 6.77337 47.4446 8.5168V12.632C47.4446 13.8712 47.8728 14.4123 48.2768 15.0813C48.4158 15.3218 48.4481 15.6069 48.2768 15.7814C47.8276 16.2352 47.0276 17.0691 46.5896 17.5384L46.5686 17.5229Z" fill="white"/>
<path fill-rule="evenodd" clip-rule="evenodd" d="M15.4923 11.0883C15.4923 12.1181 15.5117 12.9753 15.0802 13.8925C14.7295 14.6353 14.1752 15.093 13.5563 15.093C12.7111 15.093 12.2165 14.3173 12.2165 13.1769C12.2165 10.9274 13.9005 10.5182 15.4923 10.5182V11.0883ZM17.7112 17.5229C17.6407 17.5964 17.5528 17.6417 17.4598 17.6525C17.3669 17.6632 17.2734 17.639 17.1925 17.583C16.4604 16.8558 16.3295 16.5184 15.9287 15.8241C14.7215 17.3018 13.8649 17.744 12.3006 17.744C10.4469 17.744 9.00537 16.371 9.00537 13.6269C9.00537 11.482 9.97502 10.0256 11.3519 9.30804C12.5478 8.67971 14.2156 8.56529 15.4923 8.39463V8.05913C15.4923 7.42886 15.5327 6.6861 15.2241 6.14504C14.9574 5.65633 14.4419 5.45853 13.9878 5.45853C13.149 5.45853 12.4024 5.97438 12.2181 7.04293C12.2073 7.16279 12.1642 7.27513 12.0954 7.36297C12.0266 7.4508 11.9358 7.50933 11.8367 7.5297L9.70352 7.25238C9.65145 7.24311 9.60149 7.22121 9.5567 7.18802C9.5119 7.15483 9.47321 7.11106 9.44297 7.05935C9.41273 7.00764 9.39158 6.94908 9.38081 6.88725C9.37003 6.82541 9.36986 6.7616 9.3803 6.69968C9.86513 3.5968 12.2085 2.6543 14.3029 2.6543C15.3727 2.6543 16.7739 2.99755 17.6191 3.96914C18.6889 5.16957 18.5887 6.77337 18.5887 8.5168V12.632C18.5887 13.8712 19.0154 14.4123 19.4194 15.0813C19.5584 15.3218 19.5907 15.6069 19.4113 15.7814C18.9621 16.2352 18.1621 17.0691 17.7241 17.5384L17.7112 17.5229Z" fill="white"/>
</svg>
