<svg width="36" height="36" viewBox="0 0 36 36" fill="none" xmlns="http://www.w3.org/2000/svg">
<path d="M4.42969 9.53092L15.3141 3.00031L26.1985 9.53092" stroke="#0E1122" stroke-width="2.25" stroke-linecap="round" stroke-linejoin="round"/>
<path d="M7.69434 12.7994V22.5953" stroke="#0E1122" stroke-width="2.25" stroke-linecap="round" stroke-linejoin="round"/>
<path d="M15.3115 12.7994V19.9422" stroke="#0E1122" stroke-width="2.25" stroke-linecap="round" stroke-linejoin="round"/>
<path d="M23.001 13.0004L23.001 15.1432" stroke="#0E1122" stroke-width="2.25" stroke-linecap="round" stroke-linejoin="round"/>
<path d="M4.4292 25.8574H13.7149" stroke="#0E1122" stroke-width="2.25" stroke-linecap="round" stroke-linejoin="round"/>
<path d="M24.428 32.9997C28.3729 32.9997 31.5708 29.8017 31.5708 25.8568C31.5708 21.9119 28.3729 18.714 24.428 18.714C20.4831 18.714 17.2852 21.9119 17.2852 25.8568C17.2852 29.8017 20.4831 32.9997 24.428 32.9997Z" stroke="#0E1122" stroke-width="2.25" stroke-linecap="round" stroke-linejoin="round"/>
<path d="M22.482 28.1825C22.7084 28.4803 23.0034 28.719 23.3419 28.8783C23.6803 29.0377 24.0522 29.113 24.426 29.0979C25.6167 29.0979 26.5842 28.3729 26.5842 27.479C26.5842 26.5851 25.6167 25.8612 24.426 25.8612C23.2354 25.8612 22.2734 25.1361 22.2734 24.2411C22.2734 23.3461 23.2398 22.6221 24.426 22.6221C24.7998 22.6072 25.1716 22.6827 25.51 22.842C25.8485 23.0014 26.1435 23.24 26.37 23.5376" stroke="#0E1122" stroke-width="2.25" stroke-linecap="round" stroke-linejoin="round"/>
<path d="M22.482 28.1825C22.7084 28.4803 23.0034 28.719 23.3419 28.8783C23.6803 29.0377 24.0522 29.113 24.426 29.0979C25.6167 29.0979 26.5842 28.3729 26.5842 27.479C26.5842 26.5851 25.6167 25.8612 24.426 25.8612C23.2354 25.8612 22.2734 25.1361 22.2734 24.2411C22.2734 23.3461 23.2398 22.6221 24.426 22.6221C24.7998 22.6072 25.1716 22.6827 25.51 22.842C25.8485 23.0014 26.1435 23.24 26.37 23.5376" stroke="#0E1122" stroke-width="2.25" stroke-linecap="round" stroke-linejoin="round"/>
<path d="M24.4258 29.0934V30.172" stroke="#0E1122" stroke-width="2.25" stroke-linecap="round" stroke-linejoin="round"/>
<path d="M24.4258 29.0934V30.172" stroke="#0E1122" stroke-width="2.25" stroke-linecap="round" stroke-linejoin="round"/>
<path d="M24.4258 21.5433V22.6218" stroke="#0E1122" stroke-width="2.25" stroke-linecap="round" stroke-linejoin="round"/>
<path d="M24.4258 21.5433V22.6218" stroke="#0E1122" stroke-width="2.25" stroke-linecap="round" stroke-linejoin="round"/>
</svg>
