<svg width="23" height="22" viewBox="0 0 23 22" fill="none" xmlns="http://www.w3.org/2000/svg">
<path d="M9.85352 7.04736L13.2471 7.04736" stroke="#4C57FF" stroke-width="1.46107" stroke-linecap="round" stroke-linejoin="round"/>
<path d="M13.2529 7.12039C14.9805 8.32073 17.9557 11.8204 17.9557 14.4189C17.9557 17.0496 16.8537 19.1819 11.5247 19.1819C6.19568 19.1819 5.09375 17.0496 5.09375 14.4189C5.09375 11.8204 8.06897 8.32073 9.79649 7.12039C9.36632 6.29959 6.93819 5.01528 7.26895 3.99542C7.76755 2.45808 15.2402 2.39356 15.7751 3.99367C16.1153 5.01161 13.6819 6.30136 13.2529 7.12039Z" stroke="#4C57FF" stroke-width="1.46107" stroke-linecap="round" stroke-linejoin="round"/>
<path d="M11.4863 10.7054V9.65674" stroke="#4C57FF" stroke-width="1.46107" stroke-linecap="round" stroke-linejoin="round"/>
<path d="M13.224 10.7043H10.6714C10.4235 10.7043 10.1858 10.803 10.0106 10.9787C9.83531 11.1544 9.73684 11.3927 9.73684 11.6411C9.73538 11.8281 9.79062 12.0111 9.89523 12.1659C9.99985 12.3207 10.1489 12.44 10.3227 12.508L12.6381 13.0883C12.8426 13.1674 13.0129 13.3161 13.1191 13.5083C13.2253 13.7005 13.2608 13.924 13.2192 14.1398C13.1777 14.3555 13.0618 14.5498 12.8918 14.6885C12.7218 14.8273 12.5086 14.9018 12.2894 14.8989H9.73684" stroke="#4C57FF" stroke-width="1.46107" stroke-linecap="round" stroke-linejoin="round"/>
<path d="M11.479 15.9478V14.8992" stroke="#4C57FF" stroke-width="1.46107" stroke-linecap="round" stroke-linejoin="round"/>
</svg>
