<svg width="231" height="167" viewBox="0 0 231 167" fill="none" xmlns="http://www.w3.org/2000/svg">
<g filter="url(#filter0_b_1_612)">
<rect y="0.628906" width="230.837" height="165.74" rx="32" fill="#DEDEDE" fill-opacity="0.5"/>
<path d="M24.518 31.7429C24.518 30.7909 24.7373 29.9369 25.176 29.1809C25.624 28.4249 26.226 27.8369 26.982 27.4169C27.7473 26.9876 28.5827 26.7729 29.488 26.7729C30.524 26.7729 31.4433 27.0296 32.246 27.5429C33.058 28.0469 33.646 28.7656 34.01 29.6989H32.092C31.84 29.1856 31.49 28.8029 31.042 28.5509C30.594 28.2989 30.076 28.1729 29.488 28.1729C28.844 28.1729 28.27 28.3176 27.766 28.6069C27.262 28.8962 26.8653 29.3116 26.576 29.8529C26.296 30.3942 26.156 31.0242 26.156 31.7429C26.156 32.4616 26.296 33.0916 26.576 33.6329C26.8653 34.1742 27.262 34.5942 27.766 34.8929C28.27 35.1822 28.844 35.3269 29.488 35.3269C30.076 35.3269 30.594 35.2009 31.042 34.9489C31.49 34.6969 31.84 34.3142 32.092 33.8009H34.01C33.646 34.7342 33.058 35.4529 32.246 35.9569C31.4433 36.4609 30.524 36.7129 29.488 36.7129C28.5733 36.7129 27.738 36.5029 26.982 36.0829C26.226 35.6536 25.624 35.0609 25.176 34.3049C24.7373 33.5489 24.518 32.6949 24.518 31.7429ZM42.8641 34.6409H38.7901L38.0901 36.6289H36.4241L39.9101 26.8849H41.7581L45.2441 36.6289H43.5641L42.8641 34.6409ZM42.4161 33.3389L40.8341 28.8169L39.2381 33.3389H42.4161ZM51.0858 36.7269C50.4325 36.7269 49.8445 36.6149 49.3218 36.3909C48.7992 36.1576 48.3885 35.8309 48.0898 35.4109C47.7912 34.9909 47.6418 34.5009 47.6418 33.9409H49.3498C49.3872 34.3609 49.5505 34.7062 49.8398 34.9769C50.1385 35.2476 50.5538 35.3829 51.0858 35.3829C51.6365 35.3829 52.0658 35.2522 52.3738 34.9909C52.6818 34.7202 52.8358 34.3749 52.8358 33.9549C52.8358 33.6282 52.7378 33.3622 52.5418 33.1569C52.3552 32.9516 52.1172 32.7929 51.8278 32.6809C51.5478 32.5689 51.1558 32.4476 50.6518 32.3169C50.0172 32.1489 49.4992 31.9809 49.0978 31.8129C48.7058 31.6356 48.3698 31.3649 48.0898 31.0009C47.8098 30.6369 47.6698 30.1516 47.6698 29.5449C47.6698 28.9849 47.8098 28.4949 48.0898 28.0749C48.3698 27.6549 48.7618 27.3329 49.2658 27.1089C49.7698 26.8849 50.3532 26.7729 51.0158 26.7729C51.9585 26.7729 52.7285 27.0109 53.3258 27.4869C53.9325 27.9536 54.2685 28.5976 54.3338 29.4189H52.5698C52.5418 29.0642 52.3738 28.7609 52.0658 28.5089C51.7578 28.2569 51.3518 28.1309 50.8478 28.1309C50.3905 28.1309 50.0172 28.2476 49.7278 28.4809C49.4385 28.7142 49.2938 29.0502 49.2938 29.4889C49.2938 29.7876 49.3825 30.0349 49.5598 30.2309C49.7465 30.4176 49.9798 30.5669 50.2598 30.6789C50.5398 30.7909 50.9225 30.9122 51.4078 31.0429C52.0518 31.2202 52.5745 31.3976 52.9758 31.5749C53.3865 31.7522 53.7318 32.0276 54.0118 32.4009C54.3012 32.7649 54.4458 33.2549 54.4458 33.8709C54.4458 34.3656 54.3105 34.8322 54.0398 35.2709C53.7785 35.7096 53.3912 36.0642 52.8778 36.3349C52.3738 36.5962 51.7765 36.7269 51.0858 36.7269ZM65.2191 26.8989V36.6289H63.6231V32.3729H59.0451V36.6289H57.4491V26.8989H59.0451V31.0709H63.6231V26.8989H65.2191ZM78.9229 26.8989V28.2009H74.7929V31.0709H78.0129V32.3729H74.7929V36.6289H73.1969V26.8989H78.9229ZM83.118 35.3409H86.408V36.6289H81.522V26.8989H83.118V35.3409ZM93.3007 36.7269C92.3953 36.7269 91.56 36.5169 90.7947 36.0969C90.0387 35.6676 89.4367 35.0749 88.9887 34.3189C88.55 33.5536 88.3307 32.6949 88.3307 31.7429C88.3307 30.7909 88.55 29.9369 88.9887 29.1809C89.4367 28.4249 90.0387 27.8369 90.7947 27.4169C91.56 26.9876 92.3953 26.7729 93.3007 26.7729C94.2153 26.7729 95.0507 26.9876 95.8067 27.4169C96.572 27.8369 97.174 28.4249 97.6127 29.1809C98.0513 29.9369 98.2707 30.7909 98.2707 31.7429C98.2707 32.6949 98.0513 33.5536 97.6127 34.3189C97.174 35.0749 96.572 35.6676 95.8067 36.0969C95.0507 36.5169 94.2153 36.7269 93.3007 36.7269ZM93.3007 35.3409C93.9447 35.3409 94.5187 35.1962 95.0227 34.9069C95.5267 34.6082 95.9187 34.1882 96.1987 33.6469C96.488 33.0962 96.6327 32.4616 96.6327 31.7429C96.6327 31.0242 96.488 30.3942 96.1987 29.8529C95.9187 29.3116 95.5267 28.8962 95.0227 28.6069C94.5187 28.3176 93.9447 28.1729 93.3007 28.1729C92.6567 28.1729 92.0827 28.3176 91.5787 28.6069C91.0747 28.8962 90.678 29.3116 90.3887 29.8529C90.1087 30.3942 89.9687 31.0242 89.9687 31.7429C89.9687 32.4616 90.1087 33.0962 90.3887 33.6469C90.678 34.1882 91.0747 34.6082 91.5787 34.9069C92.0827 35.1962 92.6567 35.3409 93.3007 35.3409ZM113.631 26.8989L110.747 36.6289H108.941L106.897 29.2649L104.727 36.6289L102.935 36.6429L100.177 26.8989H101.871L103.887 34.8229L106.071 26.8989H107.863L109.893 34.7809L111.923 26.8989H113.631ZM127.628 29.7969C127.628 30.2916 127.512 30.7582 127.278 31.1969C127.045 31.6356 126.672 31.9949 126.158 32.2749C125.645 32.5456 124.987 32.6809 124.184 32.6809H122.42V36.6289H120.824V26.8989H124.184C124.931 26.8989 125.561 27.0296 126.074 27.2909C126.597 27.5429 126.984 27.8882 127.236 28.3269C127.498 28.7656 127.628 29.2556 127.628 29.7969ZM124.184 31.3789C124.791 31.3789 125.244 31.2436 125.542 30.9729C125.841 30.6929 125.99 30.3009 125.99 29.7969C125.99 28.7329 125.388 28.2009 124.184 28.2009H122.42V31.3789H124.184ZM135.324 36.6289L133.084 32.7369H131.866V36.6289H130.27V26.8989H133.63C134.377 26.8989 135.007 27.0296 135.52 27.2909C136.043 27.5522 136.43 27.9022 136.682 28.3409C136.944 28.7796 137.074 29.2696 137.074 29.8109C137.074 30.4456 136.888 31.0242 136.514 31.5469C136.15 32.0602 135.586 32.4102 134.82 32.5969L137.228 36.6289H135.324ZM131.866 31.4629H133.63C134.228 31.4629 134.676 31.3136 134.974 31.0149C135.282 30.7162 135.436 30.3149 135.436 29.8109C135.436 29.3069 135.287 28.9149 134.988 28.6349C134.69 28.3456 134.237 28.2009 133.63 28.2009H131.866V31.4629ZM141.832 28.1869V31.0429H145.192V32.3449H141.832V35.3269H145.612V36.6289H140.236V26.8849H145.612V28.1869H141.832ZM151.876 26.8989C152.912 26.8989 153.817 27.0996 154.592 27.5009C155.376 27.8929 155.978 28.4622 156.398 29.2089C156.827 29.9462 157.042 30.8096 157.042 31.7989C157.042 32.7882 156.827 33.6469 156.398 34.3749C155.978 35.1029 155.376 35.6629 154.592 36.0549C153.817 36.4376 152.912 36.6289 151.876 36.6289H148.698V26.8989H151.876ZM151.876 35.3269C153.015 35.3269 153.887 35.0189 154.494 34.4029C155.101 33.7869 155.404 32.9189 155.404 31.7989C155.404 30.6696 155.101 29.7876 154.494 29.1529C153.887 28.5182 153.015 28.2009 151.876 28.2009H150.294V35.3269H151.876ZM161.34 26.8989V36.6289H159.744V26.8989H161.34ZM164.023 31.7429C164.023 30.7909 164.242 29.9369 164.681 29.1809C165.129 28.4249 165.731 27.8369 166.487 27.4169C167.252 26.9876 168.088 26.7729 168.993 26.7729C170.029 26.7729 170.948 27.0296 171.751 27.5429C172.563 28.0469 173.151 28.7656 173.515 29.6989H171.597C171.345 29.1856 170.995 28.8029 170.547 28.5509C170.099 28.2989 169.581 28.1729 168.993 28.1729C168.349 28.1729 167.775 28.3176 167.271 28.6069C166.767 28.8962 166.37 29.3116 166.081 29.8529C165.801 30.3942 165.661 31.0242 165.661 31.7429C165.661 32.4616 165.801 33.0916 166.081 33.6329C166.37 34.1742 166.767 34.5942 167.271 34.8929C167.775 35.1822 168.349 35.3269 168.993 35.3269C169.581 35.3269 170.099 35.2009 170.547 34.9489C170.995 34.6969 171.345 34.3142 171.597 33.8009H173.515C173.151 34.7342 172.563 35.4529 171.751 35.9569C170.948 36.4609 170.029 36.7129 168.993 36.7129C168.078 36.7129 167.243 36.5029 166.487 36.0829C165.731 35.6536 165.129 35.0609 164.681 34.3049C164.242 33.5489 164.023 32.6949 164.023 31.7429ZM182.789 26.8989V28.2009H180.199V36.6289H178.603V28.2009H175.999V26.8989H182.789ZM187.122 26.8989V36.6289H185.526V26.8989H187.122ZM194.775 36.7269C193.87 36.7269 193.034 36.5169 192.269 36.0969C191.513 35.6676 190.911 35.0749 190.463 34.3189C190.024 33.5536 189.805 32.6949 189.805 31.7429C189.805 30.7909 190.024 29.9369 190.463 29.1809C190.911 28.4249 191.513 27.8369 192.269 27.4169C193.034 26.9876 193.87 26.7729 194.775 26.7729C195.69 26.7729 196.525 26.9876 197.281 27.4169C198.046 27.8369 198.648 28.4249 199.087 29.1809C199.526 29.9369 199.745 30.7909 199.745 31.7429C199.745 32.6949 199.526 33.5536 199.087 34.3189C198.648 35.0749 198.046 35.6676 197.281 36.0969C196.525 36.5169 195.69 36.7269 194.775 36.7269ZM194.775 35.3409C195.419 35.3409 195.993 35.1962 196.497 34.9069C197.001 34.6082 197.393 34.1882 197.673 33.6469C197.962 33.0962 198.107 32.4616 198.107 31.7429C198.107 31.0242 197.962 30.3942 197.673 29.8529C197.393 29.3116 197.001 28.8962 196.497 28.6069C195.993 28.3176 195.419 28.1729 194.775 28.1729C194.131 28.1729 193.557 28.3176 193.053 28.6069C192.549 28.8962 192.152 29.3116 191.863 29.8529C191.583 30.3942 191.443 31.0242 191.443 31.7429C191.443 32.4616 191.583 33.0962 191.863 33.6469C192.152 34.1882 192.549 34.6082 193.053 34.9069C193.557 35.1962 194.131 35.3409 194.775 35.3409ZM210.429 36.6289H208.833L204.031 29.3629V36.6289H202.435V26.8849H204.031L208.833 34.1369V26.8849H210.429V36.6289Z" fill="#56565D"/>
<path d="M27.5671 63.3644C27.5671 63.5825 27.5104 63.788 27.3972 63.9809C27.2882 64.1697 27.1246 64.3269 26.9065 64.4528C26.6926 64.5744 26.4389 64.6457 26.1453 64.6667V65.1762H25.7426V64.6604C25.3232 64.6226 24.9856 64.4968 24.7298 64.2829C24.4739 64.0648 24.3418 63.7712 24.3334 63.4021H25.2771C25.3023 63.7041 25.4574 63.8866 25.7426 63.9495V62.7479C25.4407 62.6724 25.1974 62.5969 25.0129 62.5214C24.8283 62.4459 24.669 62.3243 24.5347 62.1565C24.4005 61.9887 24.3334 61.7602 24.3334 61.4708C24.3334 61.1059 24.4634 60.8081 24.7235 60.5774C24.9877 60.3468 25.3274 60.2146 25.7426 60.1811V59.6715H26.1453V60.1811C26.5479 60.2146 26.8687 60.3363 27.1078 60.546C27.3511 60.7557 27.4874 61.0451 27.5167 61.4141H26.5668C26.5542 61.2925 26.5102 61.1877 26.4347 61.0996C26.3634 61.0073 26.2669 60.9423 26.1453 60.9046V62.0936C26.4598 62.1733 26.7073 62.2509 26.8876 62.3264C27.0722 62.3977 27.2315 62.5172 27.3657 62.685C27.5 62.8485 27.5671 63.075 27.5671 63.3644ZM25.2519 61.4267C25.2519 61.5651 25.2939 61.6784 25.3778 61.7665C25.4616 61.8503 25.5833 61.9195 25.7426 61.9741V60.8857C25.5917 60.9067 25.4721 60.9633 25.384 61.0556C25.296 61.1478 25.2519 61.2715 25.2519 61.4267ZM26.1453 63.962C26.3046 63.9327 26.4284 63.8677 26.5164 63.767C26.6087 63.6664 26.6548 63.5447 26.6548 63.4021C26.6548 63.2637 26.6108 63.1526 26.5227 63.0687C26.4347 62.9848 26.3088 62.9156 26.1453 62.8611V63.962ZM28.4623 61.2506C28.4832 60.8312 28.63 60.5082 28.9026 60.2817C29.1795 60.0511 29.5422 59.9357 29.991 59.9357C30.2972 59.9357 30.5593 59.9903 30.7774 60.0993C30.9955 60.2042 31.1591 60.3489 31.2681 60.5334C31.3813 60.7137 31.438 60.9192 31.438 61.1499C31.438 61.4141 31.3688 61.6385 31.2304 61.8231C31.0961 62.0034 30.9347 62.125 30.7459 62.188V62.2131C30.9892 62.2886 31.1779 62.4228 31.3121 62.6158C31.4505 62.8087 31.5197 63.0561 31.5197 63.3581C31.5197 63.6097 31.461 63.8341 31.3436 64.0313C31.2304 64.2284 31.0605 64.3836 30.834 64.4968C30.6117 64.6058 30.3433 64.6604 30.0288 64.6604C29.5548 64.6604 29.169 64.5408 28.8712 64.3018C28.5734 64.0627 28.4161 63.7104 28.3994 63.2449H29.2549C29.2633 63.4504 29.3325 63.616 29.4626 63.7419C29.5968 63.8635 29.7792 63.9243 30.0099 63.9243C30.2238 63.9243 30.3873 63.8656 30.5006 63.7482C30.618 63.6265 30.6767 63.4713 30.6767 63.2826C30.6767 63.031 30.5971 62.8506 30.4377 62.7416C30.2783 62.6325 30.0309 62.578 29.6953 62.578H29.5129V61.8545H29.6953C30.2909 61.8545 30.5887 61.6553 30.5887 61.2569C30.5887 61.0765 30.5341 60.936 30.4251 60.8354C30.3202 60.7347 30.1672 60.6844 29.9658 60.6844C29.7687 60.6844 29.6156 60.7389 29.5066 60.8479C29.4017 60.9528 29.3409 61.087 29.3241 61.2506H28.4623ZM37.1039 60.2377V64.6289H36.2232V61.7727L35.0468 64.6289H34.3799L33.1972 61.7727V64.6289H32.3164V60.2377H33.3167L34.7133 63.5028L36.1099 60.2377H37.1039Z" fill="#76767F"/>
<path d="M27.5671 89.9445C27.5671 90.1626 27.5104 90.3681 27.3972 90.561C27.2882 90.7497 27.1246 90.907 26.9065 91.0328C26.6926 91.1545 26.4389 91.2258 26.1453 91.2467V91.7563H25.7426V91.2404C25.3232 91.2027 24.9856 91.0769 24.7298 90.863C24.4739 90.6449 24.3418 90.3513 24.3334 89.9822H25.2771C25.3023 90.2842 25.4574 90.4666 25.7426 90.5295V89.3279C25.4407 89.2524 25.1974 89.177 25.0129 89.1015C24.8283 89.026 24.669 88.9043 24.5347 88.7366C24.4005 88.5688 24.3334 88.3402 24.3334 88.0508C24.3334 87.686 24.4634 87.3882 24.7235 87.1575C24.9877 86.9268 25.3274 86.7947 25.7426 86.7612V86.2516H26.1453V86.7612C26.5479 86.7947 26.8687 86.9163 27.1078 87.1261C27.3511 87.3358 27.4874 87.6251 27.5167 87.9942H26.5668C26.5542 87.8726 26.5102 87.7677 26.4347 87.6797C26.3634 87.5874 26.2669 87.5224 26.1453 87.4846V88.6737C26.4598 88.7534 26.7073 88.8309 26.8876 88.9064C27.0722 88.9777 27.2315 89.0973 27.3657 89.265C27.5 89.4286 27.5671 89.6551 27.5671 89.9445ZM25.2519 88.0068C25.2519 88.1452 25.2939 88.2585 25.3778 88.3465C25.4616 88.4304 25.5833 88.4996 25.7426 88.5541V87.4658C25.5917 87.4867 25.4721 87.5434 25.384 87.6356C25.296 87.7279 25.2519 87.8516 25.2519 88.0068ZM26.1453 90.5421C26.3046 90.5128 26.4284 90.4478 26.5164 90.3471C26.6087 90.2464 26.6548 90.1248 26.6548 89.9822C26.6548 89.8438 26.6108 89.7327 26.5227 89.6488C26.4347 89.5649 26.3088 89.4957 26.1453 89.4412V90.5421ZM28.7265 90.215C29.1291 89.8795 29.45 89.6006 29.689 89.3783C29.9281 89.1518 30.1273 88.9169 30.2867 88.6737C30.4461 88.4304 30.5258 88.1913 30.5258 87.9565C30.5258 87.7426 30.4754 87.5748 30.3748 87.4532C30.2741 87.3316 30.1189 87.2707 29.9092 87.2707C29.6995 87.2707 29.538 87.342 29.4248 87.4846C29.3116 87.6231 29.2528 87.8139 29.2487 88.0571H28.3931C28.4098 87.5538 28.5587 87.1722 28.8397 86.9122C29.1249 86.6521 29.4856 86.5221 29.9218 86.5221C30.3999 86.5221 30.7669 86.65 31.0227 86.9059C31.2786 87.1575 31.4065 87.4909 31.4065 87.9062C31.4065 88.2333 31.3184 88.5457 31.1423 88.8435C30.9661 89.1413 30.7648 89.4013 30.5383 89.6236C30.3119 89.8417 30.0162 90.1059 29.6513 90.4163H31.5072V91.1461H28.3994V90.4918L28.7265 90.215ZM36.9504 86.8178V91.209H36.0696V88.3528L34.8932 91.209H34.2263L33.0436 88.3528V91.209H32.1628V86.8178H33.1631L34.5597 90.0829L35.9564 86.8178H36.9504Z" fill="#76767F"/>
<path d="M27.5671 116.524C27.5671 116.742 27.5104 116.948 27.3972 117.141C27.2882 117.33 27.1246 117.487 26.9065 117.613C26.6926 117.734 26.4389 117.806 26.1453 117.827V118.336H25.7426V117.82C25.3232 117.783 24.9856 117.657 24.7298 117.443C24.4739 117.225 24.3418 116.931 24.3334 116.562H25.2771C25.3023 116.864 25.4574 117.046 25.7426 117.109V115.908C25.4407 115.832 25.1974 115.757 25.0129 115.681C24.8283 115.606 24.669 115.484 24.5347 115.316C24.4005 115.149 24.3334 114.92 24.3334 114.631C24.3334 114.266 24.4634 113.968 24.7235 113.737C24.9877 113.507 25.3274 113.375 25.7426 113.341V112.831H26.1453V113.341C26.5479 113.375 26.8687 113.496 27.1078 113.706C27.3511 113.916 27.4874 114.205 27.5167 114.574H26.5668C26.5542 114.452 26.5102 114.348 26.4347 114.26C26.3634 114.167 26.2669 114.102 26.1453 114.064V115.253C26.4598 115.333 26.7073 115.411 26.8876 115.486C27.0722 115.558 27.2315 115.677 27.3657 115.845C27.5 116.008 27.5671 116.235 27.5671 116.524ZM25.2519 114.587C25.2519 114.725 25.2939 114.838 25.3778 114.926C25.4616 115.01 25.5833 115.079 25.7426 115.134V114.046C25.5917 114.067 25.4721 114.123 25.384 114.215C25.296 114.308 25.2519 114.431 25.2519 114.587ZM26.1453 117.122C26.3046 117.093 26.4284 117.028 26.5164 116.927C26.6087 116.826 26.6548 116.705 26.6548 116.562C26.6548 116.424 26.6108 116.313 26.5227 116.229C26.4347 116.145 26.3088 116.076 26.1453 116.021V117.122ZM28.3427 114.014V113.203H29.8589V117.789H28.953V114.014H28.3427ZM35.6172 113.398V117.789H34.7364V114.933L33.56 117.789H32.8931L31.7104 114.933V117.789H30.8296V113.398H31.8299L33.2266 116.663L34.6232 113.398H35.6172Z" fill="#76767F"/>
<path d="M27.5671 143.104C27.5671 143.322 27.5104 143.528 27.3972 143.721C27.2882 143.91 27.1246 144.067 26.9065 144.193C26.6926 144.314 26.4389 144.386 26.1453 144.407V144.916H25.7426V144.4C25.3232 144.363 24.9856 144.237 24.7298 144.023C24.4739 143.805 24.3418 143.511 24.3334 143.142H25.2771C25.3023 143.444 25.4574 143.627 25.7426 143.689V142.488C25.4407 142.412 25.1974 142.337 25.0129 142.261C24.8283 142.186 24.669 142.064 24.5347 141.896C24.4005 141.729 24.3334 141.5 24.3334 141.211C24.3334 140.846 24.4634 140.548 24.7235 140.317C24.9877 140.087 25.3274 139.955 25.7426 139.921V139.411H26.1453V139.921C26.5479 139.955 26.8687 140.076 27.1078 140.286C27.3511 140.496 27.4874 140.785 27.5167 141.154H26.5668C26.5542 141.033 26.5102 140.928 26.4347 140.84C26.3634 140.747 26.2669 140.682 26.1453 140.645V141.834C26.4598 141.913 26.7073 141.991 26.8876 142.066C27.0722 142.138 27.2315 142.257 27.3657 142.425C27.5 142.589 27.5671 142.815 27.5671 143.104ZM25.2519 141.167C25.2519 141.305 25.2939 141.418 25.3778 141.506C25.4616 141.59 25.5833 141.66 25.7426 141.714V140.626C25.5917 140.647 25.4721 140.703 25.384 140.796C25.296 140.888 25.2519 141.012 25.2519 141.167ZM26.1453 143.702C26.3046 143.673 26.4284 143.608 26.5164 143.507C26.6087 143.406 26.6548 143.285 26.6548 143.142C26.6548 143.004 26.6108 142.893 26.5227 142.809C26.4347 142.725 26.3088 142.656 26.1453 142.601V143.702ZM28.4497 142.016C28.4497 141.29 28.5797 140.722 28.8397 140.311C29.104 139.9 29.5401 139.695 30.1483 139.695C30.7564 139.695 31.1905 139.9 31.4505 140.311C31.7148 140.722 31.8469 141.29 31.8469 142.016C31.8469 142.746 31.7148 143.318 31.4505 143.733C31.1905 144.149 30.7564 144.356 30.1483 144.356C29.5401 144.356 29.104 144.149 28.8397 143.733C28.5797 143.318 28.4497 142.746 28.4497 142.016ZM30.9787 142.016C30.9787 141.706 30.9577 141.446 30.9158 141.236C30.8781 141.022 30.7984 140.848 30.6767 140.714C30.5593 140.58 30.3832 140.512 30.1483 140.512C29.9134 140.512 29.7352 140.58 29.6135 140.714C29.4961 140.848 29.4164 141.022 29.3745 141.236C29.3367 141.446 29.3179 141.706 29.3179 142.016C29.3179 142.335 29.3367 142.603 29.3745 142.821C29.4122 143.035 29.4919 143.209 29.6135 143.343C29.7352 143.473 29.9134 143.538 30.1483 143.538C30.3832 143.538 30.5614 143.473 30.683 143.343C30.8047 143.209 30.8843 143.035 30.9221 142.821C30.9598 142.603 30.9787 142.335 30.9787 142.016Z" fill="#76767F"/>
<rect x="55.8374" y="97.8645" width="6" height="48.5044" rx="3" fill="#4C57FF"/>
<rect x="68.8374" y="77.8689" width="6" height="68.5" rx="3" fill="white" fill-opacity="0.55"/>
<rect x="88.8374" y="110.869" width="6" height="35.5" rx="3" fill="#4C57FF"/>
<rect x="101.837" y="117.869" width="6" height="28.5" rx="3" fill="white" fill-opacity="0.55"/>
<rect x="121.837" y="88.8689" width="6" height="57.5" rx="3" fill="#4C57FF"/>
<rect x="134.837" y="107.869" width="6" height="38.5" rx="3" fill="white" fill-opacity="0.55"/>
<rect x="154.837" y="97.8645" width="6" height="48.5044" rx="3" fill="#4C57FF"/>
<rect x="167.837" y="97.8645" width="6" height="48.5044" rx="3" fill="white" fill-opacity="0.55"/>
<rect x="187.837" y="107.869" width="6" height="38.5" rx="3" fill="#4C57FF"/>
<rect x="200.837" y="87.8689" width="6" height="58.5" rx="3" fill="white" fill-opacity="0.55"/>
</g>
<defs>
<filter id="filter0_b_1_612" x="-28.7878" y="-28.1589" width="288.413" height="223.316" filterUnits="userSpaceOnUse" color-interpolation-filters="sRGB">
<feFlood flood-opacity="0" result="BackgroundImageFix"/>
<feGaussianBlur in="BackgroundImageFix" stdDeviation="14.3939"/>
<feComposite in2="SourceAlpha" operator="in" result="effect1_backgroundBlur_1_612"/>
<feBlend mode="normal" in="SourceGraphic" in2="effect1_backgroundBlur_1_612" result="shape"/>
</filter>
</defs>
</svg>
