<svg width="303" height="97" viewBox="0 0 303 97" fill="none" xmlns="http://www.w3.org/2000/svg">
<g filter="url(#filter0_b_1_585)">
<rect x="0.591797" y="52.4326" width="229.016" height="44.5676" rx="20.973" fill="#DEDEDE" fill-opacity="0.5"/>
<path d="M20.432 69.2527V77.3535C20.432 78.2553 20.1541 78.9789 19.5984 79.5242C19.0426 80.059 18.3085 80.3264 17.3962 80.3264C16.4734 80.3264 15.7341 80.0538 15.1783 79.5085C14.6225 78.9527 14.3446 78.1977 14.3446 77.2434H15.776C15.7865 77.7782 15.9228 78.2134 16.185 78.549C16.4577 78.8845 16.8614 79.0523 17.3962 79.0523C17.931 79.0523 18.3295 78.895 18.5917 78.5804C18.8538 78.2553 18.9849 77.8464 18.9849 77.3535V69.2527H20.432ZM30.8966 71.5964V80.2163H29.4652V78.9422C29.1925 79.3826 28.8098 79.7287 28.3169 79.9804C27.8345 80.2216 27.2997 80.3421 26.7125 80.3421C26.0414 80.3421 25.4384 80.2058 24.9036 79.9332C24.3688 79.65 23.9441 79.2306 23.6295 78.6748C23.3254 78.119 23.1733 77.4426 23.1733 76.6457V71.5964H24.589V76.4569C24.589 77.3063 24.804 77.9617 25.2339 78.4231C25.6638 78.874 26.2511 79.0995 26.9956 79.0995C27.7611 79.0995 28.3641 78.8636 28.8045 78.3917C29.245 77.9198 29.4652 77.2329 29.4652 76.3311V71.5964H30.8966ZM34.7449 68.5763V80.2163H33.3134V68.5763H34.7449ZM44.6089 71.5964L39.4181 84.2746H37.9395L39.6383 80.1219L36.162 71.5964H37.7507L40.4562 78.5804L43.1303 71.5964H44.6089Z" fill="white"/>
<path d="M64.7782 75.111V71.5505H61.2178" stroke="#7279EA" stroke-width="1.31081" stroke-linecap="round" stroke-linejoin="round"/>
<path d="M64.7789 71.5505L58.4478 77.8818" stroke="#7279EA" stroke-width="1.31081" stroke-linecap="round" stroke-linejoin="round"/>
<path d="M80.5733 77.2119C80.5733 77.7153 80.4474 78.1977 80.1957 78.6591C79.9441 79.11 79.5718 79.4875 79.0789 79.7916C78.5966 80.0957 78.0146 80.2687 77.3329 80.3107V81.5848H76.4835V80.3107C75.5293 80.2268 74.7533 79.9227 74.1555 79.3984C73.5578 78.8636 73.2537 78.1872 73.2432 77.3692H74.769C74.8109 77.8097 74.9735 78.1924 75.2566 78.5175C75.5502 78.8426 75.9592 79.0471 76.4835 79.131V75.1985C75.7809 75.0203 75.2147 74.8367 74.7847 74.648C74.3548 74.4592 73.9877 74.1656 73.6836 73.7671C73.3795 73.3686 73.2275 72.8338 73.2275 72.1627C73.2275 71.3133 73.5211 70.6107 74.1083 70.0549C74.7061 69.4991 75.4978 69.1898 76.4835 69.1268V67.8213H77.3329V69.1268C78.2243 69.2003 78.9426 69.4886 79.4879 69.992C80.0332 70.4848 80.3478 71.1298 80.4317 71.9267H78.9059C78.8535 71.5597 78.6909 71.2294 78.4183 70.9358C78.1456 70.6317 77.7839 70.4324 77.3329 70.338V74.1761C78.025 74.3544 78.5861 74.5379 79.016 74.7266C79.4564 74.9049 79.8235 75.1933 80.1171 75.5918C80.4212 75.9903 80.5733 76.5303 80.5733 77.2119ZM74.6903 72.084C74.6903 72.5979 74.8424 72.9911 75.1465 73.2638C75.4506 73.5364 75.8963 73.7619 76.4835 73.9401V70.3066C75.9382 70.359 75.503 70.5373 75.178 70.8414C74.8529 71.135 74.6903 71.5492 74.6903 72.084ZM77.3329 79.1467C77.8992 79.0838 78.3396 78.8793 78.6542 78.5332C78.9793 78.1872 79.1419 77.773 79.1419 77.2906C79.1419 76.7767 78.9846 76.3835 78.67 76.1108C78.3554 75.8277 77.9097 75.6023 77.3329 75.4345V79.1467ZM82.8709 79.068C84.2027 77.9984 85.2461 77.1228 86.0011 76.4412C86.7561 75.7491 87.3906 75.0307 87.9044 74.2862C88.4287 73.5312 88.6909 72.7919 88.6909 72.0683C88.6909 71.3867 88.5231 70.8519 88.1876 70.4639C87.8625 70.0654 87.3329 69.8661 86.5989 69.8661C85.8858 69.8661 85.33 70.0916 84.9315 70.5425C84.5435 70.983 84.3338 71.5754 84.3023 72.32H82.9181C82.96 71.1455 83.3166 70.2384 83.9877 69.5987C84.6589 68.9591 85.524 68.6392 86.5831 68.6392C87.6632 68.6392 88.5179 68.9381 89.1471 69.5358C89.7867 70.1336 90.1066 70.9567 90.1066 72.0054C90.1066 72.8758 89.8444 73.7252 89.3201 74.5536C88.8063 75.3716 88.219 76.0951 87.5584 76.7243C86.8977 77.343 86.0536 78.0666 85.0259 78.895H90.4369V80.0905H82.8709V79.068ZM92.0916 74.412C92.0916 72.6084 92.3852 71.2032 92.9725 70.1965C93.5597 69.1793 94.5874 68.6707 96.0555 68.6707C97.5131 68.6707 98.5355 69.1793 99.1228 70.1965C99.71 71.2032 100.004 72.6084 100.004 74.412C100.004 76.2472 99.71 77.6733 99.1228 78.6905C98.5355 79.7077 97.5131 80.2163 96.0555 80.2163C94.5874 80.2163 93.5597 79.7077 92.9725 78.6905C92.3852 77.6733 92.0916 76.2472 92.0916 74.412ZM98.588 74.412C98.588 73.4997 98.5251 72.729 98.3992 72.0998C98.2839 71.4601 98.0374 70.9463 97.6599 70.5583C97.2929 70.1703 96.7581 69.9763 96.0555 69.9763C95.3424 69.9763 94.7971 70.1703 94.4196 70.5583C94.0526 70.9463 93.8061 71.4601 93.6803 72.0998C93.565 72.729 93.5073 73.4997 93.5073 74.412C93.5073 75.3558 93.565 76.1476 93.6803 76.7872C93.8061 77.4269 94.0526 77.9407 94.4196 78.3287C94.7971 78.7167 95.3424 78.9107 96.0555 78.9107C96.7581 78.9107 97.2929 78.7167 97.6599 78.3287C98.0374 77.9407 98.2839 77.4269 98.3992 76.7872C98.5251 76.1476 98.588 75.3558 98.588 74.412ZM103.809 77.1647C103.914 77.7625 104.155 78.2239 104.533 78.549C104.921 78.874 105.44 79.0366 106.09 79.0366C106.96 79.0366 107.6 78.6958 108.009 78.0141C108.428 77.3325 108.628 76.1843 108.607 74.5693C108.386 75.0412 108.019 75.4135 107.506 75.6861C106.992 75.9483 106.42 76.0794 105.791 76.0794C105.088 76.0794 104.459 75.9378 103.904 75.6547C103.358 75.3611 102.928 74.9364 102.614 74.3806C102.299 73.8248 102.142 73.1537 102.142 72.3672C102.142 71.2451 102.467 70.3433 103.117 69.6617C103.767 68.9696 104.69 68.6235 105.885 68.6235C107.354 68.6235 108.381 69.1006 108.968 70.0549C109.566 71.0092 109.865 72.4301 109.865 74.3177C109.865 75.639 109.744 76.7296 109.503 77.5894C109.273 78.4493 108.874 79.1047 108.308 79.5557C107.752 80.0066 106.987 80.232 106.011 80.232C104.942 80.232 104.108 79.9437 103.51 79.3669C102.913 78.7901 102.572 78.0561 102.488 77.1647H103.809ZM106.027 74.8682C106.73 74.8682 107.306 74.6532 107.757 74.2233C108.208 73.7828 108.434 73.1904 108.434 72.4458C108.434 71.6593 108.213 71.0249 107.773 70.5425C107.333 70.0601 106.714 69.819 105.917 69.819C105.183 69.819 104.596 70.0497 104.155 70.5111C103.725 70.9725 103.51 71.5807 103.51 72.3357C103.51 73.1012 103.725 73.7147 104.155 74.1761C104.585 74.6375 105.209 74.8682 106.027 74.8682ZM113.591 78.2344L111.829 82.4657H110.87L112.018 78.2344H113.591ZM114.995 74.412C114.995 72.6084 115.289 71.2032 115.876 70.1965C116.463 69.1793 117.491 68.6707 118.959 68.6707C120.416 68.6707 121.439 69.1793 122.026 70.1965C122.613 71.2032 122.907 72.6084 122.907 74.412C122.907 76.2472 122.613 77.6733 122.026 78.6905C121.439 79.7077 120.416 80.2163 118.959 80.2163C117.491 80.2163 116.463 79.7077 115.876 78.6905C115.289 77.6733 114.995 76.2472 114.995 74.412ZM121.491 74.412C121.491 73.4997 121.428 72.729 121.303 72.0998C121.187 71.4601 120.941 70.9463 120.563 70.5583C120.196 70.1703 119.661 69.9763 118.959 69.9763C118.246 69.9763 117.7 70.1703 117.323 70.5583C116.956 70.9463 116.709 71.4601 116.584 72.0998C116.468 72.729 116.411 73.4997 116.411 74.412C116.411 75.3558 116.468 76.1476 116.584 76.7872C116.709 77.4269 116.956 77.9407 117.323 78.3287C117.7 78.7167 118.246 78.9107 118.959 78.9107C119.661 78.9107 120.196 78.7167 120.563 78.3287C120.941 77.9407 121.187 77.4269 121.303 76.7872C121.428 76.1476 121.491 75.3558 121.491 74.412ZM124.872 74.412C124.872 72.6084 125.166 71.2032 125.753 70.1965C126.34 69.1793 127.368 68.6707 128.836 68.6707C130.294 68.6707 131.316 69.1793 131.903 70.1965C132.491 71.2032 132.784 72.6084 132.784 74.412C132.784 76.2472 132.491 77.6733 131.903 78.6905C131.316 79.7077 130.294 80.2163 128.836 80.2163C127.368 80.2163 126.34 79.7077 125.753 78.6905C125.166 77.6733 124.872 76.2472 124.872 74.412ZM131.368 74.412C131.368 73.4997 131.306 72.729 131.18 72.0998C131.064 71.4601 130.818 70.9463 130.44 70.5583C130.073 70.1703 129.539 69.9763 128.836 69.9763C128.123 69.9763 127.578 70.1703 127.2 70.5583C126.833 70.9463 126.587 71.4601 126.461 72.0998C126.345 72.729 126.288 73.4997 126.288 74.412C126.288 75.3558 126.345 76.1476 126.461 76.7872C126.587 77.4269 126.833 77.9407 127.2 78.3287C127.578 78.7167 128.123 78.9107 128.836 78.9107C129.539 78.9107 130.073 78.7167 130.44 78.3287C130.818 77.9407 131.064 77.4269 131.18 76.7872C131.306 76.1476 131.368 75.3558 131.368 74.412ZM134.749 74.412C134.749 72.6084 135.043 71.2032 135.63 70.1965C136.217 69.1793 137.245 68.6707 138.713 68.6707C140.171 68.6707 141.193 69.1793 141.78 70.1965C142.368 71.2032 142.661 72.6084 142.661 74.412C142.661 76.2472 142.368 77.6733 141.78 78.6905C141.193 79.7077 140.171 80.2163 138.713 80.2163C137.245 80.2163 136.217 79.7077 135.63 78.6905C135.043 77.6733 134.749 76.2472 134.749 74.412ZM141.246 74.412C141.246 73.4997 141.183 72.729 141.057 72.0998C140.942 71.4601 140.695 70.9463 140.318 70.5583C139.951 70.1703 139.416 69.9763 138.713 69.9763C138 69.9763 137.455 70.1703 137.077 70.5583C136.71 70.9463 136.464 71.4601 136.338 72.0998C136.223 72.729 136.165 73.4997 136.165 74.412C136.165 75.3558 136.223 76.1476 136.338 76.7872C136.464 77.4269 136.71 77.9407 137.077 78.3287C137.455 78.7167 138 78.9107 138.713 78.9107C139.416 78.9107 139.951 78.7167 140.318 78.3287C140.695 77.9407 140.942 77.4269 141.057 76.7872C141.183 76.1476 141.246 75.3558 141.246 74.412Z" fill="white"/>
<rect x="154.77" y="65.2163" width="61.7297" height="19" rx="9.5" fill="white" fill-opacity="0.48"/>
<path d="M165.76 78.2897C165.277 78.2897 164.844 78.2058 164.459 78.038C164.082 77.8633 163.785 77.6256 163.568 77.325C163.351 77.0174 163.239 76.6643 163.232 76.2658H164.25C164.285 76.6084 164.424 76.8985 164.669 77.1362C164.921 77.3669 165.284 77.4823 165.76 77.4823C166.214 77.4823 166.571 77.3704 166.829 77.1467C167.095 76.916 167.228 76.6224 167.228 76.2658C167.228 75.9862 167.151 75.759 166.997 75.5842C166.843 75.4094 166.651 75.2766 166.42 75.1857C166.19 75.0948 165.879 74.997 165.487 74.8921C165.005 74.7663 164.617 74.6404 164.323 74.5146C164.036 74.3887 163.788 74.193 163.579 73.9273C163.376 73.6547 163.274 73.2912 163.274 72.8367C163.274 72.4383 163.376 72.0852 163.579 71.7776C163.781 71.47 164.064 71.2323 164.428 71.0645C164.798 70.8967 165.221 70.8128 165.697 70.8128C166.382 70.8128 166.941 70.9841 167.375 71.3267C167.815 71.6692 168.063 72.1237 168.119 72.6899H167.071C167.036 72.4103 166.889 72.1656 166.63 71.9559C166.371 71.7392 166.029 71.6308 165.602 71.6308C165.204 71.6308 164.879 71.7357 164.627 71.9454C164.376 72.1481 164.25 72.4348 164.25 72.8053C164.25 73.0709 164.323 73.2877 164.47 73.4554C164.624 73.6232 164.809 73.7526 165.026 73.8434C165.249 73.9273 165.56 74.0252 165.959 74.1371C166.441 74.2699 166.829 74.4027 167.123 74.5356C167.417 74.6614 167.668 74.8606 167.878 75.1333C168.088 75.3989 168.193 75.7625 168.193 76.2239C168.193 76.5804 168.098 76.916 167.909 77.2306C167.721 77.5452 167.441 77.8003 167.071 77.9961C166.7 78.1918 166.263 78.2897 165.76 78.2897ZM172.449 72.3648C172.883 72.3648 173.274 72.4592 173.624 72.648C173.973 72.8298 174.246 73.1059 174.442 73.4764C174.644 73.8469 174.746 74.2979 174.746 74.8292V78.2163H173.802V74.9655C173.802 74.3922 173.659 73.9553 173.372 73.6547C173.085 73.3471 172.694 73.1933 172.198 73.1933C171.694 73.1933 171.292 73.3506 170.992 73.6652C170.698 73.9798 170.551 74.4377 170.551 75.0389V78.2163H169.597V70.4563H170.551V73.2877C170.74 72.994 170.999 72.7668 171.327 72.606C171.663 72.4452 172.037 72.3648 172.449 72.3648ZM176.797 71.5364C176.616 71.5364 176.462 71.4735 176.336 71.3477C176.21 71.2218 176.147 71.068 176.147 70.8863C176.147 70.7045 176.21 70.5507 176.336 70.4248C176.462 70.299 176.616 70.2361 176.797 70.2361C176.972 70.2361 177.119 70.299 177.238 70.4248C177.364 70.5507 177.427 70.7045 177.427 70.8863C177.427 71.068 177.364 71.2218 177.238 71.3477C177.119 71.4735 176.972 71.5364 176.797 71.5364ZM177.259 72.4697V78.2163H176.305V72.4697H177.259ZM179.839 73.5288C180.028 73.2003 180.308 72.9276 180.678 72.7109C181.056 72.4872 181.493 72.3753 181.989 72.3753C182.5 72.3753 182.961 72.4977 183.373 72.7424C183.793 72.987 184.121 73.3331 184.359 73.7805C184.597 74.221 184.716 74.7348 184.716 75.322C184.716 75.9023 184.597 76.4196 184.359 76.874C184.121 77.3285 183.793 77.6815 183.373 77.9332C182.961 78.1848 182.5 78.3107 181.989 78.3107C181.5 78.3107 181.066 78.2023 180.689 77.9856C180.318 77.7619 180.035 77.4858 179.839 77.1572V80.9428H178.885V72.4697H179.839V73.5288ZM183.74 75.322C183.74 74.8886 183.653 74.5111 183.478 74.1895C183.304 73.8679 183.066 73.6232 182.765 73.4554C182.472 73.2877 182.147 73.2038 181.79 73.2038C181.44 73.2038 181.115 73.2912 180.815 73.4659C180.521 73.6337 180.283 73.8819 180.102 74.2105C179.927 74.5321 179.839 74.9061 179.839 75.3325C179.839 75.766 179.927 76.147 180.102 76.4756C180.283 76.7971 180.521 77.0453 180.815 77.2201C181.115 77.3879 181.44 77.4718 181.79 77.4718C182.147 77.4718 182.472 77.3879 182.765 77.2201C183.066 77.0453 183.304 76.7971 183.478 76.4756C183.653 76.147 183.74 75.7625 183.74 75.322ZM186.926 73.5288C187.115 73.2003 187.394 72.9276 187.765 72.7109C188.142 72.4872 188.579 72.3753 189.076 72.3753C189.586 72.3753 190.048 72.4977 190.46 72.7424C190.879 72.987 191.208 73.3331 191.446 73.7805C191.683 74.221 191.802 74.7348 191.802 75.322C191.802 75.9023 191.683 76.4196 191.446 76.874C191.208 77.3285 190.879 77.6815 190.46 77.9332C190.048 78.1848 189.586 78.3107 189.076 78.3107C188.586 78.3107 188.153 78.2023 187.775 77.9856C187.405 77.7619 187.122 77.4858 186.926 77.1572V80.9428H185.972V72.4697H186.926V73.5288ZM190.827 75.322C190.827 74.8886 190.74 74.5111 190.565 74.1895C190.39 73.8679 190.152 73.6232 189.852 73.4554C189.558 73.2877 189.233 73.2038 188.877 73.2038C188.527 73.2038 188.202 73.2912 187.901 73.4659C187.608 73.6337 187.37 73.8819 187.188 74.2105C187.013 74.5321 186.926 74.9061 186.926 75.3325C186.926 75.766 187.013 76.147 187.188 76.4756C187.37 76.7971 187.608 77.0453 187.901 77.2201C188.202 77.3879 188.527 77.4718 188.877 77.4718C189.233 77.4718 189.558 77.3879 189.852 77.2201C190.152 77.0453 190.39 76.7971 190.565 76.4756C190.74 76.147 190.827 75.7625 190.827 75.322ZM193.551 71.5364C193.369 71.5364 193.216 71.4735 193.09 71.3477C192.964 71.2218 192.901 71.068 192.901 70.8863C192.901 70.7045 192.964 70.5507 193.09 70.4248C193.216 70.299 193.369 70.2361 193.551 70.2361C193.726 70.2361 193.873 70.299 193.992 70.4248C194.117 70.5507 194.18 70.7045 194.18 70.8863C194.18 71.068 194.117 71.2218 193.992 71.3477C193.873 71.4735 193.726 71.5364 193.551 71.5364ZM194.013 72.4697V78.2163H193.058V72.4697H194.013ZM198.439 72.3648C199.138 72.3648 199.704 72.5781 200.138 73.0045C200.571 73.424 200.788 74.0322 200.788 74.8292V78.2163H199.844V74.9655C199.844 74.3922 199.701 73.9553 199.414 73.6547C199.128 73.3471 198.736 73.1933 198.24 73.1933C197.736 73.1933 197.334 73.3506 197.034 73.6652C196.74 73.9798 196.593 74.4377 196.593 75.0389V78.2163H195.639V72.4697H196.593V73.2877C196.782 72.994 197.037 72.7668 197.359 72.606C197.687 72.4452 198.047 72.3648 198.439 72.3648ZM204.717 72.3753C205.213 72.3753 205.646 72.4837 206.017 72.7004C206.394 72.9171 206.674 73.1898 206.856 73.5184V72.4697H207.821V78.3421C207.821 78.8665 207.709 79.3314 207.485 79.7368C207.261 80.1493 206.94 80.4709 206.52 80.7016C206.108 80.9323 205.625 81.0477 205.073 81.0477C204.318 81.0477 203.689 80.8694 203.186 80.5128C202.682 80.1563 202.385 79.6704 202.294 79.0552H203.238C203.343 79.4048 203.56 79.6844 203.888 79.8941C204.217 80.1109 204.612 80.2192 205.073 80.2192C205.597 80.2192 206.024 80.0549 206.353 79.7264C206.688 79.3978 206.856 78.9364 206.856 78.3421V77.1362C206.667 77.4718 206.387 77.7514 206.017 77.9751C205.646 78.1988 205.213 78.3107 204.717 78.3107C204.206 78.3107 203.741 78.1848 203.322 77.9332C202.909 77.6815 202.584 77.3285 202.347 76.874C202.109 76.4196 201.99 75.9023 201.99 75.322C201.99 74.7348 202.109 74.221 202.347 73.7805C202.584 73.3331 202.909 72.987 203.322 72.7424C203.741 72.4977 204.206 72.3753 204.717 72.3753ZM206.856 75.3325C206.856 74.8991 206.768 74.5216 206.594 74.2C206.419 73.8784 206.181 73.6337 205.881 73.4659C205.587 73.2912 205.262 73.2038 204.905 73.2038C204.549 73.2038 204.224 73.2877 203.93 73.4554C203.637 73.6232 203.402 73.8679 203.228 74.1895C203.053 74.5111 202.965 74.8886 202.965 75.322C202.965 75.7625 203.053 76.147 203.228 76.4756C203.402 76.7971 203.637 77.0453 203.93 77.2201C204.224 77.3879 204.549 77.4718 204.905 77.4718C205.262 77.4718 205.587 77.3879 205.881 77.2201C206.181 77.0453 206.419 76.7971 206.594 76.4756C206.768 76.147 206.856 75.766 206.856 75.3325Z" fill="#333645"/>
</g>
<g filter="url(#filter1_b_1_585)">
<rect x="35.9839" width="267.016" height="44.5676" rx="20.973" fill="#DEDEDE" fill-opacity="0.5"/>
<path d="M55.8241 16.8201V24.9209C55.8241 25.8227 55.5462 26.5463 54.9904 27.0916C54.4347 27.6264 53.7006 27.8938 52.7883 27.8938C51.8655 27.8938 51.1262 27.6212 50.5704 27.0759C50.0146 26.5201 49.7367 25.765 49.7367 24.8108H51.1681C51.1786 25.3456 51.3149 25.7808 51.5771 26.1163C51.8497 26.4519 52.2535 26.6197 52.7883 26.6197C53.3231 26.6197 53.7216 26.4624 53.9837 26.1478C54.2459 25.8227 54.377 25.4137 54.377 24.9209V16.8201H55.8241ZM66.2887 19.1638V27.7837H64.8573V26.5096C64.5846 26.95 64.2019 27.2961 63.709 27.5477C63.2266 27.7889 62.6918 27.9095 62.1046 27.9095C61.4334 27.9095 60.8305 27.7732 60.2957 27.5006C59.7609 27.2174 59.3362 26.798 59.0216 26.2422C58.7174 25.6864 58.5654 25.01 58.5654 24.213V19.1638H59.9811V24.0243C59.9811 24.8737 60.196 25.5291 60.626 25.9905C61.0559 26.4414 61.6432 26.6669 62.3877 26.6669C63.1532 26.6669 63.7562 26.4309 64.1966 25.959C64.6371 25.4872 64.8573 24.8003 64.8573 23.8984V19.1638H66.2887ZM72.9054 19.0065C73.954 19.0065 74.8034 19.3263 75.4536 19.966C76.1038 20.5952 76.4288 21.5075 76.4288 22.703V27.7837H75.0132V22.9075C75.0132 22.0476 74.7982 21.3922 74.3682 20.9413C73.9383 20.4799 73.3511 20.2492 72.6065 20.2492C71.8515 20.2492 71.2485 20.4851 70.7976 20.957C70.3572 21.4289 70.1369 22.1157 70.1369 23.0176V27.7837H68.7055V19.1638H70.1369V20.3907C70.4201 19.9503 70.8028 19.6095 71.2852 19.3683C71.7781 19.1271 72.3181 19.0065 72.9054 19.0065ZM86.6319 23.1434C86.6319 23.4161 86.6162 23.7044 86.5847 24.0086H79.6951C79.7475 24.858 80.0359 25.5239 80.5602 26.0062C81.095 26.4781 81.74 26.7141 82.495 26.7141C83.1137 26.7141 83.6275 26.5725 84.0365 26.2894C84.456 25.9957 84.7496 25.6077 84.9174 25.1254H86.4589C86.2282 25.9538 85.7668 26.6302 85.0747 27.1545C84.3826 27.6683 83.5227 27.9253 82.495 27.9253C81.677 27.9253 80.943 27.7417 80.2928 27.3747C79.6531 27.0077 79.1498 26.4886 78.7828 25.8175C78.4157 25.1359 78.2322 24.3494 78.2322 23.458C78.2322 22.5667 78.4105 21.7854 78.767 21.1143C79.1236 20.4432 79.6217 19.9293 80.2614 19.5728C80.9115 19.2057 81.6561 19.0222 82.495 19.0222C83.3129 19.0222 84.0365 19.2005 84.6657 19.557C85.2949 19.9136 85.7773 20.4064 86.1128 21.0356C86.4589 21.6543 86.6319 22.3569 86.6319 23.1434ZM85.1533 22.8446C85.1533 22.2993 85.0327 21.8326 84.7915 21.4446C84.5503 21.0461 84.22 20.7473 83.8006 20.548C83.3916 20.3383 82.9354 20.2334 82.4321 20.2334C81.7085 20.2334 81.0898 20.4641 80.576 20.9255C80.0726 21.3869 79.7842 22.0266 79.7108 22.8446H85.1533Z" fill="white"/>
<path d="M107.17 22.6784V19.1179H103.61" stroke="#7279EA" stroke-width="1.31081" stroke-linecap="round" stroke-linejoin="round"/>
<path d="M107.171 19.1179L100.84 25.4492" stroke="#7279EA" stroke-width="1.31081" stroke-linecap="round" stroke-linejoin="round"/>
<path d="M122.965 24.7793C122.965 25.2827 122.84 25.765 122.588 26.2264C122.336 26.6774 121.964 27.0549 121.471 27.359C120.989 27.6631 120.407 27.8361 119.725 27.8781V29.1522H118.876V27.8781C117.921 27.7942 117.145 27.4901 116.548 26.9657C115.95 26.4309 115.646 25.7546 115.635 24.9366H117.161C117.203 25.377 117.366 25.7598 117.649 26.0849C117.942 26.41 118.351 26.6144 118.876 26.6983V22.7659C118.173 22.5876 117.607 22.4041 117.177 22.2154C116.747 22.0266 116.38 21.733 116.076 21.3345C115.772 20.936 115.62 20.4012 115.62 19.7301C115.62 18.8807 115.913 18.1781 116.5 17.6223C117.098 17.0665 117.89 16.7572 118.876 16.6942V15.3887H119.725V16.6942C120.616 16.7676 121.335 17.056 121.88 17.5594C122.425 18.0522 122.74 18.6972 122.824 19.4941H121.298C121.246 19.1271 121.083 18.7968 120.81 18.5032C120.538 18.199 120.176 17.9998 119.725 17.9054V21.7435C120.417 21.9217 120.978 22.1053 121.408 22.294C121.849 22.4723 122.216 22.7607 122.509 23.1592C122.813 23.5576 122.965 24.0977 122.965 24.7793ZM117.082 19.6514C117.082 20.1653 117.234 20.5585 117.539 20.8312C117.843 21.1038 118.288 21.3293 118.876 21.5075V17.874C118.33 17.9264 117.895 18.1047 117.57 18.4088C117.245 18.7024 117.082 19.1166 117.082 19.6514ZM119.725 26.7141C120.291 26.6512 120.732 26.4467 121.046 26.1006C121.371 25.7546 121.534 25.3403 121.534 24.858C121.534 24.3441 121.377 23.9509 121.062 23.6782C120.747 23.3951 120.302 23.1696 119.725 23.0019V26.7141ZM125.405 19.2739C125.478 18.3092 125.85 17.5541 126.521 17.0088C127.193 16.4635 128.063 16.1909 129.133 16.1909C129.846 16.1909 130.459 16.322 130.973 16.5841C131.497 16.8358 131.89 17.1819 132.153 17.6223C132.425 18.0627 132.562 18.5608 132.562 19.1166C132.562 19.7668 132.373 20.3278 131.995 20.7997C131.628 21.2716 131.146 21.5757 130.548 21.712V21.7907C131.23 21.9584 131.77 22.2888 132.168 22.7816C132.567 23.2745 132.766 23.9194 132.766 24.7164C132.766 25.3141 132.63 25.8542 132.357 26.3366C132.084 26.8084 131.675 27.1807 131.13 27.4534C130.585 27.726 129.929 27.8623 129.164 27.8623C128.052 27.8623 127.14 27.574 126.427 26.9972C125.714 26.41 125.315 25.5815 125.232 24.5119H126.616C126.689 25.1411 126.946 25.6549 127.387 26.0534C127.827 26.4519 128.414 26.6512 129.148 26.6512C129.882 26.6512 130.438 26.4624 130.816 26.0849C131.204 25.6969 131.398 25.1988 131.398 24.5906C131.398 23.8041 131.135 23.2378 130.611 22.8917C130.087 22.5457 129.295 22.3727 128.236 22.3727H127.874V21.1772H128.252C129.216 21.1667 129.945 21.0094 130.438 20.7053C130.931 20.3907 131.177 19.9083 131.177 19.2582C131.177 18.7024 130.994 18.2567 130.627 17.9212C130.27 17.5856 129.756 17.4178 129.085 17.4178C128.435 17.4178 127.911 17.5856 127.512 17.9212C127.114 18.2567 126.878 18.7076 126.805 19.2739H125.405ZM134.699 21.9794C134.699 20.1757 134.992 18.7706 135.58 17.7639C136.167 16.7467 137.195 16.2381 138.663 16.2381C140.12 16.2381 141.143 16.7467 141.73 17.7639C142.317 18.7706 142.611 20.1757 142.611 21.9794C142.611 23.8146 142.317 25.2407 141.73 26.2579C141.143 27.2751 140.12 27.7837 138.663 27.7837C137.195 27.7837 136.167 27.2751 135.58 26.2579C134.992 25.2407 134.699 23.8146 134.699 21.9794ZM141.195 21.9794C141.195 21.0671 141.132 20.2963 141.006 19.6672C140.891 19.0275 140.645 18.5136 140.267 18.1256C139.9 17.7376 139.365 17.5436 138.663 17.5436C137.95 17.5436 137.404 17.7376 137.027 18.1256C136.66 18.5136 136.413 19.0275 136.287 19.6672C136.172 20.2963 136.114 21.0671 136.114 21.9794C136.114 22.9232 136.172 23.7149 136.287 24.3546C136.413 24.9943 136.66 25.5081 137.027 25.8961C137.404 26.2841 137.95 26.4781 138.663 26.4781C139.365 26.4781 139.9 26.2841 140.267 25.8961C140.645 25.5081 140.891 24.9943 141.006 24.3546C141.132 23.7149 141.195 22.9232 141.195 21.9794ZM144.544 19.2739C144.618 18.3092 144.99 17.5541 145.661 17.0088C146.332 16.4635 147.203 16.1909 148.272 16.1909C148.985 16.1909 149.599 16.322 150.113 16.5841C150.637 16.8358 151.03 17.1819 151.293 17.6223C151.565 18.0627 151.701 18.5608 151.701 19.1166C151.701 19.7668 151.513 20.3278 151.135 20.7997C150.768 21.2716 150.286 21.5757 149.688 21.712V21.7907C150.37 21.9584 150.91 22.2888 151.308 22.7816C151.707 23.2745 151.906 23.9194 151.906 24.7164C151.906 25.3141 151.77 25.8542 151.497 26.3366C151.224 26.8084 150.815 27.1807 150.27 27.4534C149.725 27.726 149.069 27.8623 148.304 27.8623C147.192 27.8623 146.28 27.574 145.567 26.9972C144.854 26.41 144.455 25.5815 144.371 24.5119H145.756C145.829 25.1411 146.086 25.6549 146.526 26.0534C146.967 26.4519 147.554 26.6512 148.288 26.6512C149.022 26.6512 149.578 26.4624 149.955 26.0849C150.343 25.6969 150.537 25.1988 150.537 24.5906C150.537 23.8041 150.275 23.2378 149.751 22.8917C149.227 22.5457 148.435 22.3727 147.376 22.3727H147.014V21.1772H147.392C148.356 21.1667 149.085 21.0094 149.578 20.7053C150.071 20.3907 150.317 19.9083 150.317 19.2582C150.317 18.7024 150.134 18.2567 149.767 17.9212C149.41 17.5856 148.896 17.4178 148.225 17.4178C147.575 17.4178 147.051 17.5856 146.652 17.9212C146.254 18.2567 146.018 18.7076 145.944 19.2739H144.544ZM155.553 25.8017L153.791 30.033H152.832L153.98 25.8017H155.553ZM156.957 21.9794C156.957 20.1757 157.251 18.7706 157.838 17.7639C158.425 16.7467 159.453 16.2381 160.921 16.2381C162.378 16.2381 163.401 16.7467 163.988 17.7639C164.575 18.7706 164.869 20.1757 164.869 21.9794C164.869 23.8146 164.575 25.2407 163.988 26.2579C163.401 27.2751 162.378 27.7837 160.921 27.7837C159.453 27.7837 158.425 27.2751 157.838 26.2579C157.251 25.2407 156.957 23.8146 156.957 21.9794ZM163.453 21.9794C163.453 21.0671 163.39 20.2963 163.265 19.6672C163.149 19.0275 162.903 18.5136 162.525 18.1256C162.158 17.7376 161.623 17.5436 160.921 17.5436C160.208 17.5436 159.662 17.7376 159.285 18.1256C158.918 18.5136 158.671 19.0275 158.546 19.6672C158.43 20.2963 158.373 21.0671 158.373 21.9794C158.373 22.9232 158.43 23.7149 158.546 24.3546C158.671 24.9943 158.918 25.5081 159.285 25.8961C159.662 26.2841 160.208 26.4781 160.921 26.4781C161.623 26.4781 162.158 26.2841 162.525 25.8961C162.903 25.5081 163.149 24.9943 163.265 24.3546C163.39 23.7149 163.453 22.9232 163.453 21.9794ZM166.661 26.6354C167.993 25.5658 169.036 24.6902 169.791 24.0086C170.546 23.3164 171.181 22.5981 171.695 21.8536C172.219 21.0986 172.481 20.3593 172.481 19.6357C172.481 18.9541 172.313 18.4193 171.978 18.0313C171.653 17.6328 171.123 17.4335 170.389 17.4335C169.676 17.4335 169.12 17.659 168.722 18.1099C168.334 18.5503 168.124 19.1428 168.092 19.8874H166.708C166.75 18.7129 167.107 17.8058 167.778 17.1661C168.449 16.5264 169.314 16.2066 170.373 16.2066C171.453 16.2066 172.308 16.5055 172.937 17.1032C173.577 17.7009 173.897 18.5241 173.897 19.5728C173.897 20.4432 173.635 21.2926 173.11 22.121C172.596 22.9389 172.009 23.6625 171.349 24.2917C170.688 24.9104 169.844 25.634 168.816 26.4624H174.227V27.6579H166.661V26.6354ZM175.882 21.9794C175.882 20.1757 176.175 18.7706 176.763 17.7639C177.35 16.7467 178.378 16.2381 179.846 16.2381C181.303 16.2381 182.326 16.7467 182.913 17.7639C183.5 18.7706 183.794 20.1757 183.794 21.9794C183.794 23.8146 183.5 25.2407 182.913 26.2579C182.326 27.2751 181.303 27.7837 179.846 27.7837C178.378 27.7837 177.35 27.2751 176.763 26.2579C176.175 25.2407 175.882 23.8146 175.882 21.9794ZM182.378 21.9794C182.378 21.0671 182.315 20.2963 182.189 19.6672C182.074 19.0275 181.828 18.5136 181.45 18.1256C181.083 17.7376 180.548 17.5436 179.846 17.5436C179.133 17.5436 178.587 17.7376 178.21 18.1256C177.843 18.5136 177.596 19.0275 177.47 19.6672C177.355 20.2963 177.297 21.0671 177.297 21.9794C177.297 22.9232 177.355 23.7149 177.47 24.3546C177.596 24.9943 177.843 25.5081 178.21 25.8961C178.587 26.2841 179.133 26.4781 179.846 26.4781C180.548 26.4781 181.083 26.2841 181.45 25.8961C181.828 25.5081 182.074 24.9943 182.189 24.3546C182.315 23.7149 182.378 22.9232 182.378 21.9794Z" fill="white"/>
<rect x="196.162" y="12.7837" width="93.7297" height="19" rx="9.5" fill="white" fill-opacity="0.48"/>
<path d="M212.248 18.527V25.7837H211.294V20.3727L208.882 25.7837H208.211L205.789 20.3622V25.7837H204.834V18.527H205.862L208.547 24.5253L211.231 18.527H212.248ZM213.51 22.8894C213.51 22.3022 213.629 21.7883 213.867 21.3479C214.104 20.9005 214.429 20.5544 214.842 20.3097C215.261 20.0651 215.726 19.9427 216.237 19.9427C216.74 19.9427 217.177 20.0511 217.547 20.2678C217.918 20.4845 218.194 20.7572 218.376 21.0857V20.0371H219.341V25.7837H218.376V24.7141C218.187 25.0496 217.904 25.3293 217.526 25.553C217.156 25.7697 216.722 25.8781 216.226 25.8781C215.716 25.8781 215.254 25.7522 214.842 25.5006C214.429 25.2489 214.104 24.8958 213.867 24.4414C213.629 23.987 213.51 23.4697 213.51 22.8894ZM218.376 22.8999C218.376 22.4665 218.288 22.089 218.114 21.7674C217.939 21.4458 217.701 21.2011 217.401 21.0333C217.107 20.8585 216.782 20.7712 216.425 20.7712C216.069 20.7712 215.744 20.855 215.45 21.0228C215.156 21.1906 214.922 21.4353 214.747 21.7569C214.573 22.0785 214.485 22.456 214.485 22.8894C214.485 23.3299 214.573 23.7144 214.747 24.0429C214.922 24.3645 215.156 24.6127 215.45 24.7875C215.744 24.9553 216.069 25.0392 216.425 25.0392C216.782 25.0392 217.107 24.9553 217.401 24.7875C217.701 24.6127 217.939 24.3645 218.114 24.0429C218.288 23.7144 218.376 23.3333 218.376 22.8999ZM223.753 19.9322C224.452 19.9322 225.018 20.1455 225.452 20.5719C225.885 20.9914 226.102 21.5996 226.102 22.3966V25.7837H225.158V22.5329C225.158 21.9596 225.015 21.5227 224.728 21.2221C224.442 20.9145 224.05 20.7607 223.554 20.7607C223.05 20.7607 222.649 20.918 222.348 21.2326C222.054 21.5472 221.907 22.0051 221.907 22.6063V25.7837H220.953V20.0371H221.907V20.855C222.096 20.5614 222.351 20.3342 222.673 20.1734C223.002 20.0126 223.362 19.9322 223.753 19.9322ZM232.757 20.0371V25.7837H231.803V24.9343C231.621 25.2279 231.366 25.4586 231.038 25.6264C230.716 25.7872 230.359 25.8676 229.968 25.8676C229.52 25.8676 229.118 25.7767 228.762 25.5949C228.405 25.4062 228.122 25.1265 227.913 24.756C227.71 24.3855 227.608 23.9346 227.608 23.4033V20.0371H228.552V23.2774C228.552 23.8437 228.696 24.2806 228.982 24.5882C229.269 24.8888 229.66 25.0392 230.157 25.0392C230.667 25.0392 231.069 24.8819 231.363 24.5673C231.656 24.2527 231.803 23.7948 231.803 23.1935V20.0371H232.757ZM236.707 20.8236H235.501V25.7837H234.547V20.8236H233.802V20.0371H234.547V19.6281C234.547 18.985 234.711 18.5166 235.04 18.2229C235.375 17.9223 235.91 17.772 236.644 17.772V18.569C236.225 18.569 235.928 18.6529 235.753 18.8207C235.585 18.9815 235.501 19.2506 235.501 19.6281V20.0371H236.707V20.8236ZM237.463 22.8894C237.463 22.3022 237.582 21.7883 237.82 21.3479C238.057 20.9005 238.382 20.5544 238.795 20.3097C239.214 20.0651 239.679 19.9427 240.19 19.9427C240.693 19.9427 241.13 20.0511 241.5 20.2678C241.871 20.4845 242.147 20.7572 242.329 21.0857V20.0371H243.294V25.7837H242.329V24.7141C242.14 25.0496 241.857 25.3293 241.479 25.553C241.109 25.7697 240.675 25.8781 240.179 25.8781C239.669 25.8781 239.207 25.7522 238.795 25.5006C238.382 25.2489 238.057 24.8958 237.82 24.4414C237.582 23.987 237.463 23.4697 237.463 22.8894ZM242.329 22.8999C242.329 22.4665 242.241 22.089 242.067 21.7674C241.892 21.4458 241.654 21.2011 241.354 21.0333C241.06 20.8585 240.735 20.7712 240.378 20.7712C240.022 20.7712 239.697 20.855 239.403 21.0228C239.109 21.1906 238.875 21.4353 238.701 21.7569C238.526 22.0785 238.438 22.456 238.438 22.8894C238.438 23.3299 238.526 23.7144 238.701 24.0429C238.875 24.3645 239.109 24.6127 239.403 24.7875C239.697 24.9553 240.022 25.0392 240.378 25.0392C240.735 25.0392 241.06 24.9553 241.354 24.7875C241.654 24.6127 241.892 24.3645 242.067 24.0429C242.241 23.7144 242.329 23.3333 242.329 22.8999ZM244.55 22.8999C244.55 22.3057 244.669 21.7883 244.906 21.3479C245.144 20.9005 245.472 20.5544 245.892 20.3097C246.318 20.0651 246.804 19.9427 247.35 19.9427C248.056 19.9427 248.636 20.114 249.09 20.4566C249.552 20.7991 249.856 21.2745 250.003 21.8827H248.975C248.877 21.5332 248.685 21.257 248.398 21.0543C248.119 20.8515 247.769 20.7502 247.35 20.7502C246.804 20.7502 246.364 20.9389 246.028 21.3164C245.693 21.687 245.525 22.2148 245.525 22.8999C245.525 23.592 245.693 24.1268 246.028 24.5043C246.364 24.8819 246.804 25.0706 247.35 25.0706C247.769 25.0706 248.119 24.9727 248.398 24.777C248.678 24.5812 248.87 24.3016 248.975 23.9381H250.003C249.849 24.5253 249.541 24.9972 249.08 25.3537C248.618 25.7033 248.042 25.8781 247.35 25.8781C246.804 25.8781 246.318 25.7557 245.892 25.511C245.472 25.2664 245.144 24.9203 244.906 24.4729C244.669 24.0255 244.55 23.5011 244.55 22.8999ZM252.44 20.8236V24.2107C252.44 24.4904 252.499 24.6896 252.618 24.8084C252.737 24.9203 252.943 24.9762 253.237 24.9762H253.939V25.7837H253.08C252.548 25.7837 252.15 25.6613 251.884 25.4167C251.618 25.172 251.486 24.77 251.486 24.2107V20.8236H250.741V20.0371H251.486V18.59H252.44V20.0371H253.939V20.8236H252.44ZM260.192 20.0371V25.7837H259.238V24.9343C259.056 25.2279 258.801 25.4586 258.472 25.6264C258.151 25.7872 257.794 25.8676 257.403 25.8676C256.955 25.8676 256.553 25.7767 256.197 25.5949C255.84 25.4062 255.557 25.1265 255.347 24.756C255.145 24.3855 255.043 23.9346 255.043 23.4033V20.0371H255.987V23.2774C255.987 23.8437 256.13 24.2806 256.417 24.5882C256.704 24.8888 257.095 25.0392 257.592 25.0392C258.102 25.0392 258.504 24.8819 258.797 24.5673C259.091 24.2527 259.238 23.7948 259.238 23.1935V20.0371H260.192ZM262.758 20.9704C262.925 20.6418 263.163 20.3866 263.471 20.2049C263.785 20.0231 264.166 19.9322 264.614 19.9322V20.918H264.362C263.292 20.918 262.758 21.4982 262.758 22.6587V25.7837H261.803V20.0371H262.758V20.9704ZM266.208 19.1038C266.026 19.1038 265.873 19.0409 265.747 18.915C265.621 18.7892 265.558 18.6354 265.558 18.4536C265.558 18.2719 265.621 18.1181 265.747 17.9922C265.873 17.8664 266.026 17.8035 266.208 17.8035C266.383 17.8035 266.53 17.8664 266.649 17.9922C266.774 18.1181 266.837 18.2719 266.837 18.4536C266.837 18.6354 266.774 18.7892 266.649 18.915C266.53 19.0409 266.383 19.1038 266.208 19.1038ZM266.67 20.0371V25.7837H265.715V20.0371H266.67ZM271.096 19.9322C271.795 19.9322 272.361 20.1455 272.795 20.5719C273.228 20.9914 273.445 21.5996 273.445 22.3966V25.7837H272.501V22.5329C272.501 21.9596 272.358 21.5227 272.071 21.2221C271.784 20.9145 271.393 20.7607 270.897 20.7607C270.393 20.7607 269.991 20.918 269.691 21.2326C269.397 21.5472 269.25 22.0051 269.25 22.6063V25.7837H268.296V20.0371H269.25V20.855C269.439 20.5614 269.694 20.3342 270.016 20.1734C270.344 20.0126 270.704 19.9322 271.096 19.9322ZM277.374 19.9427C277.87 19.9427 278.303 20.0511 278.674 20.2678C279.051 20.4845 279.331 20.7572 279.513 21.0857V20.0371H280.478V25.9095C280.478 26.4339 280.366 26.8988 280.142 27.3042C279.918 27.7167 279.597 28.0383 279.177 28.269C278.765 28.4997 278.282 28.615 277.73 28.615C276.975 28.615 276.346 28.4368 275.843 28.0802C275.339 27.7237 275.042 27.2378 274.951 26.6226H275.895C276 26.9722 276.217 27.2518 276.545 27.4615C276.874 27.6783 277.269 27.7866 277.73 27.7866C278.254 27.7866 278.681 27.6223 279.009 27.2937C279.345 26.9652 279.513 26.5038 279.513 25.9095V24.7036C279.324 25.0392 279.044 25.3188 278.674 25.5425C278.303 25.7662 277.87 25.8781 277.374 25.8781C276.863 25.8781 276.398 25.7522 275.979 25.5006C275.566 25.2489 275.241 24.8958 275.004 24.4414C274.766 23.987 274.647 23.4697 274.647 22.8894C274.647 22.3022 274.766 21.7883 275.004 21.3479C275.241 20.9005 275.566 20.5544 275.979 20.3097C276.398 20.0651 276.863 19.9427 277.374 19.9427ZM279.513 22.8999C279.513 22.4665 279.425 22.089 279.251 21.7674C279.076 21.4458 278.838 21.2011 278.538 21.0333C278.244 20.8585 277.919 20.7712 277.562 20.7712C277.206 20.7712 276.881 20.855 276.587 21.0228C276.293 21.1906 276.059 21.4353 275.885 21.7569C275.71 22.0785 275.622 22.456 275.622 22.8894C275.622 23.3299 275.71 23.7144 275.885 24.0429C276.059 24.3645 276.293 24.6127 276.587 24.7875C276.881 24.9553 277.206 25.0392 277.562 25.0392C277.919 25.0392 278.244 24.9553 278.538 24.7875C278.838 24.6127 279.076 24.3645 279.251 24.0429C279.425 23.7144 279.513 23.3333 279.513 22.8999Z" fill="#333645"/>
</g>
<defs>
<filter id="filter0_b_1_585" x="-37.1436" y="14.6972" width="304.487" height="120.038" filterUnits="userSpaceOnUse" color-interpolation-filters="sRGB">
<feFlood flood-opacity="0" result="BackgroundImageFix"/>
<feGaussianBlur in="BackgroundImageFix" stdDeviation="18.8677"/>
<feComposite in2="SourceAlpha" operator="in" result="effect1_backgroundBlur_1_585"/>
<feBlend mode="normal" in="SourceGraphic" in2="effect1_backgroundBlur_1_585" result="shape"/>
</filter>
<filter id="filter1_b_1_585" x="-1.75151" y="-37.7354" width="342.487" height="120.038" filterUnits="userSpaceOnUse" color-interpolation-filters="sRGB">
<feFlood flood-opacity="0" result="BackgroundImageFix"/>
<feGaussianBlur in="BackgroundImageFix" stdDeviation="18.8677"/>
<feComposite in2="SourceAlpha" operator="in" result="effect1_backgroundBlur_1_585"/>
<feBlend mode="normal" in="SourceGraphic" in2="effect1_backgroundBlur_1_585" result="shape"/>
</filter>
</defs>
</svg>
