<svg width="36" height="36" viewBox="0 0 36 36" fill="none" xmlns="http://www.w3.org/2000/svg">
<path fill-rule="evenodd" clip-rule="evenodd" d="M13.1493 4.8623C13.7075 4.8623 14.1599 5.31476 14.1599 5.8729V7.28773H21.8404V5.8729C21.8404 5.31476 22.2929 4.8623 22.851 4.8623C23.4092 4.8623 23.8616 5.31476 23.8616 5.8729V7.28773H26.4892C28.3868 7.28773 29.9252 8.82608 29.9252 10.7237V27.7017C29.9252 29.5993 28.3868 31.1377 26.4892 31.1377H9.51121C7.61355 31.1377 6.0752 29.5993 6.0752 27.7017V10.7237C6.0752 8.82608 7.61355 7.28773 9.51121 7.28773H12.1387V5.8729C12.1387 5.31476 12.5912 4.8623 13.1493 4.8623ZM12.1387 9.30891H9.51121C8.72982 9.30891 8.09638 9.94235 8.09638 10.7237V14.564H27.904V10.7237C27.904 9.94235 27.2705 9.30891 26.4892 9.30891H23.8616V10.7237C23.8616 11.2819 23.4092 11.7343 22.851 11.7343C22.2929 11.7343 21.8404 11.2819 21.8404 10.7237V9.30891H14.1599V10.7237C14.1599 11.2819 13.7075 11.7343 13.1493 11.7343C12.5912 11.7343 12.1387 11.2819 12.1387 10.7237V9.30891ZM27.904 16.5852H8.09638V27.7017C8.09638 28.4831 8.72982 29.1165 9.51121 29.1165H26.4892C27.2705 29.1165 27.904 28.4831 27.904 27.7017V16.5852Z" fill="#0E1122"/>
</svg>
