<svg width="183" height="90" viewBox="0 0 183 90" fill="none" xmlns="http://www.w3.org/2000/svg">
<path d="M3.56706 6.36439C3.56706 6.58248 3.51044 6.78799 3.3972 6.98092C3.28815 7.16966 3.12459 7.32693 2.90649 7.45276C2.6926 7.57438 2.43885 7.64568 2.14527 7.66665V8.17623H1.74264V7.66036C1.32323 7.62262 0.985608 7.49679 0.729769 7.2829C0.47393 7.0648 0.341817 6.77122 0.333429 6.40214H1.2771C1.30226 6.70411 1.45744 6.88655 1.74264 6.94947V5.74786C1.44066 5.67237 1.19741 5.59688 1.01287 5.52138C0.82833 5.44589 0.668955 5.32426 0.534745 5.1565C0.400534 4.98874 0.333429 4.76016 0.333429 4.47077C0.333429 4.10588 0.463445 3.8081 0.723478 3.57743C0.987705 3.34676 1.32742 3.21464 1.74264 3.18109V2.67151H2.14527V3.18109C2.5479 3.21464 2.86875 3.33627 3.10781 3.54597C3.35107 3.75568 3.48737 4.04507 3.51673 4.41415H2.56677C2.55419 4.29252 2.51015 4.18767 2.43466 4.09959C2.36336 4.00732 2.2669 3.94231 2.14527 3.90457V5.09359C2.45983 5.17328 2.70728 5.25087 2.88762 5.32636C3.07216 5.39766 3.23153 5.51719 3.36575 5.68495C3.49996 5.84852 3.56706 6.075 3.56706 6.36439ZM1.25193 4.42673C1.25193 4.56513 1.29387 4.67837 1.37775 4.76645C1.46164 4.85033 1.58326 4.91953 1.74264 4.97406V3.88569C1.59165 3.90666 1.47212 3.96328 1.38404 4.05555C1.29597 4.14782 1.25193 4.27155 1.25193 4.42673ZM2.14527 6.96205C2.30464 6.93269 2.42837 6.86768 2.51645 6.76702C2.60871 6.66637 2.65485 6.54474 2.65485 6.40214C2.65485 6.26373 2.61081 6.15259 2.52274 6.06871C2.43466 5.98483 2.30884 5.91563 2.14527 5.8611V6.96205ZM4.46227 4.25058C4.48324 3.83117 4.63003 3.50823 4.90264 3.28175C5.17945 3.05107 5.54224 2.93574 5.99101 2.93574C6.29717 2.93574 6.5593 2.99026 6.7774 3.09931C6.99549 3.20416 7.15906 3.34885 7.2681 3.53339C7.38134 3.71374 7.43796 3.91925 7.43796 4.14992C7.43796 4.41415 7.36876 4.63853 7.23036 4.82307C7.09615 5.00342 6.93467 5.12504 6.74594 5.18795V5.21312C6.9892 5.28861 7.17793 5.42282 7.31214 5.61575C7.45054 5.80868 7.51975 6.05613 7.51975 6.3581C7.51975 6.60975 7.46103 6.83413 7.3436 7.03125C7.23036 7.22837 7.0605 7.38355 6.83402 7.49679C6.61173 7.60584 6.34331 7.66036 6.02875 7.66036C5.55482 7.66036 5.16897 7.54083 4.87119 7.30177C4.57341 7.06271 4.41613 6.7104 4.39936 6.24486H5.25495C5.26333 6.45037 5.33254 6.61604 5.46255 6.74186C5.59676 6.86349 5.77921 6.9243 6.00988 6.9243C6.22378 6.9243 6.38735 6.86558 6.50059 6.74815C6.61802 6.62652 6.67674 6.47134 6.67674 6.28261C6.67674 6.03096 6.59705 5.85062 6.43768 5.74157C6.2783 5.63253 6.03085 5.578 5.69532 5.578H5.51288V4.85453H5.69532C6.29088 4.85453 6.58866 4.65531 6.58866 4.25687C6.58866 4.07652 6.53414 3.93602 6.42509 3.83537C6.32024 3.73471 6.16716 3.68438 5.96584 3.68438C5.76872 3.68438 5.61564 3.7389 5.50659 3.84795C5.40174 3.9528 5.34093 4.08701 5.32415 4.25058H4.46227ZM13.1039 3.23771V7.62891H12.2232V4.77274L11.0468 7.62891H10.3799L9.19716 4.77274V7.62891H8.31641V3.23771H9.3167L10.7133 6.5028L12.1099 3.23771H13.1039Z" fill="#76767F"/>
<path d="M3.56706 32.9445C3.56706 33.1626 3.51044 33.3681 3.3972 33.561C3.28815 33.7497 3.12459 33.907 2.90649 34.0328C2.6926 34.1545 2.43885 34.2258 2.14527 34.2467V34.7563H1.74264V34.2404C1.32323 34.2027 0.985608 34.0769 0.729769 33.863C0.47393 33.6449 0.341817 33.3513 0.333429 32.9822H1.2771C1.30226 33.2842 1.45744 33.4666 1.74264 33.5295V32.3279C1.44066 32.2524 1.19741 32.177 1.01287 32.1015C0.82833 32.026 0.668955 31.9043 0.534745 31.7366C0.400534 31.5688 0.333429 31.3402 0.333429 31.0508C0.333429 30.686 0.463445 30.3882 0.723478 30.1575C0.987705 29.9268 1.32742 29.7947 1.74264 29.7612V29.2516H2.14527V29.7612C2.5479 29.7947 2.86875 29.9163 3.10781 30.1261C3.35107 30.3358 3.48737 30.6251 3.51673 30.9942H2.56677C2.55419 30.8726 2.51015 30.7677 2.43466 30.6797C2.36336 30.5874 2.2669 30.5224 2.14527 30.4846V31.6737C2.45983 31.7534 2.70728 31.8309 2.88762 31.9064C3.07216 31.9777 3.23153 32.0973 3.36575 32.265C3.49996 32.4286 3.56706 32.6551 3.56706 32.9445ZM1.25193 31.0068C1.25193 31.1452 1.29387 31.2585 1.37775 31.3465C1.46164 31.4304 1.58326 31.4996 1.74264 31.5541V30.4658C1.59165 30.4867 1.47212 30.5434 1.38404 30.6356C1.29597 30.7279 1.25193 30.8516 1.25193 31.0068ZM2.14527 33.5421C2.30464 33.5128 2.42837 33.4478 2.51645 33.3471C2.60871 33.2464 2.65485 33.1248 2.65485 32.9822C2.65485 32.8438 2.61081 32.7327 2.52274 32.6488C2.43466 32.5649 2.30884 32.4957 2.14527 32.4412V33.5421ZM4.72649 33.215C5.12912 32.8795 5.44997 32.6006 5.68903 32.3783C5.9281 32.1518 6.12731 31.9169 6.28669 31.6737C6.44606 31.4304 6.52575 31.1913 6.52575 30.9565C6.52575 30.7426 6.47542 30.5748 6.37476 30.4532C6.27411 30.3316 6.11893 30.2707 5.90922 30.2707C5.69952 30.2707 5.53805 30.342 5.42481 30.4846C5.31157 30.6231 5.25285 30.8139 5.24866 31.0571H4.39306C4.40984 30.5538 4.55873 30.1722 4.83973 29.9122C5.12493 29.6521 5.48562 29.5221 5.9218 29.5221C6.39993 29.5221 6.76691 29.65 7.02275 29.9059C7.27859 30.1575 7.40651 30.4909 7.40651 30.9062C7.40651 31.2333 7.31843 31.5457 7.14228 31.8435C6.96613 32.1413 6.76481 32.4013 6.53833 32.6236C6.31185 32.8417 6.01617 33.1059 5.65129 33.4163H7.50717V34.1461H4.39936V33.4918L4.72649 33.215ZM12.9504 29.8178V34.209H12.0696V31.3528L10.8932 34.209H10.2263L9.04357 31.3528V34.209H8.16282V29.8178H9.1631L10.5597 33.0829L11.9564 29.8178H12.9504Z" fill="#76767F"/>
<path d="M3.56706 59.5243C3.56706 59.7424 3.51044 59.9479 3.3972 60.1408C3.28815 60.3296 3.12459 60.4868 2.90649 60.6127C2.6926 60.7343 2.43885 60.8056 2.14527 60.8266V61.3361H1.74264V60.8203C1.32323 60.7825 0.985608 60.6567 0.729769 60.4428C0.47393 60.2247 0.341817 59.9311 0.333429 59.5621H1.2771C1.30226 59.864 1.45744 60.0465 1.74264 60.1094V58.9078C1.44066 58.8323 1.19741 58.7568 1.01287 58.6813C0.82833 58.6058 0.668955 58.4842 0.534745 58.3164C0.400534 58.1486 0.333429 57.9201 0.333429 57.6307C0.333429 57.2658 0.463445 56.968 0.723478 56.7373C0.987705 56.5067 1.32742 56.3746 1.74264 56.341V55.8314H2.14527V56.341C2.5479 56.3746 2.86875 56.4962 3.10781 56.7059C3.35107 56.9156 3.48737 57.205 3.51673 57.5741H2.56677C2.55419 57.4524 2.51015 57.3476 2.43466 57.2595C2.36336 57.1672 2.2669 57.1022 2.14527 57.0645V58.2535C2.45983 58.3332 2.70728 58.4108 2.88762 58.4863C3.07216 58.5576 3.23153 58.6771 3.36575 58.8449C3.49996 59.0084 3.56706 59.2349 3.56706 59.5243ZM1.25193 57.5866C1.25193 57.725 1.29387 57.8383 1.37775 57.9264C1.46164 58.0102 1.58326 58.0794 1.74264 58.134V57.0456C1.59165 57.0666 1.47212 57.1232 1.38404 57.2155C1.29597 57.3077 1.25193 57.4315 1.25193 57.5866ZM2.14527 60.122C2.30464 60.0926 2.42837 60.0276 2.51645 59.9269C2.60871 59.8263 2.65485 59.7046 2.65485 59.5621C2.65485 59.4236 2.61081 59.3125 2.52274 59.2286C2.43466 59.1447 2.30884 59.0755 2.14527 59.021V60.122ZM4.34274 57.0142V56.2026H5.85889V60.7888H4.95297V57.0142H4.34274ZM11.6172 56.3976V60.7888H10.7364V57.9327L9.55998 60.7888H8.89313L7.7104 57.9327V60.7888H6.82964V56.3976H7.82993L9.22656 59.6627L10.6232 56.3976H11.6172Z" fill="#76767F"/>
<path d="M3.56706 86.1044C3.56706 86.3225 3.51044 86.528 3.3972 86.7209C3.28815 86.9096 3.12459 87.0669 2.90649 87.1927C2.6926 87.3144 2.43885 87.3857 2.14527 87.4066V87.9162H1.74264V87.4004C1.32323 87.3626 0.985608 87.2368 0.729769 87.0229C0.47393 86.8048 0.341817 86.5112 0.333429 86.1421H1.2771C1.30226 86.4441 1.45744 86.6265 1.74264 86.6895V85.4879C1.44066 85.4124 1.19741 85.3369 1.01287 85.2614C0.82833 85.1859 0.668955 85.0643 0.534745 84.8965C0.400534 84.7287 0.333429 84.5001 0.333429 84.2108C0.333429 83.8459 0.463445 83.5481 0.723478 83.3174C0.987705 83.0867 1.32742 82.9546 1.74264 82.9211V82.4115H2.14527V82.9211C2.5479 82.9546 2.86875 83.0763 3.10781 83.286C3.35107 83.4957 3.48737 83.7851 3.51673 84.1541H2.56677C2.55419 84.0325 2.51015 83.9277 2.43466 83.8396C2.36336 83.7473 2.2669 83.6823 2.14527 83.6446V84.8336C2.45983 84.9133 2.70728 84.9909 2.88762 85.0663C3.07216 85.1376 3.23153 85.2572 3.36575 85.4249C3.49996 85.5885 3.56706 85.815 3.56706 86.1044ZM1.25193 84.1667C1.25193 84.3051 1.29387 84.4184 1.37775 84.5064C1.46164 84.5903 1.58326 84.6595 1.74264 84.714V83.6257C1.59165 83.6467 1.47212 83.7033 1.38404 83.7955C1.29597 83.8878 1.25193 84.0115 1.25193 84.1667ZM2.14527 86.702C2.30464 86.6727 2.42837 86.6077 2.51645 86.507C2.60871 86.4064 2.65485 86.2847 2.65485 86.1421C2.65485 86.0037 2.61081 85.8926 2.52274 85.8087C2.43466 85.7248 2.30884 85.6556 2.14527 85.6011V86.702ZM4.44968 85.016C4.44968 84.2904 4.5797 83.7221 4.83973 83.3111C5.10396 82.9001 5.54014 82.6946 6.14828 82.6946C6.75643 82.6946 7.19051 82.9001 7.45055 83.3111C7.71477 83.7221 7.84689 84.2904 7.84689 85.016C7.84689 85.7458 7.71477 86.3183 7.45055 86.7335C7.19051 87.1487 6.75643 87.3563 6.14828 87.3563C5.54014 87.3563 5.10396 87.1487 4.83973 86.7335C4.5797 86.3183 4.44968 85.7458 4.44968 85.016ZM6.97871 85.016C6.97871 84.7057 6.95774 84.4456 6.9158 84.2359C6.87805 84.022 6.79837 83.848 6.67674 83.7138C6.5593 83.5795 6.38315 83.5124 6.14828 83.5124C5.91342 83.5124 5.73517 83.5795 5.61354 83.7138C5.49611 83.848 5.41642 84.022 5.37448 84.2359C5.33673 84.4456 5.31786 84.7057 5.31786 85.016C5.31786 85.3348 5.33673 85.6032 5.37448 85.8213C5.41222 86.0352 5.49191 86.2092 5.61354 86.3434C5.73517 86.4735 5.91342 86.5385 6.14828 86.5385C6.38315 86.5385 6.5614 86.4735 6.68303 86.3434C6.80466 86.2092 6.88434 86.0352 6.92209 85.8213C6.95984 85.6032 6.97871 85.3348 6.97871 85.016Z" fill="#76767F"/>
<rect x="31.8374" y="40.8645" width="6" height="48.5044" rx="3" fill="#4C57FF"/>
<rect x="44.8374" y="20.8689" width="6" height="68.5" rx="3" fill="white" fill-opacity="0.55"/>
<rect x="64.8374" y="53.8689" width="6" height="35.5" rx="3" fill="#4C57FF"/>
<rect x="77.8374" y="60.8689" width="6" height="28.5" rx="3" fill="white" fill-opacity="0.55"/>
<rect x="97.8374" y="31.8689" width="6" height="57.5" rx="3" fill="#4C57FF"/>
<rect x="110.837" y="50.8689" width="6" height="38.5" rx="3" fill="white" fill-opacity="0.55"/>
<rect x="130.837" y="40.8645" width="6" height="48.5044" rx="3" fill="#4C57FF"/>
<rect x="143.837" y="40.8645" width="6" height="48.5044" rx="3" fill="white" fill-opacity="0.55"/>
<rect x="163.837" y="50.8689" width="6" height="38.5" rx="3" fill="#4C57FF"/>
<rect x="176.837" y="30.8689" width="6" height="58.5" rx="3" fill="white" fill-opacity="0.55"/>
</svg>
