<svg width="113" height="70" viewBox="0 0 113 70" fill="none" xmlns="http://www.w3.org/2000/svg">
<g filter="url(#filter0_d_1_665)">
<rect x="20.8335" y="15.9937" width="72" height="24" rx="6" fill="white"/>
<path d="M35.3615 29.6177C35.3615 30.0177 35.2615 30.3937 35.0615 30.7457C34.8695 31.0977 34.5815 31.3937 34.1975 31.6337C33.8215 31.8737 33.3735 32.0177 32.8535 32.0657V33.0377H32.0735V32.0657C31.3215 31.9937 30.7135 31.7577 30.2495 31.3577C29.7855 30.9577 29.5535 30.4297 29.5535 29.7737H31.0175C31.0415 30.0857 31.1415 30.3457 31.3175 30.5537C31.4935 30.7537 31.7455 30.8817 32.0735 30.9377V28.2977C31.5375 28.1617 31.1015 28.0257 30.7655 27.8897C30.4295 27.7457 30.1415 27.5217 29.9015 27.2177C29.6695 26.9137 29.5535 26.4977 29.5535 25.9697C29.5535 25.3057 29.7855 24.7577 30.2495 24.3257C30.7135 23.8857 31.3215 23.6297 32.0735 23.5577V22.5857H32.8535V23.5577C33.5575 23.6217 34.1215 23.8457 34.5455 24.2297C34.9775 24.6057 35.2215 25.1257 35.2775 25.7897H33.8135C33.7895 25.5417 33.6935 25.3217 33.5255 25.1297C33.3575 24.9297 33.1335 24.7937 32.8535 24.7217V27.3137C33.3895 27.4417 33.8255 27.5777 34.1615 27.7217C34.4975 27.8577 34.7815 28.0777 35.0135 28.3817C35.2455 28.6777 35.3615 29.0897 35.3615 29.6177ZM30.9455 25.8977C30.9455 26.2257 31.0415 26.4817 31.2335 26.6657C31.4335 26.8497 31.7135 26.9977 32.0735 27.1097V24.6857C31.7295 24.7257 31.4535 24.8497 31.2455 25.0577C31.0455 25.2657 30.9455 25.5457 30.9455 25.8977ZM32.8535 30.9377C33.2055 30.8817 33.4815 30.7417 33.6815 30.5177C33.8815 30.2857 33.9815 30.0097 33.9815 29.6897C33.9815 29.3697 33.8815 29.1217 33.6815 28.9457C33.4895 28.7617 33.2135 28.6137 32.8535 28.5017V30.9377ZM38.1142 30.1337C38.8822 29.4697 39.4862 28.9257 39.9262 28.5017C40.3742 28.0697 40.7462 27.6217 41.0422 27.1577C41.3382 26.6937 41.4862 26.2297 41.4862 25.7657C41.4862 25.2857 41.3702 24.9097 41.1382 24.6377C40.9142 24.3657 40.5582 24.2297 40.0702 24.2297C39.5982 24.2297 39.2302 24.3817 38.9662 24.6857C38.7102 24.9817 38.5742 25.3817 38.5582 25.8857H37.2382C37.2622 24.9737 37.5342 24.2777 38.0542 23.7977C38.5822 23.3097 39.2502 23.0657 40.0582 23.0657C40.9302 23.0657 41.6102 23.3057 42.0982 23.7857C42.5942 24.2657 42.8422 24.9057 42.8422 25.7057C42.8422 26.2817 42.6942 26.8377 42.3982 27.3737C42.1102 27.9017 41.7622 28.3777 41.3542 28.8017C40.9542 29.2177 40.4422 29.7017 39.8182 30.2537L39.2782 30.7337H43.0822V31.8737H37.2502V30.8777L38.1142 30.1337ZM44.284 27.5057C44.284 26.1217 44.516 25.0417 44.98 24.2657C45.452 23.4817 46.26 23.0897 47.404 23.0897C48.548 23.0897 49.352 23.4817 49.816 24.2657C50.288 25.0417 50.524 26.1217 50.524 27.5057C50.524 28.9057 50.288 30.0017 49.816 30.7937C49.352 31.5777 48.548 31.9697 47.404 31.9697C46.26 31.9697 45.452 31.5777 44.98 30.7937C44.516 30.0017 44.284 28.9057 44.284 27.5057ZM49.18 27.5057C49.18 26.8577 49.136 26.3097 49.048 25.8617C48.968 25.4137 48.8 25.0497 48.544 24.7697C48.288 24.4817 47.908 24.3377 47.404 24.3377C46.9 24.3377 46.52 24.4817 46.264 24.7697C46.008 25.0497 45.836 25.4137 45.748 25.8617C45.668 26.3097 45.628 26.8577 45.628 27.5057C45.628 28.1777 45.668 28.7417 45.748 29.1977C45.828 29.6537 45.996 30.0217 46.252 30.3017C46.516 30.5817 46.9 30.7217 47.404 30.7217C47.908 30.7217 48.288 30.5817 48.544 30.3017C48.808 30.0217 48.98 29.6537 49.06 29.1977C49.14 28.7417 49.18 28.1777 49.18 27.5057ZM51.9715 27.5057C51.9715 26.1217 52.2035 25.0417 52.6675 24.2657C53.1395 23.4817 53.9475 23.0897 55.0915 23.0897C56.2355 23.0897 57.0395 23.4817 57.5035 24.2657C57.9755 25.0417 58.2115 26.1217 58.2115 27.5057C58.2115 28.9057 57.9755 30.0017 57.5035 30.7937C57.0395 31.5777 56.2355 31.9697 55.0915 31.9697C53.9475 31.9697 53.1395 31.5777 52.6675 30.7937C52.2035 30.0017 51.9715 28.9057 51.9715 27.5057ZM56.8675 27.5057C56.8675 26.8577 56.8235 26.3097 56.7355 25.8617C56.6555 25.4137 56.4875 25.0497 56.2315 24.7697C55.9755 24.4817 55.5955 24.3377 55.0915 24.3377C54.5875 24.3377 54.2075 24.4817 53.9515 24.7697C53.6955 25.0497 53.5235 25.4137 53.4355 25.8617C53.3555 26.3097 53.3155 26.8577 53.3155 27.5057C53.3155 28.1777 53.3555 28.7417 53.4355 29.1977C53.5155 29.6537 53.6835 30.0217 53.9395 30.3017C54.2035 30.5817 54.5875 30.7217 55.0915 30.7217C55.5955 30.7217 55.9755 30.5817 56.2315 30.3017C56.4955 30.0217 56.6675 29.6537 56.7475 29.1977C56.8275 28.7417 56.8675 28.1777 56.8675 27.5057ZM61.339 30.3497L59.887 33.6617H58.999L59.851 30.3497H61.339ZM62.3543 27.5057C62.3543 26.1217 62.5863 25.0417 63.0503 24.2657C63.5223 23.4817 64.3303 23.0897 65.4743 23.0897C66.6183 23.0897 67.4223 23.4817 67.8863 24.2657C68.3583 25.0417 68.5943 26.1217 68.5943 27.5057C68.5943 28.9057 68.3583 30.0017 67.8863 30.7937C67.4223 31.5777 66.6183 31.9697 65.4743 31.9697C64.3303 31.9697 63.5223 31.5777 63.0503 30.7937C62.5863 30.0017 62.3543 28.9057 62.3543 27.5057ZM67.2503 27.5057C67.2503 26.8577 67.2063 26.3097 67.1183 25.8617C67.0383 25.4137 66.8703 25.0497 66.6143 24.7697C66.3583 24.4817 65.9783 24.3377 65.4743 24.3377C64.9703 24.3377 64.5903 24.4817 64.3343 24.7697C64.0783 25.0497 63.9063 25.4137 63.8183 25.8617C63.7383 26.3097 63.6983 26.8577 63.6983 27.5057C63.6983 28.1777 63.7383 28.7417 63.8183 29.1977C63.8983 29.6537 64.0663 30.0217 64.3223 30.3017C64.5863 30.5817 64.9703 30.7217 65.4743 30.7217C65.9783 30.7217 66.3583 30.5817 66.6143 30.3017C66.8783 30.0217 67.0503 29.6537 67.1303 29.1977C67.2103 28.7417 67.2503 28.1777 67.2503 27.5057ZM70.0418 27.5057C70.0418 26.1217 70.2738 25.0417 70.7378 24.2657C71.2098 23.4817 72.0178 23.0897 73.1618 23.0897C74.3058 23.0897 75.1098 23.4817 75.5738 24.2657C76.0458 25.0417 76.2818 26.1217 76.2818 27.5057C76.2818 28.9057 76.0458 30.0017 75.5738 30.7937C75.1098 31.5777 74.3058 31.9697 73.1618 31.9697C72.0178 31.9697 71.2098 31.5777 70.7378 30.7937C70.2738 30.0017 70.0418 28.9057 70.0418 27.5057ZM74.9378 27.5057C74.9378 26.8577 74.8938 26.3097 74.8058 25.8617C74.7258 25.4137 74.5578 25.0497 74.3018 24.7697C74.0458 24.4817 73.6658 24.3377 73.1618 24.3377C72.6578 24.3377 72.2778 24.4817 72.0218 24.7697C71.7658 25.0497 71.5938 25.4137 71.5058 25.8617C71.4258 26.3097 71.3858 26.8577 71.3858 27.5057C71.3858 28.1777 71.4258 28.7417 71.5058 29.1977C71.5858 29.6537 71.7538 30.0217 72.0098 30.3017C72.2738 30.5817 72.6578 30.7217 73.1618 30.7217C73.6658 30.7217 74.0458 30.5817 74.3018 30.3017C74.5658 30.0217 74.7378 29.6537 74.8178 29.1977C74.8978 28.7417 74.9378 28.1777 74.9378 27.5057ZM77.7293 27.5057C77.7293 26.1217 77.9613 25.0417 78.4253 24.2657C78.8973 23.4817 79.7053 23.0897 80.8493 23.0897C81.9933 23.0897 82.7973 23.4817 83.2613 24.2657C83.7333 25.0417 83.9693 26.1217 83.9693 27.5057C83.9693 28.9057 83.7333 30.0017 83.2613 30.7937C82.7973 31.5777 81.9933 31.9697 80.8493 31.9697C79.7053 31.9697 78.8973 31.5777 78.4253 30.7937C77.9613 30.0017 77.7293 28.9057 77.7293 27.5057ZM82.6253 27.5057C82.6253 26.8577 82.5813 26.3097 82.4933 25.8617C82.4133 25.4137 82.2453 25.0497 81.9893 24.7697C81.7333 24.4817 81.3533 24.3377 80.8493 24.3377C80.3453 24.3377 79.9653 24.4817 79.7093 24.7697C79.4533 25.0497 79.2813 25.4137 79.1933 25.8617C79.1133 26.3097 79.0733 26.8577 79.0733 27.5057C79.0733 28.1777 79.1133 28.7417 79.1933 29.1977C79.2733 29.6537 79.4413 30.0217 79.6973 30.3017C79.9613 30.5817 80.3453 30.7217 80.8493 30.7217C81.3533 30.7217 81.7333 30.5817 81.9893 30.3017C82.2533 30.0217 82.4253 29.6537 82.5053 29.1977C82.5853 28.7417 82.6253 28.1777 82.6253 27.5057Z" fill="#0E1122"/>
<path d="M56.8335 45.9937L50.8335 39.9937L62.8335 39.9937L56.8335 45.9937Z" fill="white"/>
</g>
<defs>
<filter id="filter0_d_1_665" x="0.833496" y="-0.00631714" width="112" height="70" filterUnits="userSpaceOnUse" color-interpolation-filters="sRGB">
<feFlood flood-opacity="0" result="BackgroundImageFix"/>
<feColorMatrix in="SourceAlpha" type="matrix" values="0 0 0 0 0 0 0 0 0 0 0 0 0 0 0 0 0 0 127 0" result="hardAlpha"/>
<feOffset dy="4"/>
<feGaussianBlur stdDeviation="10"/>
<feComposite in2="hardAlpha" operator="out"/>
<feColorMatrix type="matrix" values="0 0 0 0 0.0862745 0 0 0 0 0.12549 0 0 0 0 0.356863 0 0 0 0.06 0"/>
<feBlend mode="normal" in2="BackgroundImageFix" result="effect1_dropShadow_1_665"/>
<feBlend mode="normal" in="SourceGraphic" in2="effect1_dropShadow_1_665" result="shape"/>
</filter>
</defs>
</svg>
