<svg width="74" height="30" viewBox="0 0 74 30" fill="none" xmlns="http://www.w3.org/2000/svg">
<path d="M9.54247 6.45142C4.33739 6.45142 0 8.65967 0 15.3219C0 20.5998 2.91658 23.9235 9.67687 23.9235C17.634 23.9235 18.1441 18.6819 18.1441 18.6819H14.2885C14.2885 18.6819 13.4618 21.5043 9.44167 21.5043C6.16736 21.5043 3.81235 19.2924 3.81235 16.1921H18.5473V14.2467C18.5473 11.1795 16.6002 6.45142 9.54247 6.45142ZM9.40807 8.93783C12.5249 8.93783 14.6497 10.8473 14.6497 13.7091H3.89763C3.89763 10.6709 6.67108 8.93783 9.40807 8.93783Z" fill="white"/>
<path d="M18.5443 0V20.5776C18.5443 21.7457 18.4609 23.3858 18.4609 23.3858H22.1384C22.1384 23.3858 22.2704 22.2078 22.2704 21.1313C22.2704 21.1313 24.0873 23.9738 29.0276 23.9738C34.2299 23.9738 37.7636 20.362 37.7636 15.1873C37.7636 10.3734 34.5178 6.50165 29.036 6.50165C23.9027 6.50165 22.3075 9.27367 22.3075 9.27367V0H18.5443ZM28.0868 9.04686C31.6196 9.04686 33.866 11.6688 33.866 15.1873C33.866 18.9603 31.2714 21.4286 28.112 21.4286C24.3414 21.4286 22.3075 18.4845 22.3075 15.2209C22.3075 12.1798 24.1326 9.04686 28.0868 9.04686Z" fill="white"/>
<path d="M46.9028 6.45142C39.0722 6.45142 38.57 10.7391 38.57 11.4243H42.4676C42.4676 11.4243 42.672 8.92103 46.634 8.92103C49.2086 8.92103 51.2037 10.0995 51.2037 12.3651V13.1715H46.634C40.5675 13.1715 37.3604 14.9462 37.3604 18.5475C37.3604 22.0917 40.3237 24.0201 44.3282 24.0201C49.7858 24.0201 51.5439 21.0045 51.5439 21.0045C51.5439 22.204 51.6363 23.3859 51.6363 23.3859H55.1013C55.1013 23.3859 54.9669 21.9208 54.9669 20.9835V12.8817C54.9669 7.56938 50.682 6.45142 46.9028 6.45142ZM51.2037 15.5907V16.6659C51.2037 18.0683 50.3383 21.5547 45.2438 21.5547C42.4541 21.5547 41.258 20.1624 41.258 18.5475C41.258 15.6096 45.286 15.5907 51.2037 15.5907Z" fill="white"/>
<path d="M52.8682 7.12378H57.253L63.5458 19.7311L69.8243 7.12378H73.7963L62.3602 29.5687H58.1938L61.4938 23.3119L52.8682 7.12378Z" fill="white"/>
</svg>
