<svg width="20" height="20" viewBox="0 0 20 20" fill="none" xmlns="http://www.w3.org/2000/svg">
<g clip-path="url(#clip0_1_711)">
<path d="M7.56299 11.6183L12.4368 6.74445" stroke="white" stroke-width="1.21846" stroke-linecap="round" stroke-linejoin="round"/>
<path d="M7.96914 7.55675C8.19346 7.55675 8.3753 7.37491 8.3753 7.1506C8.3753 6.92629 8.19346 6.74445 7.96914 6.74445C7.74483 6.74445 7.56299 6.92629 7.56299 7.1506C7.56299 7.37491 7.74483 7.55675 7.96914 7.55675Z" stroke="white" stroke-width="1.21846" stroke-linecap="round" stroke-linejoin="round"/>
<path d="M12.0312 11.6183C12.2555 11.6183 12.4373 11.4365 12.4373 11.2121C12.4373 10.9878 12.2555 10.806 12.0312 10.806C11.8068 10.806 11.625 10.9878 11.625 11.2121C11.625 11.4365 11.8068 11.6183 12.0312 11.6183Z" stroke="white" stroke-width="1.21846" stroke-linecap="round" stroke-linejoin="round"/>
<path d="M4.31396 17.3045V4.30752C4.31396 3.87665 4.48513 3.46342 4.7898 3.15874C5.09448 2.85407 5.50771 2.6829 5.93858 2.6829H14.0617C14.4925 2.6829 14.9058 2.85407 15.2104 3.15874C15.5151 3.46342 15.6863 3.87665 15.6863 4.30752V17.3045L13.2494 15.6798L11.6247 17.3045L10.0001 15.6798L8.37551 17.3045L6.75089 15.6798L4.31396 17.3045Z" stroke="white" stroke-width="1.21846" stroke-linecap="round" stroke-linejoin="round"/>
</g>
<defs>
<clipPath id="clip0_1_711">
<rect width="19.4954" height="19.4954" fill="white" transform="translate(0.252441 0.245975)"/>
</clipPath>
</defs>
</svg>
