<svg width="21" height="24" viewBox="0 0 21 24" fill="none" xmlns="http://www.w3.org/2000/svg">
<path d="M9.57676 0.841263C9.74459 0.841263 9.82851 0.925468 9.99634 1.00967C8.98934 1.4307 7.98235 2.52538 7.47885 4.88314L5.6327 5.38837C6.22011 3.70426 7.39494 0.841263 9.57676 0.841263ZM10.4998 1.68332C10.6677 2.18855 10.8355 2.77799 10.8355 3.70426C10.8355 3.78846 10.8355 3.78846 10.8355 3.87267L8.40193 4.54631C8.90543 2.77799 9.74459 2.02014 10.4998 1.68332ZM12.6817 3.19902L11.5907 3.53584C11.5907 3.45164 11.5907 3.36743 11.5907 3.28323C11.5907 2.52538 11.5068 1.93594 11.339 1.4307C11.9264 1.59911 12.4299 2.35696 12.6817 3.19902ZM18.1362 4.54631C18.1362 4.46211 18.0523 4.3779 17.9684 4.3779C17.8005 4.3779 16.0383 4.20949 16.0383 4.20949C16.0383 4.20949 14.7796 2.9464 14.6117 2.8622C14.4439 2.69379 14.1921 2.77799 14.1082 2.77799C14.1082 2.77799 13.8565 2.8622 13.4369 3.03061C13.0173 1.85173 12.2621 0.757057 11.0033 0.757057H10.9194C10.5837 0.251823 10.0803 0.0834116 9.66067 0.0834116C6.63969 -0.000794068 5.21312 3.78846 4.70962 5.72519C4.03829 5.8936 3.36697 6.14622 2.61172 6.39884C1.94039 6.56725 1.94039 6.65145 1.85648 7.24089C1.77256 7.66192 0.0942383 20.9664 0.0942383 20.9664L13.4369 23.4926L20.6537 21.8927C20.6537 21.8927 18.1362 4.71472 18.1362 4.54631Z" fill="white"/>
<path d="M17.8846 4.37798C17.8006 4.37798 16.0384 4.20957 16.0384 4.20957C16.0384 4.20957 14.7797 2.94649 14.6118 2.86228C14.5279 2.77808 14.5279 2.77808 14.444 2.77808L13.437 23.4927L20.6538 21.8928C20.6538 21.8928 18.1363 4.71481 18.1363 4.5464C18.1363 4.46219 17.9685 4.37798 17.8846 4.37798Z" fill="#333645"/>
<path d="M11.0034 8.41998L10.0803 11.1146C10.0803 11.1146 9.32509 10.6935 8.3181 10.6935C6.89153 10.6935 6.80761 11.5356 6.80761 11.7882C6.80761 12.9671 9.99642 13.4723 9.99642 16.3353C9.99642 18.6089 8.56985 20.0404 6.63978 20.0404C4.37404 20.0404 3.19922 18.6089 3.19922 18.6089L3.78663 16.5879C3.78663 16.5879 4.96146 17.5984 5.96845 17.5984C6.63978 17.5984 6.89153 17.0932 6.89153 16.6721C6.89153 15.0722 4.29013 14.988 4.29013 12.3776C4.29013 10.1883 5.88453 8.08316 8.98943 8.08316C10.416 7.99895 11.0034 8.41998 11.0034 8.41998Z" fill="#333645"/>
</svg>
