<svg width="38" height="38" viewBox="0 0 38 38" fill="none" xmlns="http://www.w3.org/2000/svg">
<circle cx="19" cy="19" r="19" fill="black"/>
<path d="M6 23.0861C6 27.0151 9.43631 30.2116 13.66 30.2116C17.8837 30.2116 21.3201 27.0151 21.3201 23.0861C21.3201 20.5972 19.9166 18.2863 17.6403 16.9982C18.997 15.924 19.7698 14.3648 19.7698 12.6834C19.77 9.54963 17.0291 7 13.66 7C10.2909 7 7.55029 9.54963 7.55029 12.6834C7.55029 14.3648 8.3231 15.9237 9.67978 16.9982C7.4035 18.2863 6 20.5975 6 23.0861ZM13.66 15.2702C12.1268 15.2702 10.8795 14.1099 10.8795 12.6836C10.8795 11.2574 12.1268 10.0971 13.66 10.0971C15.1932 10.0971 16.4406 11.2574 16.4406 12.6836C16.4406 14.1099 15.1932 15.2702 13.66 15.2702ZM9.32918 23.0861C9.32918 20.8647 11.2719 19.0575 13.66 19.0575C16.0481 19.0575 17.9909 20.8647 17.9909 23.0861C17.9909 25.3076 16.0481 27.1145 13.66 27.1145C11.2722 27.1148 9.32918 25.3076 9.32918 23.0861Z" fill="white"/>
<path d="M28.4201 13.0963C28.4204 11.2179 29.5807 10.8326 31.1304 10.8326C31.3926 10.8326 31.605 10.6351 31.605 10.3912V7.95656C31.605 7.71266 31.3926 7.51514 31.1304 7.51514C27.045 7.51514 24.8491 9.44504 24.8491 13.0963L24.8488 15.844H23.4206C23.0708 15.844 22.7871 16.1078 22.7871 16.4332V18.5768C22.7871 18.9021 23.0708 19.166 23.4206 19.166H24.8488V29.4729C24.8488 29.7509 25.0909 29.9761 25.3898 29.9761H27.8786C28.1775 29.9761 28.4196 29.7509 28.4196 29.4729V19.166H30.9903C31.34 19.166 31.6237 18.9021 31.6237 18.5768V16.4332C31.6237 16.1078 31.34 15.844 30.9903 15.844H28.4196L28.4201 13.0963Z" fill="white"/>
</svg>
