<svg width="36" height="36" viewBox="0 0 36 36" fill="none" xmlns="http://www.w3.org/2000/svg">
<path d="M31.4981 25.2868H26.0977V7.28578C26.0977 6.94477 26.2115 6.61772 26.4139 6.37661C26.6165 6.13547 26.8913 6 27.1778 6H30.418C30.7045 6 30.9792 6.13547 31.1819 6.37661C31.3843 6.61772 31.4981 6.94477 31.4981 7.28578V25.2868Z" stroke="#0E1122" stroke-width="2.25" stroke-linecap="round" stroke-linejoin="round"/>
<path d="M20.6993 25.2863H15.2988V11.1427C15.2988 10.8017 15.4126 10.4746 15.6152 10.2335C15.8177 9.9924 16.0925 9.85693 16.3789 9.85693H19.6192C19.9057 9.85693 20.1804 9.9924 20.3829 10.2335C20.5855 10.4746 20.6993 10.8017 20.6993 11.1427V25.2863Z" stroke="#0E1122" stroke-width="2.25" stroke-linecap="round" stroke-linejoin="round"/>
<path d="M9.90047 25.287H4.5V18.4295C4.5 18.2021 4.6138 17.9841 4.81635 17.8233C5.01891 17.6626 5.29363 17.5723 5.58009 17.5723H8.82038C9.10684 17.5723 9.38157 17.6626 9.58411 17.8233C9.78667 17.9841 9.90047 18.2021 9.90047 18.4295V25.287Z" stroke="#0E1122" stroke-width="2.25" stroke-linecap="round" stroke-linejoin="round"/>
<path d="M4.5 30H31.5" stroke="#0E1122" stroke-width="2.25" stroke-linecap="round"/>
</svg>
