<svg width="195" height="178" viewBox="0 0 195 178" fill="none" xmlns="http://www.w3.org/2000/svg">
<g filter="url(#filter0_b_4046_2128)">
<rect x="56.4185" width="247.468" height="155.583" rx="20" fill="#F3F5FF" fill-opacity="0.3"/>
<path d="M67.2832 25.93C67.2832 26.1313 67.2329 26.3242 67.1322 26.5088C67.0315 26.6891 66.8827 26.8401 66.6855 26.9617C66.4926 27.0834 66.2598 27.1526 65.9872 27.1693V27.6789H65.6475V27.1693C65.2658 27.1358 64.9555 27.0142 64.7164 26.8045C64.4774 26.5906 64.3557 26.32 64.3515 25.9929H64.9618C64.9785 26.1691 65.0436 26.3221 65.1568 26.4522C65.2742 26.5822 65.4378 26.664 65.6475 26.6975V25.1247C65.3665 25.0534 65.14 24.98 64.9681 24.9045C64.7961 24.829 64.6493 24.7116 64.5277 24.5522C64.4061 24.3929 64.3452 24.179 64.3452 23.9105C64.3452 23.5708 64.4627 23.2898 64.6975 23.0675C64.9366 22.8452 65.2533 22.7215 65.6475 22.6964V22.1742H65.9872V22.6964C66.3437 22.7257 66.631 22.8411 66.8491 23.0424C67.0672 23.2395 67.193 23.4974 67.2266 23.8162H66.6163C66.5954 23.6694 66.5304 23.5373 66.4213 23.4198C66.3123 23.2982 66.1676 23.2185 65.9872 23.1808V24.7158C66.264 24.7871 66.4884 24.8605 66.6604 24.936C66.8365 25.0073 66.9833 25.1226 67.1007 25.282C67.2224 25.4414 67.2832 25.6574 67.2832 25.93ZM64.9303 23.8791C64.9303 24.0846 64.9911 24.2419 65.1128 24.3509C65.2344 24.46 65.4126 24.5501 65.6475 24.6214V23.1682C65.4294 23.1892 65.2554 23.2605 65.1253 23.3821C64.9953 23.4995 64.9303 23.6652 64.9303 23.8791ZM65.9872 26.7038C66.2137 26.6786 66.3899 26.5968 66.5157 26.4584C66.6457 26.32 66.7107 26.1544 66.7107 25.9614C66.7107 25.7559 66.6478 25.5987 66.522 25.4896C66.3961 25.3764 66.2179 25.2862 65.9872 25.2191V26.7038ZM68.2588 23.7281C68.2881 23.3422 68.437 23.0403 68.7054 22.8222C68.9738 22.6041 69.322 22.495 69.7497 22.495C70.0349 22.495 70.2803 22.5475 70.4858 22.6523C70.6955 22.753 70.8528 22.8914 70.9576 23.0675C71.0667 23.2437 71.1212 23.4429 71.1212 23.6652C71.1212 23.9252 71.0457 24.1496 70.8947 24.3383C70.7479 24.5271 70.555 24.6487 70.3159 24.7032V24.7347C70.5886 24.8018 70.8046 24.9339 70.9639 25.131C71.1233 25.3281 71.203 25.5861 71.203 25.9048C71.203 26.1439 71.1485 26.3599 71.0394 26.5528C70.9304 26.7415 70.7668 26.8904 70.5487 26.9995C70.3306 27.1085 70.0685 27.163 69.7623 27.163C69.3178 27.163 68.9529 27.0477 68.6677 26.817C68.3825 26.5822 68.2231 26.2508 68.1896 25.823H68.7432C68.7725 26.0747 68.8753 26.2802 69.0514 26.4396C69.2276 26.5989 69.4625 26.6786 69.756 26.6786C70.0496 26.6786 70.2719 26.6031 70.4229 26.4522C70.5781 26.297 70.6557 26.0978 70.6557 25.8545C70.6557 25.5399 70.5508 25.3135 70.3411 25.1751C70.1314 25.0367 69.8148 24.9674 69.3912 24.9674H69.2465V24.4893H69.3974C69.7833 24.4851 70.0748 24.4222 70.2719 24.3006C70.469 24.1748 70.5676 23.9818 70.5676 23.7218C70.5676 23.4995 70.4942 23.3213 70.3474 23.1871C70.2048 23.0529 69.9993 22.9857 69.7309 22.9857C69.4708 22.9857 69.2611 23.0529 69.1018 23.1871C68.9424 23.3213 68.848 23.5016 68.8187 23.7281H68.2588ZM76.5181 22.7781V27.1316H75.9457V23.8854L74.4987 27.1316H74.0961L72.6428 23.8791V27.1316H72.0703V22.7781H72.6869L74.2974 26.3767L75.9079 22.7781H76.5181Z" fill="white"/>
<path d="M67.2832 52.5101C67.2832 52.7114 67.2329 52.9043 67.1322 53.0888C67.0315 53.2692 66.8827 53.4202 66.6855 53.5418C66.4926 53.6634 66.2598 53.7326 65.9872 53.7494V54.259H65.6475V53.7494C65.2658 53.7159 64.9555 53.5942 64.7164 53.3845C64.4774 53.1706 64.3557 52.9001 64.3515 52.573H64.9618C64.9785 52.7491 65.0436 52.9022 65.1568 53.0322C65.2742 53.1622 65.4378 53.244 65.6475 53.2776V51.7048C65.3665 51.6335 65.14 51.5601 64.9681 51.4846C64.7961 51.4091 64.6493 51.2917 64.5277 51.1323C64.4061 50.9729 64.3452 50.759 64.3452 50.4906C64.3452 50.1509 64.4627 49.8699 64.6975 49.6476C64.9366 49.4253 65.2533 49.3016 65.6475 49.2764V48.7543H65.9872V49.2764C66.3437 49.3058 66.631 49.4211 66.8491 49.6224C67.0672 49.8196 67.193 50.0775 67.2266 50.3963H66.6163C66.5954 50.2495 66.5304 50.1173 66.4213 49.9999C66.3123 49.8783 66.1676 49.7986 65.9872 49.7609V51.2959C66.264 51.3672 66.4884 51.4406 66.6604 51.5161C66.8365 51.5874 66.9833 51.7027 67.1007 51.8621C67.2224 52.0215 67.2832 52.2375 67.2832 52.5101ZM64.9303 50.4592C64.9303 50.6647 64.9911 50.822 65.1128 50.931C65.2344 51.04 65.4126 51.1302 65.6475 51.2015V49.7483C65.4294 49.7692 65.2554 49.8405 65.1253 49.9622C64.9953 50.0796 64.9303 50.2453 64.9303 50.4592ZM65.9872 53.2839C66.2137 53.2587 66.3899 53.1769 66.5157 53.0385C66.6457 52.9001 66.7107 52.7345 66.7107 52.5415C66.7107 52.336 66.6478 52.1787 66.522 52.0697C66.3961 51.9564 66.2179 51.8663 65.9872 51.7992V53.2839ZM68.2021 53.2524C68.7348 52.8246 69.1521 52.4744 69.4541 52.2018C69.756 51.925 70.0098 51.6377 70.2153 51.3399C70.425 51.0379 70.5298 50.7423 70.5298 50.4529C70.5298 50.1803 70.4627 49.9664 70.3285 49.8112C70.1985 49.6518 69.9867 49.5721 69.6931 49.5721C69.4079 49.5721 69.1856 49.6623 69.0263 49.8426C68.8711 50.0188 68.7872 50.2558 68.7746 50.5535H68.221C68.2378 50.0838 68.3804 49.721 68.6488 49.4652C68.9172 49.2093 69.2632 49.0814 69.6868 49.0814C70.1188 49.0814 70.4606 49.2009 70.7123 49.44C70.9681 49.6791 71.096 50.0083 71.096 50.4277C71.096 50.7758 70.9912 51.1155 70.7815 51.4469C70.576 51.774 70.3411 52.0634 70.0769 52.315C69.8127 52.5625 69.475 52.8519 69.064 53.1832H71.2282V53.6613H68.2021V53.2524ZM76.4321 49.3582V53.7117H75.8596V50.4655L74.4127 53.7117H74.0101L72.5568 50.4592V53.7117H71.9843V49.3582H72.6009L74.2114 52.9567L75.8219 49.3582H76.4321Z" fill="white"/>
<path d="M67.2832 79.0899C67.2832 79.2912 67.2329 79.4841 67.1322 79.6687C67.0315 79.849 66.8827 80 66.6855 80.1216C66.4926 80.2433 66.2598 80.3125 65.9872 80.3293V80.8388H65.6475V80.3293C65.2658 80.2957 64.9555 80.1741 64.7164 79.9644C64.4774 79.7505 64.3557 79.48 64.3515 79.1528H64.9618C64.9785 79.329 65.0436 79.482 65.1568 79.6121C65.2742 79.7421 65.4378 79.8239 65.6475 79.8574V78.2846C65.3665 78.2133 65.14 78.1399 64.9681 78.0645C64.7961 77.989 64.6493 77.8715 64.5277 77.7121C64.4061 77.5528 64.3452 77.3389 64.3452 77.0705C64.3452 76.7307 64.4627 76.4497 64.6975 76.2274C64.9366 76.0052 65.2533 75.8814 65.6475 75.8563V75.3341H65.9872V75.8563C66.3437 75.8856 66.631 76.001 66.8491 76.2023C67.0672 76.3994 67.193 76.6573 67.2266 76.9761H66.6163C66.5954 76.8293 66.5304 76.6972 66.4213 76.5797C66.3123 76.4581 66.1676 76.3784 65.9872 76.3407V77.8757C66.264 77.947 66.4884 78.0204 66.6604 78.0959C66.8365 78.1672 66.9833 78.2825 67.1007 78.4419C67.2224 78.6013 67.2832 78.8173 67.2832 79.0899ZM64.9303 77.039C64.9303 77.2445 64.9911 77.4018 65.1128 77.5108C65.2344 77.6199 65.4126 77.7101 65.6475 77.7813V76.3281C65.4294 76.3491 65.2554 76.4204 65.1253 76.542C64.9953 76.6594 64.9303 76.8251 64.9303 77.039ZM65.9872 79.8637C66.2137 79.8385 66.3899 79.7568 66.5157 79.6184C66.6457 79.48 66.7107 79.3143 66.7107 79.1214C66.7107 78.9158 66.6478 78.7586 66.522 78.6495C66.3961 78.5363 66.2179 78.4461 65.9872 78.379V79.8637ZM68.1204 76.2652V75.743H69.3031V80.2915H68.7243V76.2652H68.1204ZM74.8286 75.9381V80.2915H74.2562V77.0453L72.8092 80.2915H72.4066L70.9533 77.039V80.2915H70.3808V75.9381H70.9974L72.6079 79.5366L74.2184 75.9381H74.8286Z" fill="white"/>
<path d="M67.2832 105.67C67.2832 105.871 67.2329 106.064 67.1322 106.249C67.0315 106.429 66.8827 106.58 66.6855 106.702C66.4926 106.823 66.2598 106.893 65.9872 106.909V107.419H65.6475V106.909C65.2658 106.876 64.9555 106.754 64.7164 106.544C64.4774 106.331 64.3557 106.06 64.3515 105.733H64.9618C64.9785 105.909 65.0436 106.062 65.1568 106.192C65.2742 106.322 65.4378 106.404 65.6475 106.437V104.865C65.3665 104.793 65.14 104.72 64.9681 104.645C64.7961 104.569 64.6493 104.452 64.5277 104.292C64.4061 104.133 64.3452 103.919 64.3452 103.651C64.3452 103.311 64.4627 103.03 64.6975 102.808C64.9366 102.585 65.2533 102.462 65.6475 102.436V101.914H65.9872V102.436C66.3437 102.466 66.631 102.581 66.8491 102.782C67.0672 102.979 67.193 103.237 67.2266 103.556H66.6163C66.5954 103.409 66.5304 103.277 66.4213 103.16C66.3123 103.038 66.1676 102.959 65.9872 102.921V104.456C66.264 104.527 66.4884 104.6 66.6604 104.676C66.8365 104.747 66.9833 104.863 67.1007 105.022C67.2224 105.181 67.2832 105.397 67.2832 105.67ZM64.9303 103.619C64.9303 103.825 64.9911 103.982 65.1128 104.091C65.2344 104.2 65.4126 104.29 65.6475 104.361V102.908C65.4294 102.929 65.2554 103 65.1253 103.122C64.9953 103.24 64.9303 103.405 64.9303 103.619ZM65.9872 106.444C66.2137 106.419 66.3899 106.337 66.5157 106.198C66.6457 106.06 66.7107 105.894 66.7107 105.701C66.7107 105.496 66.6478 105.339 66.522 105.23C66.3961 105.116 66.2179 105.026 65.9872 104.959V106.444ZM68.2713 104.55C68.2713 103.829 68.3888 103.267 68.6236 102.864C68.8585 102.457 69.2695 102.254 69.8567 102.254C70.4397 102.254 70.8486 102.457 71.0835 102.864C71.3183 103.267 71.4358 103.829 71.4358 104.55C71.4358 105.284 71.3183 105.855 71.0835 106.261C70.8486 106.668 70.4397 106.872 69.8567 106.872C69.2695 106.872 68.8585 106.668 68.6236 106.261C68.3888 105.855 68.2713 105.284 68.2713 104.55ZM70.8696 104.55C70.8696 104.185 70.8444 103.877 70.7941 103.625C70.7479 103.37 70.6494 103.164 70.4984 103.009C70.3516 102.854 70.1377 102.776 69.8567 102.776C69.5715 102.776 69.3534 102.854 69.2024 103.009C69.0556 103.164 68.9571 103.37 68.9067 103.625C68.8606 103.877 68.8375 104.185 68.8375 104.55C68.8375 104.928 68.8606 105.244 68.9067 105.5C68.9571 105.756 69.0556 105.961 69.2024 106.117C69.3534 106.272 69.5715 106.349 69.8567 106.349C70.1377 106.349 70.3516 106.272 70.4984 106.117C70.6494 105.961 70.7479 105.756 70.7941 105.5C70.8444 105.244 70.8696 104.928 70.8696 104.55Z" fill="white"/>
<path d="M66.8428 130.904V131.388H64.3327V130.904H66.8428ZM70.7482 132.25C70.7482 132.451 70.6979 132.644 70.5972 132.829C70.4966 133.009 70.3477 133.16 70.1506 133.282C69.9576 133.403 69.7249 133.472 69.4522 133.489V133.999H69.1125V133.489C68.7309 133.456 68.4205 133.334 68.1814 133.124C67.9424 132.91 67.8208 132.64 67.8166 132.313H68.4268C68.4436 132.489 68.5086 132.642 68.6218 132.772C68.7393 132.902 68.9028 132.984 69.1125 133.017V131.445C68.8315 131.373 68.605 131.3 68.4331 131.224C68.2611 131.149 68.1143 131.031 67.9927 130.872C67.8711 130.713 67.8103 130.499 67.8103 130.23C67.8103 129.891 67.9277 129.61 68.1626 129.387C68.4016 129.165 68.7183 129.041 69.1125 129.016V128.494H69.4522V129.016C69.8087 129.046 70.096 129.161 70.3141 129.362C70.5322 129.559 70.658 129.817 70.6916 130.136H70.0814C70.0604 129.989 69.9954 129.857 69.8863 129.74C69.7773 129.618 69.6326 129.538 69.4522 129.501V131.036C69.7291 131.107 69.9534 131.18 70.1254 131.256C70.3015 131.327 70.4483 131.442 70.5658 131.602C70.6874 131.761 70.7482 131.977 70.7482 132.25ZM68.3953 130.199C68.3953 130.404 68.4562 130.562 68.5778 130.671C68.6994 130.78 68.8777 130.87 69.1125 130.941V129.488C68.8944 129.509 68.7204 129.58 68.5904 129.702C68.4603 129.819 68.3953 129.985 68.3953 130.199ZM69.4522 133.024C69.6787 132.998 69.8549 132.917 69.9807 132.778C70.1107 132.64 70.1757 132.474 70.1757 132.281C70.1757 132.076 70.1128 131.918 69.987 131.809C69.8612 131.696 69.6829 131.606 69.4522 131.539V133.024ZM71.5854 129.425V128.903H72.7681V133.451H72.1893V129.425H71.5854ZM78.2937 129.098V133.451H77.7212V130.205L76.2742 133.451H75.8716L74.4183 130.199V133.451H73.8459V129.098H74.4624L76.0729 132.696L77.6834 129.098H78.2937Z" fill="white"/>
<path d="M91.2793 84.5439C95.9034 80.0042 102.014 76.7917 108.71 78.3788C112.403 79.3609 116.622 83.0347 119.805 83.7482C122.517 84.3608 124.232 82.9698 125.862 80.4357C127.492 77.8469 128.679 74.5531 130.173 71.8053C133.026 65.4832 136.665 60.0629 144.058 57.8597C151.988 55.4962 157.514 64.4566 164.614 63.0186C172.623 61.1847 178.57 44.6621 186.807 43.2147C190.823 42.5051 198.092 49.372 201.879 47.8449C209.881 44.9907 216.785 29.11 225.093 38.6354C229.229 43.2842 230.232 50.6043 235.153 54.5231C242.539 59.0727 246.224 48.637 247.613 43.2147C249.131 36.6703 256.544 23.6065 265.33 31.9167C268.851 35.3094 269.012 36.516 272.747 39.2682C279.988 43.6255 288.129 22.1178 297.056 23.7484" stroke="#4C57FF" stroke-width="1.5" stroke-miterlimit="10" stroke-linecap="round"/>
<path opacity="0.24" d="M297.628 130.242H91.2793V84.1379C95.9421 79.6316 102.1 76.4353 108.849 78.0149C112.572 78.9905 116.821 82.642 120.036 83.3481C122.772 83.9521 124.502 82.577 126.147 80.059C127.792 77.4852 128.986 74.2147 130.49 71.483C133.367 65.202 137.079 59.8294 144.488 57.6295C152.476 55.2577 158.053 64.1799 165.208 62.749C173.283 60.9279 179.271 44.5193 187.582 43.0791C191.633 42.3729 197.453 48.8396 201.27 47.3158C209.336 44.4819 217.805 29.0676 226.172 38.5263C230.337 43.1441 231.352 50.41 236.315 54.3031C243.761 58.8188 247.502 44.9931 248.903 39.6041C250.436 33.1001 255.341 23.618 264.196 31.8687C267.741 35.2415 270.018 35.4322 273.787 38.1639C282.029 43.0593 288.9 20.548 297.628 22.1128V130.242Z" fill="url(#paint0_linear_4046_2128)"/>
</g>
<g filter="url(#filter1_b_4046_2128)">
<rect x="0.615234" y="100" width="159.819" height="77.5" rx="12" fill="#F3F5FF" fill-opacity="0.22"/>
<path d="M32.7531 116.66V121.976C32.7531 122.608 32.9171 123.084 33.2451 123.404C33.5811 123.724 34.0451 123.884 34.6371 123.884C35.2371 123.884 35.7011 123.724 36.0291 123.404C36.3651 123.084 36.5331 122.608 36.5331 121.976V116.66H37.9011V121.952C37.9011 122.632 37.7531 123.208 37.4571 123.68C37.1611 124.152 36.7651 124.504 36.2691 124.736C35.7731 124.968 35.2251 125.084 34.6251 125.084C34.0251 125.084 33.4771 124.968 32.9811 124.736C32.4931 124.504 32.1051 124.152 31.8171 123.68C31.5291 123.208 31.3851 122.632 31.3851 121.952V116.66H32.7531ZM41.0502 119.36C41.2822 119.056 41.5982 118.8 41.9982 118.592C42.3982 118.384 42.8502 118.28 43.3542 118.28C43.9302 118.28 44.4542 118.424 44.9262 118.712C45.4062 118.992 45.7822 119.388 46.0542 119.9C46.3262 120.412 46.4622 121 46.4622 121.664C46.4622 122.328 46.3262 122.924 46.0542 123.452C45.7822 123.972 45.4062 124.38 44.9262 124.676C44.4542 124.964 43.9302 125.108 43.3542 125.108C42.8502 125.108 42.4022 125.008 42.0102 124.808C41.6182 124.6 41.2982 124.344 41.0502 124.04V128.144H39.6822V118.388H41.0502V119.36ZM45.0702 121.664C45.0702 121.208 44.9742 120.816 44.7822 120.488C44.5982 120.152 44.3502 119.9 44.0382 119.732C43.7342 119.556 43.4062 119.468 43.0542 119.468C42.7102 119.468 42.3822 119.556 42.0702 119.732C41.7662 119.908 41.5182 120.164 41.3262 120.5C41.1422 120.836 41.0502 121.232 41.0502 121.688C41.0502 122.144 41.1422 122.544 41.3262 122.888C41.5182 123.224 41.7662 123.48 42.0702 123.656C42.3822 123.832 42.7102 123.92 43.0542 123.92C43.4062 123.92 43.7342 123.832 44.0382 123.656C44.3502 123.472 44.5982 123.208 44.7822 122.864C44.9742 122.52 45.0702 122.12 45.0702 121.664ZM47.359 121.688C47.359 121.008 47.495 120.412 47.767 119.9C48.047 119.38 48.431 118.98 48.919 118.7C49.407 118.42 49.967 118.28 50.599 118.28C51.399 118.28 52.059 118.472 52.579 118.856C53.107 119.232 53.463 119.772 53.647 120.476H52.171C52.051 120.148 51.859 119.892 51.595 119.708C51.331 119.524 50.999 119.432 50.599 119.432C50.039 119.432 49.591 119.632 49.255 120.032C48.927 120.424 48.763 120.976 48.763 121.688C48.763 122.4 48.927 122.956 49.255 123.356C49.591 123.756 50.039 123.956 50.599 123.956C51.391 123.956 51.915 123.608 52.171 122.912H53.647C53.455 123.584 53.095 124.12 52.567 124.52C52.039 124.912 51.383 125.108 50.599 125.108C49.967 125.108 49.407 124.968 48.919 124.688C48.431 124.4 48.047 124 47.767 123.488C47.495 122.968 47.359 122.368 47.359 121.688ZM57.8784 125.108C57.2544 125.108 56.6904 124.968 56.1864 124.688C55.6824 124.4 55.2864 124 54.9984 123.488C54.7104 122.968 54.5664 122.368 54.5664 121.688C54.5664 121.016 54.7144 120.42 55.0104 119.9C55.3064 119.38 55.7104 118.98 56.2224 118.7C56.7344 118.42 57.3064 118.28 57.9384 118.28C58.5704 118.28 59.1424 118.42 59.6544 118.7C60.1664 118.98 60.5704 119.38 60.8664 119.9C61.1624 120.42 61.3104 121.016 61.3104 121.688C61.3104 122.36 61.1584 122.956 60.8544 123.476C60.5504 123.996 60.1344 124.4 59.6064 124.688C59.0864 124.968 58.5104 125.108 57.8784 125.108ZM57.8784 123.92C58.2304 123.92 58.5584 123.836 58.8624 123.668C59.1744 123.5 59.4264 123.248 59.6184 122.912C59.8104 122.576 59.9064 122.168 59.9064 121.688C59.9064 121.208 59.8144 120.804 59.6304 120.476C59.4464 120.14 59.2024 119.888 58.8984 119.72C58.5944 119.552 58.2664 119.468 57.9144 119.468C57.5624 119.468 57.2344 119.552 56.9304 119.72C56.6344 119.888 56.3984 120.14 56.2224 120.476C56.0464 120.804 55.9584 121.208 55.9584 121.688C55.9584 122.4 56.1384 122.952 56.4984 123.344C56.8664 123.728 57.3264 123.92 57.8784 123.92ZM70.6667 118.28C71.1867 118.28 71.6507 118.388 72.0587 118.604C72.4747 118.82 72.7987 119.14 73.0307 119.564C73.2707 119.988 73.3907 120.5 73.3907 121.1V125H72.0347V121.304C72.0347 120.712 71.8867 120.26 71.5907 119.948C71.2947 119.628 70.8907 119.468 70.3787 119.468C69.8667 119.468 69.4587 119.628 69.1547 119.948C68.8587 120.26 68.7107 120.712 68.7107 121.304V125H67.3547V121.304C67.3547 120.712 67.2067 120.26 66.9107 119.948C66.6147 119.628 66.2107 119.468 65.6987 119.468C65.1867 119.468 64.7787 119.628 64.4747 119.948C64.1787 120.26 64.0307 120.712 64.0307 121.304V125H62.6627V118.388H64.0307V119.144C64.2547 118.872 64.5387 118.66 64.8827 118.508C65.2267 118.356 65.5947 118.28 65.9867 118.28C66.5147 118.28 66.9867 118.392 67.4027 118.616C67.8187 118.84 68.1387 119.164 68.3627 119.588C68.5627 119.188 68.8747 118.872 69.2987 118.64C69.7227 118.4 70.1787 118.28 70.6667 118.28ZM75.8274 117.512C75.5794 117.512 75.3714 117.428 75.2034 117.26C75.0354 117.092 74.9514 116.884 74.9514 116.636C74.9514 116.388 75.0354 116.18 75.2034 116.012C75.3714 115.844 75.5794 115.76 75.8274 115.76C76.0674 115.76 76.2714 115.844 76.4394 116.012C76.6074 116.18 76.6914 116.388 76.6914 116.636C76.6914 116.884 76.6074 117.092 76.4394 117.26C76.2714 117.428 76.0674 117.512 75.8274 117.512ZM76.4994 118.388V125H75.1314V118.388H76.4994ZM81.6315 118.28C82.1515 118.28 82.6155 118.388 83.0235 118.604C83.4395 118.82 83.7635 119.14 83.9955 119.564C84.2275 119.988 84.3435 120.5 84.3435 121.1V125H82.9875V121.304C82.9875 120.712 82.8395 120.26 82.5435 119.948C82.2475 119.628 81.8435 119.468 81.3315 119.468C80.8195 119.468 80.4115 119.628 80.1075 119.948C79.8115 120.26 79.6635 120.712 79.6635 121.304V125H78.2955V118.388H79.6635V119.144C79.8875 118.872 80.1715 118.66 80.5155 118.508C80.8675 118.356 81.2395 118.28 81.6315 118.28ZM88.7525 118.28C89.2645 118.28 89.7165 118.384 90.1085 118.592C90.5085 118.792 90.8205 119.044 91.0445 119.348V118.388H92.4245V125.108C92.4245 125.716 92.2965 126.256 92.0405 126.728C91.7845 127.208 91.4125 127.584 90.9245 127.856C90.4445 128.128 89.8685 128.264 89.1965 128.264C88.3005 128.264 87.5565 128.052 86.9645 127.628C86.3725 127.212 86.0365 126.644 85.9565 125.924H87.3125C87.4165 126.268 87.6365 126.544 87.9725 126.752C88.3165 126.968 88.7245 127.076 89.1965 127.076C89.7485 127.076 90.1925 126.908 90.5285 126.572C90.8725 126.236 91.0445 125.748 91.0445 125.108V124.004C90.8125 124.316 90.4965 124.58 90.0965 124.796C89.7045 125.004 89.2565 125.108 88.7525 125.108C88.1765 125.108 87.6485 124.964 87.1685 124.676C86.6965 124.38 86.3205 123.972 86.0405 123.452C85.7685 122.924 85.6325 122.328 85.6325 121.664C85.6325 121 85.7685 120.412 86.0405 119.9C86.3205 119.388 86.6965 118.992 87.1685 118.712C87.6485 118.424 88.1765 118.28 88.7525 118.28ZM91.0445 121.688C91.0445 121.232 90.9485 120.836 90.7565 120.5C90.5725 120.164 90.3285 119.908 90.0245 119.732C89.7205 119.556 89.3925 119.468 89.0405 119.468C88.6885 119.468 88.3605 119.556 88.0565 119.732C87.7525 119.9 87.5045 120.152 87.3125 120.488C87.1285 120.816 87.0365 121.208 87.0365 121.664C87.0365 122.12 87.1285 122.52 87.3125 122.864C87.5045 123.208 87.7525 123.472 88.0565 123.656C88.3685 123.832 88.6965 123.92 89.0405 123.92C89.3925 123.92 89.7205 123.832 90.0245 123.656C90.3285 123.48 90.5725 123.224 90.7565 122.888C90.9485 122.544 91.0445 122.144 91.0445 121.688ZM100.11 119.504H98.8865V125H97.5065V119.504H96.7265V118.388H97.5065V117.92C97.5065 117.16 97.7065 116.608 98.1065 116.264C98.5145 115.912 99.1505 115.736 100.014 115.736V116.876C99.5985 116.876 99.3065 116.956 99.1385 117.116C98.9705 117.268 98.8865 117.536 98.8865 117.92V118.388H100.11V119.504ZM107.311 118.388V125H105.943V124.22C105.727 124.492 105.443 124.708 105.091 124.868C104.747 125.02 104.379 125.096 103.987 125.096C103.467 125.096 102.999 124.988 102.583 124.772C102.175 124.556 101.851 124.236 101.611 123.812C101.379 123.388 101.263 122.876 101.263 122.276V118.388H102.619V122.072C102.619 122.664 102.767 123.12 103.063 123.44C103.359 123.752 103.763 123.908 104.275 123.908C104.787 123.908 105.191 123.752 105.487 123.44C105.791 123.12 105.943 122.664 105.943 122.072V118.388H107.311ZM112.452 118.28C112.972 118.28 113.436 118.388 113.844 118.604C114.26 118.82 114.584 119.14 114.816 119.564C115.048 119.988 115.164 120.5 115.164 121.1V125H113.808V121.304C113.808 120.712 113.66 120.26 113.364 119.948C113.068 119.628 112.664 119.468 112.152 119.468C111.64 119.468 111.232 119.628 110.928 119.948C110.632 120.26 110.484 120.712 110.484 121.304V125H109.116V118.388H110.484V119.144C110.708 118.872 110.992 118.66 111.336 118.508C111.688 118.356 112.06 118.28 112.452 118.28ZM116.453 121.664C116.453 121 116.589 120.412 116.861 119.9C117.141 119.388 117.517 118.992 117.989 118.712C118.469 118.424 119.001 118.28 119.585 118.28C120.017 118.28 120.441 118.376 120.857 118.568C121.281 118.752 121.617 119 121.865 119.312V116.12H123.245V125H121.865V124.004C121.641 124.324 121.329 124.588 120.929 124.796C120.537 125.004 120.085 125.108 119.573 125.108C118.997 125.108 118.469 124.964 117.989 124.676C117.517 124.38 117.141 123.972 116.861 123.452C116.589 122.924 116.453 122.328 116.453 121.664ZM121.865 121.688C121.865 121.232 121.769 120.836 121.577 120.5C121.393 120.164 121.149 119.908 120.845 119.732C120.541 119.556 120.213 119.468 119.861 119.468C119.509 119.468 119.181 119.556 118.877 119.732C118.573 119.9 118.325 120.152 118.133 120.488C117.949 120.816 117.857 121.208 117.857 121.664C117.857 122.12 117.949 122.52 118.133 122.864C118.325 123.208 118.573 123.472 118.877 123.656C119.189 123.832 119.517 123.92 119.861 123.92C120.213 123.92 120.541 123.832 120.845 123.656C121.149 123.48 121.393 123.224 121.577 122.888C121.769 122.544 121.865 122.144 121.865 121.688ZM127.442 125.108C126.922 125.108 126.454 125.016 126.038 124.832C125.63 124.64 125.306 124.384 125.066 124.064C124.826 123.736 124.698 123.372 124.682 122.972H126.098C126.122 123.252 126.254 123.488 126.494 123.68C126.742 123.864 127.05 123.956 127.418 123.956C127.802 123.956 128.098 123.884 128.306 123.74C128.522 123.588 128.63 123.396 128.63 123.164C128.63 122.916 128.51 122.732 128.27 122.612C128.038 122.492 127.666 122.36 127.154 122.216C126.658 122.08 126.254 121.948 125.942 121.82C125.63 121.692 125.358 121.496 125.126 121.232C124.902 120.968 124.79 120.62 124.79 120.188C124.79 119.836 124.894 119.516 125.102 119.228C125.31 118.932 125.606 118.7 125.99 118.532C126.382 118.364 126.83 118.28 127.334 118.28C128.086 118.28 128.69 118.472 129.146 118.856C129.61 119.232 129.858 119.748 129.89 120.404H128.522C128.498 120.108 128.378 119.872 128.162 119.696C127.946 119.52 127.654 119.432 127.286 119.432C126.926 119.432 126.65 119.5 126.458 119.636C126.266 119.772 126.17 119.952 126.17 120.176C126.17 120.352 126.234 120.5 126.362 120.62C126.49 120.74 126.646 120.836 126.83 120.908C127.014 120.972 127.286 121.056 127.646 121.16C128.126 121.288 128.518 121.42 128.822 121.556C129.134 121.684 129.402 121.876 129.626 122.132C129.85 122.388 129.966 122.728 129.974 123.152C129.974 123.528 129.87 123.864 129.662 124.16C129.454 124.456 129.158 124.688 128.774 124.856C128.398 125.024 127.954 125.108 127.442 125.108Z" fill="#F2F2F3"/>
<path d="M21.8535 146.047H25.2471" stroke="#4C57FF" stroke-width="1.46107" stroke-linecap="round" stroke-linejoin="round"/>
<path d="M25.2529 146.12C26.9805 147.321 29.9557 150.82 29.9557 153.419C29.9557 156.05 28.8537 158.182 23.5247 158.182C18.1957 158.182 17.0938 156.05 17.0938 153.419C17.0938 150.82 20.069 147.321 21.7965 146.12C21.3663 145.3 18.9382 144.015 19.269 142.995C19.7675 141.458 27.2402 141.394 27.7751 142.994C28.1153 144.012 25.6819 145.301 25.2529 146.12Z" stroke="#4C57FF" stroke-width="1.46107" stroke-linecap="round" stroke-linejoin="round"/>
<path d="M23.4863 149.705V148.657" stroke="#4C57FF" stroke-width="1.46107" stroke-linecap="round" stroke-linejoin="round"/>
<path d="M25.224 149.704H22.6714C22.4235 149.704 22.1858 149.803 22.0106 149.979C21.8353 150.154 21.7368 150.393 21.7368 150.641C21.7354 150.828 21.7906 151.011 21.8952 151.166C21.9999 151.321 22.1489 151.44 22.3227 151.508L24.6381 152.088C24.8426 152.167 25.0129 152.316 25.1191 152.508C25.2253 152.7 25.2608 152.924 25.2192 153.14C25.1777 153.356 25.0618 153.55 24.8918 153.689C24.7218 153.827 24.5086 153.902 24.2894 153.899H21.7368" stroke="#4C57FF" stroke-width="1.46107" stroke-linecap="round" stroke-linejoin="round"/>
<path d="M23.479 154.948V153.899" stroke="#4C57FF" stroke-width="1.46107" stroke-linecap="round" stroke-linejoin="round"/>
<path d="M44.7061 159.488V157.22C43.2781 156.968 42.2421 156.52 41.7381 156.52C41.3181 156.52 41.2341 156.772 41.0101 157.36H40.5061L40.2261 151.144H40.8421C41.5701 153.692 42.6901 155.624 44.7061 156.324V148.82C42.1021 147.952 40.5341 146.58 40.5341 143.724C40.5341 141.316 41.9061 138.964 44.7061 138.32V135.94H45.5741V138.18C45.7701 138.18 45.9661 138.152 46.1901 138.152C46.5541 138.152 46.8901 138.18 47.2261 138.236V135.94H48.0941V138.376C49.1301 138.628 49.8301 139.02 50.3901 139.02C50.7821 139.02 50.8941 138.824 51.0901 138.46H51.5101L51.6501 143.724H51.0621C50.4181 141.54 49.5781 139.972 48.0941 139.3V145.852C50.5301 146.664 52.6581 147.98 52.6581 151.368C52.6581 154.28 51.0061 156.576 48.0941 157.192V159.488H47.2261V157.332C46.9741 157.36 46.6941 157.36 46.4421 157.36C46.1341 157.36 45.8541 157.36 45.5741 157.332V159.488H44.7061ZM50.8101 152.964C50.8101 151.368 49.8301 150.528 48.0941 149.856V156.352C49.7461 155.876 50.8101 154.672 50.8101 152.964ZM46.4701 156.576C46.7221 156.576 46.9741 156.576 47.2261 156.548V149.548C46.7221 149.38 46.1621 149.24 45.5741 149.1V156.52C45.8541 156.548 46.1341 156.576 46.4701 156.576ZM45.5741 145.124L47.2261 145.6V139.048C46.8901 138.964 46.5541 138.936 46.1901 138.936C45.9661 138.936 45.7701 138.964 45.5741 138.964V145.124ZM42.4661 141.932C42.4661 143.444 43.3341 144.228 44.7061 144.816V139.132C43.2501 139.524 42.4661 140.56 42.4661 141.932ZM61.2101 137.592C64.8221 137.592 66.9221 139.244 66.9221 141.932C66.9221 144.284 65.1581 145.852 62.1341 146.776C66.1381 147.308 67.9021 149.296 67.9021 151.956C67.9021 155.512 64.8221 157.78 60.3141 157.78C57.5981 157.78 54.9381 156.716 54.9381 154C54.9381 152.712 55.6101 151.788 56.8421 151.788C57.9061 151.788 58.6621 152.432 58.6621 153.468C58.6621 153.916 58.5781 154.364 58.4381 154.784H57.5701C57.4861 155.008 57.4301 155.204 57.4301 155.4C57.4301 156.296 58.6061 156.912 60.2861 156.912C62.9741 156.912 64.1781 155.288 64.1781 152.04C64.1781 149.072 62.8341 147.924 61.1821 147.252C60.2861 147.448 59.6421 147.56 58.5221 147.672L58.4381 146.832C61.5181 146.58 63.3941 145.796 63.3941 142.1C63.3941 139.412 62.4141 138.46 60.5661 138.46C58.9981 138.46 58.0741 139.188 58.0741 140.056C58.0741 140.224 58.1021 140.392 58.1581 140.56H58.9421C59.0821 140.924 59.1661 141.372 59.1661 141.764C59.1661 142.744 58.4381 143.36 57.4581 143.36C56.2541 143.36 55.6661 142.52 55.6661 141.316C55.6661 138.88 58.2141 137.592 61.2101 137.592ZM72.1163 154.924C72.1163 152.88 73.0963 150.948 77.1283 145.096L80.2083 140.616H73.6283C70.9963 140.616 70.6603 140.98 70.1843 143.444H69.5963L69.8203 137.9H81.9163V139.356L80.2363 142.436C76.0923 150.164 75.7003 152.908 75.7003 154.784C75.7003 155.68 75.8963 156.296 76.2883 156.996L75.6163 157.752C73.3203 157.864 72.1163 156.744 72.1163 154.924ZM82.8887 147.672C82.8887 140.364 86.2487 137.592 90.3087 137.592C94.4247 137.592 97.7007 140.308 97.7007 147.672C97.7007 155.036 94.3407 157.78 90.3087 157.78C85.2687 157.78 82.8887 153.524 82.8887 147.672ZM86.6407 147.728C86.6407 154.504 87.4807 156.912 90.3087 156.912C93.1927 156.912 93.9767 154.476 93.9767 147.756C93.9767 141.008 93.0527 138.46 90.3087 138.46C87.6207 138.46 86.6407 141.064 86.6407 147.728ZM100.781 161.84L100.361 161.308C102.461 159.404 102.713 158.34 102.713 157.556C102.713 156.94 102.461 156.632 102.097 156.576L101.061 157.528C100.389 157.304 99.6049 156.632 99.6049 155.54C99.6049 154.336 100.557 153.58 101.621 153.58C103.357 153.58 104.085 154.952 104.085 156.548C104.085 158.508 103.133 160.048 100.781 161.84ZM109.736 138.852L106.292 139.16L106.208 138.348L111.976 137.592H113.292V156.688H115.98V157.5H106.6V156.688H109.736V138.852ZM130.832 146.804C130.832 154.224 127.808 157.78 123.048 157.78C119.828 157.78 118.204 155.96 118.204 154.196C118.204 152.824 118.904 151.928 120.052 151.928C121.088 151.928 121.872 152.544 121.872 153.72C121.872 154.056 121.816 154.364 121.732 154.672H120.92C120.78 154.952 120.724 155.232 120.724 155.456C120.724 156.324 121.62 156.912 123.02 156.912C125.82 156.912 127.22 154.616 127.22 148.092C126.324 149.52 124.924 150.276 122.964 150.276C119.884 150.276 117.448 148.288 117.448 144.088C117.448 140 120.108 137.62 124.196 137.62C128.368 137.62 130.832 140.42 130.832 146.804ZM126.688 147.42C127.052 146.776 127.164 146.104 127.164 144.508C127.164 140.504 126.548 138.488 124.14 138.488C121.648 138.488 121.06 140.504 121.06 143.724C121.06 147.784 121.788 149.24 123.664 149.24C125.064 149.24 126.016 148.54 126.688 147.42ZM132.654 147.672C132.654 140.364 136.014 137.592 140.074 137.592C144.19 137.592 147.466 140.308 147.466 147.672C147.466 155.036 144.106 157.78 140.074 157.78C135.034 157.78 132.654 153.524 132.654 147.672ZM136.406 147.728C136.406 154.504 137.246 156.912 140.074 156.912C142.958 156.912 143.742 154.476 143.742 147.756C143.742 141.008 142.818 138.46 140.074 138.46C137.386 138.46 136.406 141.064 136.406 147.728Z" fill="white"/>
</g>
<defs>
<filter id="filter0_b_4046_2128" x="38.3077" y="-18.1107" width="322.445" height="211.221" filterUnits="userSpaceOnUse" color-interpolation-filters="sRGB">
<feFlood flood-opacity="0" result="BackgroundImageFix"/>
<feGaussianBlur in="BackgroundImageFix" stdDeviation="9.05537"/>
<feComposite in2="SourceAlpha" operator="in" result="effect1_backgroundBlur_4046_2128"/>
<feBlend mode="normal" in="SourceGraphic" in2="effect1_backgroundBlur_4046_2128" result="shape"/>
</filter>
<filter id="filter1_b_4046_2128" x="-38.1748" y="61.21" width="237.399" height="155.08" filterUnits="userSpaceOnUse" color-interpolation-filters="sRGB">
<feFlood flood-opacity="0" result="BackgroundImageFix"/>
<feGaussianBlur in="BackgroundImageFix" stdDeviation="19.395"/>
<feComposite in2="SourceAlpha" operator="in" result="effect1_backgroundBlur_4046_2128"/>
<feBlend mode="normal" in="SourceGraphic" in2="effect1_backgroundBlur_4046_2128" result="shape"/>
</filter>
<linearGradient id="paint0_linear_4046_2128" x1="194.418" y1="46.0001" x2="194.454" y2="130.242" gradientUnits="userSpaceOnUse">
<stop stop-color="#4C57FF"/>
<stop offset="1" stop-color="#4C57FF" stop-opacity="0.11"/>
</linearGradient>
</defs>
</svg>
