<svg width="235" height="131" viewBox="0 0 235 131" fill="none" xmlns="http://www.w3.org/2000/svg">
<path d="M4.28319 13.93C4.28319 14.1313 4.23286 14.3242 4.1322 14.5088C4.03155 14.6891 3.88266 14.8401 3.68553 14.9617C3.49261 15.0834 3.25984 15.1526 2.98722 15.1693V15.6789H2.6475V15.1693C2.26584 15.1358 1.95548 15.0142 1.71642 14.8045C1.47735 14.5906 1.35573 14.32 1.35153 13.9929H1.96177C1.97855 14.1691 2.04355 14.3221 2.15679 14.4522C2.27423 14.5822 2.4378 14.664 2.6475 14.6975V13.1247C2.3665 13.0534 2.14002 12.98 1.96806 12.9045C1.7961 12.829 1.64931 12.7116 1.52768 12.5522C1.40605 12.3929 1.34524 12.179 1.34524 11.9105C1.34524 11.5708 1.46267 11.2898 1.69754 11.0675C1.9366 10.8452 2.25326 10.7215 2.6475 10.6964V10.1742H2.98722V10.6964C3.34372 10.7257 3.63101 10.8411 3.8491 11.0424C4.0672 11.2395 4.19302 11.4974 4.22657 11.8162H3.61633C3.59536 11.6694 3.53035 11.5373 3.42131 11.4198C3.31226 11.2982 3.16757 11.2185 2.98722 11.1808V12.7158C3.26403 12.7871 3.48841 12.8605 3.66037 12.936C3.83652 13.0073 3.98331 13.1226 4.10075 13.282C4.22238 13.4414 4.28319 13.6574 4.28319 13.93ZM1.93031 11.8791C1.93031 12.0846 1.99113 12.2419 2.11276 12.3509C2.23438 12.46 2.41263 12.5501 2.6475 12.6214V11.1682C2.42941 11.1892 2.25535 11.2605 2.12534 11.3821C1.99532 11.4995 1.93031 11.6652 1.93031 11.8791ZM2.98722 14.7038C3.2137 14.6786 3.38985 14.5968 3.51567 14.4584C3.64569 14.32 3.7107 14.1544 3.7107 13.9614C3.7107 13.7559 3.64779 13.5987 3.52197 13.4896C3.39614 13.3764 3.21789 13.2862 2.98722 13.2191V14.7038ZM5.25875 11.7281C5.28811 11.3422 5.437 11.0403 5.70542 10.8222C5.97384 10.6041 6.32195 10.495 6.74975 10.495C7.03495 10.495 7.2803 10.5475 7.48581 10.6523C7.69551 10.753 7.85279 10.8914 7.95764 11.0675C8.06669 11.2437 8.12121 11.4429 8.12121 11.6652C8.12121 11.9252 8.04572 12.1496 7.89473 12.3383C7.74794 12.5271 7.55501 12.6487 7.31595 12.7032V12.7347C7.58856 12.8018 7.80456 12.9339 7.96393 13.131C8.12331 13.3281 8.203 13.5861 8.203 13.9048C8.203 14.1439 8.14847 14.3599 8.03943 14.5528C7.93038 14.7415 7.76681 14.8904 7.54872 14.9995C7.33063 15.1085 7.0685 15.163 6.76233 15.163C6.31776 15.163 5.95287 15.0477 5.66768 14.817C5.38248 14.5822 5.2231 14.2508 5.18955 13.823H5.74317C5.77253 14.0747 5.87528 14.2802 6.05143 14.4396C6.22759 14.5989 6.46245 14.6786 6.75604 14.6786C7.04962 14.6786 7.27191 14.6031 7.4229 14.4522C7.57808 14.297 7.65567 14.0978 7.65567 13.8545C7.65567 13.5399 7.55082 13.3135 7.34111 13.1751C7.13141 13.0367 6.81476 12.9674 6.39115 12.9674H6.24646V12.4893H6.39745C6.7833 12.4851 7.07479 12.4222 7.27191 12.3006C7.46903 12.1748 7.56759 11.9818 7.56759 11.7218C7.56759 11.4995 7.4942 11.3213 7.3474 11.1871C7.20481 11.0529 6.9993 10.9857 6.73087 10.9857C6.47084 10.9857 6.26114 11.0529 6.10176 11.1871C5.94239 11.3213 5.84802 11.5016 5.81866 11.7281H5.25875ZM13.5181 10.7781V15.1316H12.9457V11.8854L11.4987 15.1316H11.0961L9.64282 11.8791V15.1316H9.07033V10.7781H9.68686L11.2974 14.3767L12.9079 10.7781H13.5181Z" fill="white"/>
<path d="M4.28319 40.5101C4.28319 40.7114 4.23286 40.9043 4.1322 41.0888C4.03155 41.2692 3.88266 41.4202 3.68553 41.5418C3.49261 41.6634 3.25984 41.7326 2.98722 41.7494V42.259H2.6475V41.7494C2.26584 41.7159 1.95548 41.5942 1.71642 41.3845C1.47735 41.1706 1.35573 40.9001 1.35153 40.573H1.96177C1.97855 40.7491 2.04355 40.9022 2.15679 41.0322C2.27423 41.1622 2.4378 41.244 2.6475 41.2776V39.7048C2.3665 39.6335 2.14002 39.5601 1.96806 39.4846C1.7961 39.4091 1.64931 39.2917 1.52768 39.1323C1.40605 38.9729 1.34524 38.759 1.34524 38.4906C1.34524 38.1509 1.46267 37.8699 1.69754 37.6476C1.9366 37.4253 2.25326 37.3016 2.6475 37.2764V36.7543H2.98722V37.2764C3.34372 37.3058 3.63101 37.4211 3.8491 37.6224C4.0672 37.8196 4.19302 38.0775 4.22657 38.3963H3.61633C3.59536 38.2495 3.53035 38.1173 3.42131 37.9999C3.31226 37.8783 3.16757 37.7986 2.98722 37.7609V39.2959C3.26403 39.3672 3.48841 39.4406 3.66037 39.5161C3.83652 39.5874 3.98331 39.7027 4.10075 39.8621C4.22238 40.0215 4.28319 40.2375 4.28319 40.5101ZM1.93031 38.4592C1.93031 38.6647 1.99113 38.822 2.11276 38.931C2.23438 39.04 2.41263 39.1302 2.6475 39.2015V37.7483C2.42941 37.7692 2.25535 37.8405 2.12534 37.9622C1.99532 38.0796 1.93031 38.2453 1.93031 38.4592ZM2.98722 41.2839C3.2137 41.2587 3.38985 41.1769 3.51567 41.0385C3.64569 40.9001 3.7107 40.7345 3.7107 40.5415C3.7107 40.336 3.64779 40.1787 3.52197 40.0697C3.39614 39.9564 3.21789 39.8663 2.98722 39.7992V41.2839ZM5.20213 41.2524C5.73478 40.8246 6.15209 40.4744 6.45407 40.2018C6.75604 39.925 7.00978 39.6377 7.21529 39.3399C7.42499 39.0379 7.52985 38.7423 7.52985 38.4529C7.52985 38.1803 7.46274 37.9664 7.32853 37.8112C7.19851 37.6518 6.98671 37.5721 6.69313 37.5721C6.40793 37.5721 6.18565 37.6623 6.02627 37.8426C5.87109 38.0188 5.78721 38.2558 5.77463 38.5535H5.22101C5.23778 38.0838 5.38038 37.721 5.6488 37.4652C5.91722 37.2093 6.26324 37.0814 6.68684 37.0814C7.11883 37.0814 7.46064 37.2009 7.71229 37.44C7.96813 37.6791 8.09605 38.0083 8.09605 38.4277C8.09605 38.7758 7.99119 39.1155 7.78149 39.4469C7.57598 39.774 7.34111 40.0634 7.07689 40.315C6.81266 40.5625 6.47504 40.8519 6.06402 41.1832H8.22816V41.6613H5.20213V41.2524ZM13.4321 37.3582V41.7117H12.8596V38.4655L11.4127 41.7117H11.0101L9.55681 38.4592V41.7117H8.98432V37.3582H9.60085L11.2114 40.9567L12.8219 37.3582H13.4321Z" fill="white"/>
<path d="M4.28319 67.0899C4.28319 67.2912 4.23286 67.4841 4.1322 67.6687C4.03155 67.849 3.88266 68 3.68553 68.1216C3.49261 68.2433 3.25984 68.3125 2.98722 68.3293V68.8388H2.6475V68.3293C2.26584 68.2957 1.95548 68.1741 1.71642 67.9644C1.47735 67.7505 1.35573 67.48 1.35153 67.1528H1.96177C1.97855 67.329 2.04355 67.482 2.15679 67.6121C2.27423 67.7421 2.4378 67.8239 2.6475 67.8574V66.2846C2.3665 66.2133 2.14002 66.1399 1.96806 66.0645C1.7961 65.989 1.64931 65.8715 1.52768 65.7121C1.40605 65.5528 1.34524 65.3389 1.34524 65.0705C1.34524 64.7307 1.46267 64.4497 1.69754 64.2274C1.9366 64.0052 2.25326 63.8814 2.6475 63.8563V63.3341H2.98722V63.8563C3.34372 63.8856 3.63101 64.001 3.8491 64.2023C4.0672 64.3994 4.19302 64.6573 4.22657 64.9761H3.61633C3.59536 64.8293 3.53035 64.6972 3.42131 64.5797C3.31226 64.4581 3.16757 64.3784 2.98722 64.3407V65.8757C3.26403 65.947 3.48841 66.0204 3.66037 66.0959C3.83652 66.1672 3.98331 66.2825 4.10075 66.4419C4.22238 66.6013 4.28319 66.8173 4.28319 67.0899ZM1.93031 65.039C1.93031 65.2445 1.99113 65.4018 2.11276 65.5108C2.23438 65.6199 2.41263 65.7101 2.6475 65.7813V64.3281C2.42941 64.3491 2.25535 64.4204 2.12534 64.542C1.99532 64.6594 1.93031 64.8251 1.93031 65.039ZM2.98722 67.8637C3.2137 67.8385 3.38985 67.7568 3.51567 67.6184C3.64569 67.48 3.7107 67.3143 3.7107 67.1214C3.7107 66.9158 3.64779 66.7586 3.52197 66.6495C3.39614 66.5363 3.21789 66.4461 2.98722 66.379V67.8637ZM5.12035 64.2652V63.743H6.30308V68.2915H5.7243V64.2652H5.12035ZM11.8286 63.9381V68.2915H11.2562V65.0453L9.8092 68.2915H9.40656L7.95332 65.039V68.2915H7.38083V63.9381H7.99735L9.60788 67.5366L11.2184 63.9381H11.8286Z" fill="white"/>
<path d="M4.28319 93.67C4.28319 93.8713 4.23286 94.0642 4.1322 94.2488C4.03155 94.4291 3.88266 94.5801 3.68553 94.7017C3.49261 94.8234 3.25984 94.8926 2.98722 94.9093V95.4189H2.6475V94.9093C2.26584 94.8758 1.95548 94.7541 1.71642 94.5444C1.47735 94.3305 1.35573 94.06 1.35153 93.7329H1.96177C1.97855 93.909 2.04355 94.0621 2.15679 94.1921C2.27423 94.3222 2.4378 94.4039 2.6475 94.4375V92.8647C2.3665 92.7934 2.14002 92.72 1.96806 92.6445C1.7961 92.569 1.64931 92.4516 1.52768 92.2922C1.40605 92.1329 1.34524 91.919 1.34524 91.6505C1.34524 91.3108 1.46267 91.0298 1.69754 90.8075C1.9366 90.5852 2.25326 90.4615 2.6475 90.4363V89.9142H2.98722V90.4363C3.34372 90.4657 3.63101 90.581 3.8491 90.7824C4.0672 90.9795 4.19302 91.2374 4.22657 91.5562H3.61633C3.59536 91.4094 3.53035 91.2773 3.42131 91.1598C3.31226 91.0382 3.16757 90.9585 2.98722 90.9208V92.4558C3.26403 92.5271 3.48841 92.6005 3.66037 92.676C3.83652 92.7473 3.98331 92.8626 4.10075 93.022C4.22238 93.1814 4.28319 93.3974 4.28319 93.67ZM1.93031 91.6191C1.93031 91.8246 1.99113 91.9819 2.11276 92.0909C2.23438 92.2 2.41263 92.2901 2.6475 92.3614V90.9082C2.42941 90.9292 2.25535 91.0005 2.12534 91.1221C1.99532 91.2395 1.93031 91.4052 1.93031 91.6191ZM2.98722 94.4438C3.2137 94.4186 3.38985 94.3368 3.51567 94.1984C3.64569 94.06 3.7107 93.8944 3.7107 93.7014C3.7107 93.4959 3.64779 93.3386 3.52197 93.2296C3.39614 93.1164 3.21789 93.0262 2.98722 92.9591V94.4438ZM5.27134 92.5502C5.27134 91.8288 5.38877 91.2668 5.62364 90.8641C5.85851 90.4573 6.26953 90.2539 6.8567 90.2539C7.43967 90.2539 7.8486 90.4573 8.08346 90.8641C8.31833 91.2668 8.43577 91.8288 8.43577 92.5502C8.43577 93.2841 8.31833 93.8545 8.08346 94.2613C7.8486 94.6682 7.43967 94.8716 6.8567 94.8716C6.26953 94.8716 5.85851 94.6682 5.62364 94.2613C5.38877 93.8545 5.27134 93.2841 5.27134 92.5502ZM7.86957 92.5502C7.86957 92.1853 7.8444 91.877 7.79407 91.6254C7.74794 91.3695 7.64938 91.164 7.49839 91.0088C7.3516 90.8537 7.1377 90.7761 6.8567 90.7761C6.5715 90.7761 6.35341 90.8537 6.20242 91.0088C6.05563 91.164 5.95707 91.3695 5.90674 91.6254C5.8606 91.877 5.83754 92.1853 5.83754 92.5502C5.83754 92.9276 5.8606 93.2443 5.90674 93.5001C5.95707 93.756 6.05563 93.9615 6.20242 94.1166C6.35341 94.2718 6.5715 94.3494 6.8567 94.3494C7.1377 94.3494 7.3516 94.2718 7.49839 94.1166C7.64938 93.9615 7.74794 93.756 7.79407 93.5001C7.8444 93.2443 7.86957 92.9276 7.86957 92.5502Z" fill="white"/>
<path d="M3.84281 118.904V119.388H1.33266V118.904H3.84281ZM7.74822 120.25C7.74822 120.451 7.69789 120.644 7.59723 120.829C7.49657 121.009 7.34768 121.16 7.15056 121.282C6.95763 121.403 6.72486 121.472 6.45225 121.489V121.999H6.11253V121.489C5.73087 121.456 5.42051 121.334 5.18144 121.124C4.94238 120.91 4.82075 120.64 4.81656 120.313H5.4268C5.44357 120.489 5.50858 120.642 5.62182 120.772C5.73925 120.902 5.90282 120.984 6.11253 121.017V119.445C5.83152 119.373 5.60504 119.3 5.43309 119.224C5.26113 119.149 5.11434 119.031 4.99271 118.872C4.87108 118.713 4.81027 118.499 4.81027 118.23C4.81027 117.891 4.9277 117.61 5.16257 117.387C5.40163 117.165 5.71828 117.041 6.11253 117.016V116.494H6.45225V117.016C6.80874 117.046 7.09604 117.161 7.31413 117.362C7.53222 117.559 7.65804 117.817 7.6916 118.136H7.08136C7.06039 117.989 6.99538 117.857 6.88633 117.74C6.77729 117.618 6.63259 117.538 6.45225 117.501V119.036C6.72906 119.107 6.95344 119.18 7.1254 119.256C7.30155 119.327 7.44834 119.442 7.56577 119.602C7.6874 119.761 7.74822 119.977 7.74822 120.25ZM5.39534 118.199C5.39534 118.404 5.45615 118.562 5.57778 118.671C5.69941 118.78 5.87766 118.87 6.11253 118.941V117.488C5.89444 117.509 5.72038 117.58 5.59037 117.702C5.46035 117.819 5.39534 117.985 5.39534 118.199ZM6.45225 121.024C6.67873 120.998 6.85488 120.917 6.9807 120.778C7.11072 120.64 7.17573 120.474 7.17573 120.281C7.17573 120.076 7.11281 119.918 6.98699 119.809C6.86117 119.696 6.68292 119.606 6.45225 119.539V121.024ZM8.58538 117.425V116.903H9.76811V121.451H9.18932V117.425H8.58538ZM15.2937 117.098V121.451H14.7212V118.205L13.2742 121.451H12.8716L11.4183 118.199V121.451H10.8459V117.098H11.4624L13.0729 120.696L14.6834 117.098H15.2937Z" fill="white"/>
<path d="M28.2793 72.5439C32.9034 68.0042 39.0139 64.7917 45.7103 66.3788C49.4032 67.3609 53.6223 71.0347 56.8047 71.7482C59.517 72.3608 61.2317 70.9698 62.8623 68.4357C64.492 65.8469 65.679 62.5531 67.1727 59.8053C70.0261 53.4832 73.6654 48.0629 81.058 45.8597C88.9881 43.4962 94.5141 52.4566 101.614 51.0186C109.623 49.1847 115.57 32.6621 123.807 31.2147C127.823 30.5051 135.092 37.372 138.879 35.8449C146.881 32.9907 153.785 17.11 162.093 26.6354C166.229 31.2842 167.232 38.6043 172.153 42.5231C179.539 47.0727 183.224 36.637 184.613 31.2147C186.131 24.6703 193.544 11.6065 202.33 19.9167C205.851 23.3094 206.012 24.516 209.747 27.2682C216.988 31.6255 225.129 10.1178 234.056 11.7484" stroke="#4C57FF" stroke-width="1.5" stroke-miterlimit="10" stroke-linecap="round"/>
<path opacity="0.24" d="M234.628 118.242H28.2793V72.1379C32.9421 67.6316 39.0997 64.4353 45.8495 66.0149C49.5722 66.9905 53.8214 70.642 57.0365 71.3481C59.7721 71.9521 61.5019 70.577 63.147 68.059C64.7922 65.4852 65.9861 62.2147 67.4902 59.483C70.3669 53.202 74.0792 47.8294 81.4881 45.6295C89.4759 43.2577 95.0535 52.1799 102.208 50.749C110.283 48.9279 116.271 32.5193 124.582 31.0791C128.633 30.3729 134.453 36.8396 138.27 35.3158C146.336 32.4819 154.805 17.0676 163.172 26.5263C167.337 31.1441 168.352 38.41 173.315 42.3031C180.761 46.8188 184.502 32.9931 185.903 27.6041C187.436 21.1001 192.341 11.618 201.196 19.8687C204.741 23.2415 207.018 23.4322 210.787 26.1639C219.029 31.0593 225.9 8.54796 234.628 10.1128V118.242Z" fill="url(#paint0_linear_1_492)"/>
<defs>
<linearGradient id="paint0_linear_1_492" x1="131.418" y1="34.0001" x2="131.454" y2="118.242" gradientUnits="userSpaceOnUse">
<stop stop-color="#4C57FF"/>
<stop offset="1" stop-color="#4C57FF" stop-opacity="0.11"/>
</linearGradient>
</defs>
</svg>
