<svg width="28" height="28" viewBox="0 0 28 28" fill="none" xmlns="http://www.w3.org/2000/svg">
<path d="M14.2679 6.65717C10.3869 6.65717 7.25652 9.78828 7.25652 13.6701C7.25652 17.552 10.3869 20.6831 14.2679 20.6831C18.1489 20.6831 21.2793 17.552 21.2793 13.6701C21.2793 9.78828 18.1489 6.65717 14.2679 6.65717ZM14.2679 18.2295C11.7599 18.2295 9.70959 16.1848 9.70959 13.6701C9.70959 11.1555 11.7538 9.11079 14.2679 9.11079C16.782 9.11079 18.8262 11.1555 18.8262 13.6701C18.8262 16.1848 16.7759 18.2295 14.2679 18.2295ZM23.2015 6.37031C23.2015 7.27973 22.4692 8.00605 21.5661 8.00605C20.6569 8.00605 19.9307 7.27363 19.9307 6.37031C19.9307 5.46699 20.663 4.73456 21.5661 4.73456C22.4692 4.73456 23.2015 5.46699 23.2015 6.37031ZM27.8452 8.03047C27.7415 5.8393 27.2411 3.89838 25.6362 2.29926C24.0375 0.700135 22.097 0.199646 19.9063 0.0897828C17.6485 -0.0383912 10.8812 -0.0383912 8.6234 0.0897828C6.43883 0.193543 4.49834 0.694032 2.89347 2.29315C1.2886 3.89228 0.794327 5.8332 0.684488 8.02436C0.556343 10.2827 0.556343 17.0515 0.684488 19.3098C0.788225 21.5009 1.2886 23.4419 2.89347 25.041C4.49834 26.6401 6.43272 27.1406 8.6234 27.2505C10.8812 27.3786 17.6485 27.3786 19.9063 27.2505C22.097 27.1467 24.0375 26.6462 25.6362 25.041C27.235 23.4419 27.7354 21.5009 27.8452 19.3098C27.9734 17.0515 27.9734 10.2888 27.8452 8.03047ZM24.9284 21.7329C24.4524 22.9292 23.531 23.8508 22.3289 24.333C20.5287 25.0471 16.2572 24.8823 14.2679 24.8823C12.2786 24.8823 8.00098 25.041 6.20694 24.333C5.01092 23.8569 4.08949 22.9353 3.60742 21.7329C2.89347 19.9323 3.05823 15.6599 3.05823 13.6701C3.05823 11.6804 2.89957 7.4018 3.60742 5.60737C4.08339 4.41108 5.00482 3.48945 6.20694 3.00727C8.00708 2.29315 12.2786 2.45795 14.2679 2.45795C16.2572 2.45795 20.5348 2.29926 22.3289 3.00727C23.5249 3.48334 24.4463 4.40497 24.9284 5.60737C25.6423 7.40791 25.4776 11.6804 25.4776 13.6701C25.4776 15.6599 25.6423 19.9384 24.9284 21.7329Z" fill="white"/>
</svg>
