<svg width="32" height="30" viewBox="0 0 32 30" fill="none" xmlns="http://www.w3.org/2000/svg">
<path fill-rule="evenodd" clip-rule="evenodd" d="M7.66931 3.21813C7.66931 4.97253 6.33347 6.39234 4.24446 6.39234C2.23683 6.39234 0.900998 4.97253 0.942339 3.21813C0.900998 1.37846 2.2368 0 4.28448 0C6.33344 0 7.62926 1.37846 7.66931 3.21813ZM1.11029 29.3353V8.89992H7.4613V29.334L1.11029 29.3353Z" fill="white"/>
<path fill-rule="evenodd" clip-rule="evenodd" d="M12.5525 15.4237C12.5525 12.8747 12.4685 10.7018 12.3845 8.90471H17.9009L18.1942 11.7043H18.3195C19.1554 10.4085 21.2444 8.44609 24.6292 8.44609C28.8072 8.44609 31.9414 11.2043 31.9414 17.2194V29.3401H25.5904V18.0152C25.5904 15.381 24.6718 13.5853 22.3735 13.5853C20.6178 13.5853 19.574 14.7971 19.1567 15.9663C18.9887 16.3848 18.9061 16.9688 18.9061 17.5553V29.3401H12.555L12.5525 15.4237Z" fill="white"/>
</svg>
