<svg width="36" height="36" viewBox="0 0 36 36" fill="none" xmlns="http://www.w3.org/2000/svg">
<path d="M18 1.125C20.6853 1.125 23.2606 2.19174 25.1595 4.09054C27.0583 5.98935 28.125 8.56468 28.125 11.25C28.125 16.1265 20.427 27.0405 18.456 29.7555C18.4035 29.8271 18.3348 29.8854 18.2556 29.9255C18.1764 29.9656 18.0888 29.9866 18 29.9866C17.9112 29.9866 17.8236 29.9656 17.7444 29.9255C17.6652 29.8854 17.5965 29.8271 17.544 29.7555C15.573 27.0405 7.875 16.1265 7.875 11.25C7.875 8.56468 8.94174 5.98935 10.8405 4.09054C12.7393 2.19174 15.3147 1.125 18 1.125V1.125Z" stroke="black" stroke-width="2" stroke-linecap="round" stroke-linejoin="round"/>
<path d="M26.9685 26.676C31.0665 27.4875 33.75 28.842 33.75 30.375C33.75 32.8605 26.7 34.875 18 34.875C9.3 34.875 2.25 32.8605 2.25 30.375C2.25 28.845 4.9215 27.4935 9 26.6805" stroke="black" stroke-width="2" stroke-linecap="round" stroke-linejoin="round"/>
<path d="M15 11.3584C15.0001 10.8062 15.1514 10.2647 15.4373 9.79307C15.7233 9.3214 16.1328 8.93772 16.6213 8.68396C17.1097 8.4302 17.6583 8.31613 18.2069 8.35422C18.7556 8.3923 19.2833 8.58108 19.7323 8.89991C20.1813 9.21875 20.5344 9.65536 20.7529 10.1621C20.9715 10.6687 21.0471 11.226 20.9715 11.7729C20.8959 12.3198 20.6721 12.8354 20.3244 13.2632C19.9767 13.691 19.5185 14.0146 19 14.1986C18.7074 14.3025 18.4541 14.4949 18.275 14.7493C18.0959 15.0038 17.9998 15.3077 18 15.6192V15.8763" stroke="black" stroke-width="2" stroke-linecap="round" stroke-linejoin="round"/>
<path d="M18 20.253C17.7929 20.253 17.625 20.0844 17.625 19.8765C17.625 19.6686 17.7929 19.5 18 19.5" stroke="black" stroke-width="2"/>
<path d="M18 20.253C18.2071 20.253 18.375 20.0844 18.375 19.8765C18.375 19.6686 18.2071 19.5 18 19.5" stroke="black" stroke-width="2"/>
</svg>
