<svg width="51" height="32" viewBox="0 0 51 32" fill="none" xmlns="http://www.w3.org/2000/svg">
<path d="M32.6828 8.66553H29.2013C28.8286 8.66553 28.5254 8.9476 28.5254 9.29423V11.3589C28.5254 11.7055 28.8286 11.9876 29.2013 11.9876H29.7876V22.3624C29.7876 22.709 30.0908 22.9911 30.4635 22.9911H32.6828C33.0554 22.9911 33.3586 22.709 33.3586 22.3624V9.29397C33.3586 8.9476 33.0554 8.66553 32.6828 8.66553Z" fill="white"/>
<path d="M0.984863 16.0861C0.984863 20.0151 4.42118 23.2116 8.64489 23.2116C12.8686 23.2116 16.3049 20.0151 16.3049 16.0861C16.3049 13.5972 14.9014 11.2863 12.6251 9.9982C13.9818 8.92398 14.7546 7.36479 14.7546 5.68339C14.7549 2.54963 12.014 0 8.64489 0C5.27578 0 2.53516 2.54963 2.53516 5.68339C2.53516 7.36479 3.30796 8.92372 4.66464 9.9982C2.38836 11.2863 0.984863 13.5975 0.984863 16.0861ZM8.64489 8.27017C7.11167 8.27017 5.86433 7.10987 5.86433 5.68365C5.86433 4.25742 7.11167 3.09712 8.64489 3.09712C10.1781 3.09712 11.4254 4.25742 11.4254 5.68365C11.4254 7.10987 10.1781 8.27017 8.64489 8.27017ZM4.31404 16.0861C4.31404 13.8647 6.2568 12.0575 8.64489 12.0575C11.033 12.0575 12.9757 13.8647 12.9757 16.0861C12.9757 18.3076 11.033 20.1145 8.64489 20.1145C6.25707 20.1148 4.31404 18.3076 4.31404 16.0861Z" fill="white"/>
<path d="M50.3088 8.89258H48.3313C47.9587 8.89258 47.6555 9.17465 47.6555 9.52128V10.3513C46.3809 9.54254 44.8562 9.10009 43.3246 9.10009C39.1009 9.10009 35.6646 12.2966 35.6646 16.2256C35.6646 20.1546 39.1009 23.3511 43.3246 23.3511C44.8559 23.3511 46.3806 22.9087 47.6555 22.0999V24.2713C47.6555 25.3694 47.1694 26.4436 46.3219 27.2186C45.4872 27.9818 44.3954 28.3935 43.2491 28.3738C40.9026 28.3364 38.9937 26.5294 38.9937 24.3459V24.257C38.9937 23.9104 38.6905 23.6283 38.3179 23.6283H36.3404C35.9678 23.6283 35.6646 23.9104 35.6646 24.257C35.6646 28.1973 39.067 31.4332 43.2491 31.4711C43.2748 31.4714 43.2998 31.4714 43.3254 31.4714C45.3547 31.4714 47.2652 30.7397 48.7122 29.4067C50.1777 28.0566 50.985 26.2594 50.985 24.3459V9.52128C50.9847 9.17465 50.6817 8.89258 50.3088 8.89258ZM47.6555 16.2256C47.6555 18.447 45.7127 20.254 43.3246 20.254C40.9365 20.254 38.9937 18.4468 38.9937 16.2256C38.9937 14.0044 40.9365 12.197 43.3246 12.197C45.7127 12.197 47.6555 14.0044 47.6555 16.2256Z" fill="white"/>
<path d="M32.0703 7.18862C33.2684 6.727 33.8373 5.44937 33.341 4.33494C32.8448 3.22052 31.4713 2.69131 30.2732 3.15293C29.0752 3.61455 28.5063 4.89219 29.0025 6.00661C29.4988 7.12104 30.8723 7.65024 32.0703 7.18862Z" fill="white"/>
<path d="M23.405 6.0963C23.4052 4.21789 24.5656 3.83258 26.1153 3.83258C26.3775 3.83258 26.5898 3.63505 26.5898 3.39116V0.956557C26.5898 0.712661 26.3775 0.515137 26.1153 0.515137C22.0298 0.515137 19.834 2.44504 19.834 6.0963L19.8337 8.84396H18.4054C18.0556 8.84396 17.772 9.10784 17.772 9.43321V11.5768C17.772 11.9021 18.0556 12.166 18.4054 12.166H19.8337V22.4729C19.8337 22.7509 20.0758 22.9761 20.3746 22.9761H22.8635C23.1623 22.9761 23.4044 22.7509 23.4044 22.4729V12.166H25.9751C26.3249 12.166 26.6086 11.9021 26.6086 11.5768V9.43321C26.6086 9.10784 26.3249 8.84396 25.9751 8.84396H23.4044L23.405 6.0963Z" fill="white"/>
</svg>
