<svg width="9" height="10" viewBox="0 0 9 10" fill="none" xmlns="http://www.w3.org/2000/svg">
<path fill-rule="evenodd" clip-rule="evenodd" d="M0.978056 5.77856C1.31823 5.43839 1.7796 5.24728 2.26068 5.24728C2.74175 5.24728 3.20312 5.43839 3.5433 5.77856C3.88347 6.11873 4.07457 6.58011 4.07457 7.06118V9.05654C4.07457 9.25687 3.91218 9.41927 3.71185 9.41927H0.809505C0.609176 9.41927 0.446777 9.25687 0.446777 9.05654V7.06118C0.446777 6.58011 0.637884 6.11873 0.978056 5.77856ZM2.26068 5.97274C1.972 5.97274 1.69515 6.08741 1.49103 6.29154C1.28691 6.49566 1.17223 6.77251 1.17223 7.06118V8.69381H3.34912V7.06118C3.34912 6.77251 3.23444 6.49566 3.03032 6.29154C2.8262 6.08741 2.54935 5.97274 2.26068 5.97274Z" fill="#0E1122"/>
<path fill-rule="evenodd" clip-rule="evenodd" d="M1.53509 3.15367C1.73542 3.15367 1.89782 3.31606 1.89782 3.51639V5.78893C1.89782 5.98926 1.73542 6.15165 1.53509 6.15165C1.33476 6.15165 1.17236 5.98926 1.17236 5.78893V3.51639C1.17236 3.31606 1.33476 3.15367 1.53509 3.15367Z" fill="#0E1122"/>
<path fill-rule="evenodd" clip-rule="evenodd" d="M2.98626 3.15367C3.18659 3.15367 3.34899 3.31606 3.34899 3.51639V5.78893C3.34899 5.98926 3.18659 6.15165 2.98626 6.15165C2.78593 6.15165 2.62354 5.98926 2.62354 5.78893V3.51639C2.62354 3.31606 2.78593 3.15367 2.98626 3.15367Z" fill="#0E1122"/>
<path fill-rule="evenodd" clip-rule="evenodd" d="M2.26068 1.98047C1.85991 1.98047 1.53503 2.30535 1.53503 2.70612C1.53503 3.10688 1.85991 3.43177 2.26068 3.43177C2.66144 3.43177 2.98633 3.10688 2.98633 2.70612C2.98633 2.30535 2.66144 1.98047 2.26068 1.98047ZM0.80957 2.70612C0.80957 1.90469 1.45925 1.25501 2.26068 1.25501C3.0621 1.25501 3.71178 1.90469 3.71178 2.70612C3.71178 3.50754 3.0621 4.15722 2.26068 4.15722C1.45925 4.15722 0.80957 3.50754 0.80957 2.70612Z" fill="#0E1122"/>
<path fill-rule="evenodd" clip-rule="evenodd" d="M6.80473 1.29355C6.45325 1.29355 6.16833 1.57848 6.16833 1.92996C6.16833 2.28143 6.45325 2.56636 6.80473 2.56636C7.15621 2.56636 7.44113 2.28143 7.44113 1.92996C7.44113 1.57848 7.15621 1.29355 6.80473 1.29355ZM5.44287 1.92996C5.44287 1.17782 6.0526 0.568096 6.80473 0.568096C7.55686 0.568096 8.16659 1.17782 8.16659 1.92996C8.16659 2.68209 7.55686 3.29181 6.80473 3.29181C6.0526 3.29181 5.44287 2.68209 5.44287 1.92996Z" fill="#0E1122"/>
<path fill-rule="evenodd" clip-rule="evenodd" d="M6.20729 1.39696C6.2391 1.59475 6.10455 1.78088 5.90677 1.81269L3.06247 2.27017C2.86469 2.30198 2.67856 2.16744 2.64675 1.96965C2.61493 1.77186 2.74948 1.58573 2.94727 1.55392L5.79156 1.09644C5.98935 1.06463 6.17548 1.19918 6.20729 1.39696Z" fill="#0E1122"/>
<path fill-rule="evenodd" clip-rule="evenodd" d="M6.15215 2.45792C6.18397 2.65571 6.04944 2.84184 5.85165 2.87367L3.3872 3.2702C3.18942 3.30202 3.00328 3.16748 2.97146 2.9697C2.93963 2.77191 3.07417 2.58578 3.27196 2.55396L5.73641 2.15742C5.93419 2.1256 6.12033 2.26014 6.15215 2.45792Z" fill="#0E1122"/>
<path fill-rule="evenodd" clip-rule="evenodd" d="M6.55376 2.82494C6.75409 2.82496 6.91647 2.98737 6.91646 3.1877L6.91637 4.43534C6.91636 4.63566 6.75395 4.79805 6.55362 4.79804C6.35329 4.79802 6.1909 4.63561 6.19092 4.43528L6.191 3.18765C6.19102 2.98732 6.35343 2.82493 6.55376 2.82494Z" fill="#0E1122"/>
<path fill-rule="evenodd" clip-rule="evenodd" d="M7.34342 2.59956C7.54365 2.59321 7.71111 2.75038 7.71746 2.9506L7.76199 4.35424C7.76834 4.55447 7.61117 4.72194 7.41094 4.72829C7.21071 4.73464 7.04325 4.57747 7.0369 4.37724L6.99237 2.9736C6.98602 2.77338 7.14319 2.60591 7.34342 2.59956Z" fill="#0E1122"/>
<path fill-rule="evenodd" clip-rule="evenodd" d="M8.16381 4.31555C8.1782 4.51536 8.02789 4.68901 7.82808 4.7034L7.01216 4.76218L6.15051 4.82422C5.9507 4.8386 5.77706 4.68828 5.76267 4.48847C5.74828 4.28866 5.8986 4.11502 6.09841 4.10063L7.77596 3.97982C7.97577 3.96543 8.14941 4.11574 8.16381 4.31555Z" fill="#0E1122"/>
<path fill-rule="evenodd" clip-rule="evenodd" d="M6.95605 4.03792C7.1557 4.0215 7.33087 4.17003 7.3473 4.36969L7.43691 5.45879C7.45334 5.65844 7.3048 5.83361 7.10515 5.85004C6.90549 5.86647 6.73033 5.71793 6.7139 5.51828L6.62429 4.42917C6.60786 4.22952 6.7564 4.05435 6.95605 4.03792Z" fill="#0E1122"/>
</svg>
