<svg width="12" height="12" viewBox="0 0 12 12" fill="none" xmlns="http://www.w3.org/2000/svg">
<g clip-path="url(#clip0_1_701)">
<path d="M10.1042 6.98532L9.93444 6.73073L8.09868 3.96147L6.83018 2.05425C6.78207 1.98419 6.70882 1.93535 6.62564 1.91788C6.54247 1.90042 6.45576 1.91566 6.38353 1.96045C6.34452 1.98186 6.31018 2.01083 6.28249 2.04566C6.25481 2.08049 6.23434 2.12049 6.22228 2.16332C6.21022 2.20614 6.20682 2.25094 6.21226 2.2951C6.21771 2.33926 6.23189 2.38189 6.254 2.42051L6.28973 2.46964L1.97057 7.74017C1.90806 7.71032 1.83783 7.70058 1.76955 7.71229C1.70128 7.724 1.63831 7.7566 1.58933 7.80558C1.54034 7.85457 1.50775 7.91753 1.49604 7.98581C1.48432 8.05409 1.49406 8.12432 1.52392 8.18683L1.72491 8.49502L2.21177 9.22753L2.38149 9.48659C2.42321 9.55315 2.48699 9.60294 2.56169 9.62725C2.63639 9.65155 2.71725 9.64884 2.79015 9.61957C2.86305 9.5903 2.92334 9.53635 2.9605 9.46714C2.99765 9.39793 3.0093 9.31786 2.99341 9.24093L3.90906 8.96847L4.21725 9.41513C4.32661 9.57747 4.46796 9.71578 4.63264 9.82158C4.7965 9.92786 4.98046 9.99932 5.17309 10.0315C5.25044 10.0361 5.328 10.0361 5.40535 10.0315C5.52147 10.0321 5.63714 10.017 5.74928 9.98685C5.92914 9.95638 6.10089 9.8895 6.254 9.79032C6.4088 9.66918 6.53659 9.51705 6.62919 9.34366C6.72641 9.17534 6.78585 8.98787 6.80338 8.79428C6.82465 8.60352 6.8064 8.41043 6.74978 8.22703C6.74978 8.19576 6.72298 8.16896 6.71405 8.14216L9.51458 7.30692L9.55031 7.35605C9.59842 7.42611 9.67167 7.47495 9.75485 7.49241C9.83803 7.50988 9.92474 7.49464 9.99697 7.44985C10.0347 7.42658 10.0675 7.39605 10.0933 7.36002C10.1192 7.324 10.1377 7.2832 10.1476 7.23998C10.1576 7.19677 10.1589 7.15201 10.1514 7.1083C10.144 7.06458 10.1279 7.02278 10.1042 6.98532ZM6.11107 8.42802C6.14171 8.52768 6.15234 8.63243 6.14233 8.73621C6.13365 8.83888 6.10157 8.9382 6.04853 9.02654C5.99916 9.11761 5.93058 9.19686 5.84754 9.2588C5.76641 9.32094 5.67383 9.36648 5.57508 9.3928C5.47333 9.4129 5.36864 9.4129 5.26689 9.3928C5.1652 9.37728 5.06785 9.34077 4.98103 9.2856C4.89442 9.22955 4.81999 9.15664 4.76217 9.0712L4.56564 8.77641L6.07087 8.32976L6.11107 8.42802ZM6.11107 7.62404L3.98945 8.25829C3.9673 8.25427 3.94461 8.25427 3.92246 8.25829L2.61822 8.67368L2.37703 8.30742L6.70065 3.05922L7.5493 4.34559L9.12599 6.7218L6.11107 7.62404Z" fill="#0E1122"/>
</g>
<defs>
<clipPath id="clip0_1_701">
<rect width="8.70978" height="8.18272" fill="white" transform="translate(1.45166 1.90232)"/>
</clipPath>
</defs>
</svg>
