<svg width="115" height="40" viewBox="0 0 115 40" fill="none" xmlns="http://www.w3.org/2000/svg">
<rect width="40" height="40" rx="5.38607" fill="#3D3F4F"/>
<path d="M13.6655 22.4126L14.4084 14.6096H17.8181L18.4435 21.1758" stroke="white" stroke-width="1.21187" stroke-linecap="round" stroke-linejoin="round"/>
<path d="M11.9214 28.068H28.0706V19.7122C28.0707 19.5907 28.043 19.4707 27.9895 19.3616C27.936 19.2525 27.8582 19.1571 27.7621 19.0827C27.666 19.0083 27.5541 18.957 27.435 18.9326C27.3159 18.9083 27.1929 18.9115 27.0752 18.9422L12.4595 22.7248C12.3054 22.7646 12.169 22.8545 12.0716 22.9804C11.9742 23.1062 11.9214 23.2608 11.9214 23.4199V28.068Z" stroke="white" stroke-width="1.21187" stroke-linecap="round" stroke-linejoin="round"/>
<path d="M25.559 28.0676H21.9702V24.8539C21.9702 24.6592 22.0476 24.4725 22.1852 24.3349C22.3229 24.1972 22.5096 24.1199 22.7043 24.1199H24.825C25.0196 24.1199 25.2064 24.1972 25.344 24.3349C25.4817 24.4725 25.559 24.6592 25.559 24.8539V28.0676Z" stroke="white" stroke-width="1.21187" stroke-linecap="round" stroke-linejoin="round"/>
<path d="M14.1245 17.8037H17.7948" stroke="white" stroke-width="1.21187" stroke-linecap="round" stroke-linejoin="round"/>
<path d="M26.2353 11.9321C25.9132 11.9329 25.597 12.0188 25.3189 12.1811C25.0407 12.3434 24.8103 12.5763 24.6512 12.8563C24.4856 12.7441 24.2926 12.679 24.0929 12.6682C23.8931 12.6574 23.6942 12.7011 23.5175 12.7948C23.3407 12.8885 23.1929 13.0286 23.0897 13.2C22.9866 13.3714 22.9321 13.5676 22.9321 13.7677C22.9321 13.9677 22.9866 14.1639 23.0897 14.3353C23.1929 14.5067 23.3407 14.6468 23.5175 14.7405C23.6942 14.8342 23.8931 14.878 24.0929 14.8671C24.2926 14.8563 24.4856 14.7912 24.6512 14.679C24.8115 14.9591 25.0429 15.192 25.322 15.3541C25.6012 15.5163 25.9181 15.6019 26.2409 15.6024C26.5637 15.6029 26.8809 15.5183 27.1605 15.3571C27.4401 15.1958 27.6723 14.9637 27.8335 14.6841C27.9948 14.4044 28.0794 14.0872 28.0789 13.7645C28.0785 13.4417 27.9928 13.1247 27.8307 12.8456C27.6686 12.5665 27.4357 12.3351 27.1556 12.1747C26.8755 12.0143 26.558 11.9306 26.2353 11.9321Z" stroke="white" stroke-width="1.21187" stroke-linecap="round" stroke-linejoin="round"/>
<path d="M19.2607 13.7673C19.2607 13.9119 19.2892 14.0551 19.3446 14.1887C19.3999 14.3223 19.481 14.4437 19.5832 14.5459C19.6855 14.6482 19.8069 14.7293 19.9405 14.7846C20.074 14.8399 20.2172 14.8684 20.3618 14.8684C20.5064 14.8684 20.6496 14.8399 20.7832 14.7846C20.9168 14.7293 21.0382 14.6482 21.1404 14.5459C21.2427 14.4437 21.3238 14.3223 21.3791 14.1887C21.4344 14.0551 21.4629 13.9119 21.4629 13.7673C21.4629 13.4753 21.3469 13.1953 21.1404 12.9888C20.9339 12.7823 20.6539 12.6663 20.3618 12.6663C20.0698 12.6663 19.7897 12.7823 19.5832 12.9888C19.3767 13.1953 19.2607 13.4753 19.2607 13.7673Z" stroke="white" stroke-width="1.21187" stroke-linecap="round" stroke-linejoin="round"/>
<path d="M14.8569 24.4111H15.591" stroke="white" stroke-width="1.05932" stroke-linecap="round" stroke-linejoin="round"/>
<path d="M14.8569 25.8789H15.591" stroke="white" stroke-width="1.05932" stroke-linecap="round" stroke-linejoin="round"/>
<path d="M18.5283 24.4111H19.2624" stroke="white" stroke-width="1.21187" stroke-linecap="round" stroke-linejoin="round"/>
<path d="M18.5283 25.8789H19.2624" stroke="white" stroke-width="1.21187" stroke-linecap="round" stroke-linejoin="round"/>
<path d="M54.936 8.216C54.936 8.664 54.828 9.084 54.612 9.476C54.404 9.868 54.072 10.184 53.616 10.424C53.168 10.664 52.6 10.784 51.912 10.784H50.508V14H48.828V5.624H51.912C52.56 5.624 53.112 5.736 53.568 5.96C54.024 6.184 54.364 6.492 54.588 6.884C54.82 7.276 54.936 7.72 54.936 8.216ZM51.84 9.428C52.304 9.428 52.648 9.324 52.872 9.116C53.096 8.9 53.208 8.6 53.208 8.216C53.208 7.4 52.752 6.992 51.84 6.992H50.508V9.428H51.84ZM57.8088 8.384C58.0248 8.032 58.3048 7.756 58.6488 7.556C59.0008 7.356 59.4008 7.256 59.8488 7.256V9.02H59.4048C58.8768 9.02 58.4768 9.144 58.2048 9.392C57.9408 9.64 57.8088 10.072 57.8088 10.688V14H56.1288V7.352H57.8088V8.384ZM63.9323 14.108C63.2923 14.108 62.7163 13.968 62.2043 13.688C61.6923 13.4 61.2883 12.996 60.9923 12.476C60.7043 11.956 60.5603 11.356 60.5603 10.676C60.5603 9.996 60.7083 9.396 61.0043 8.876C61.3083 8.356 61.7203 7.956 62.2403 7.676C62.7603 7.388 63.3403 7.244 63.9803 7.244C64.6203 7.244 65.2003 7.388 65.7203 7.676C66.2403 7.956 66.6483 8.356 66.9443 8.876C67.2483 9.396 67.4003 9.996 67.4003 10.676C67.4003 11.356 67.2443 11.956 66.9323 12.476C66.6283 12.996 66.2123 13.4 65.6843 13.688C65.1643 13.968 64.5803 14.108 63.9323 14.108ZM63.9323 12.644C64.2363 12.644 64.5203 12.572 64.7843 12.428C65.0563 12.276 65.2723 12.052 65.4323 11.756C65.5923 11.46 65.6723 11.1 65.6723 10.676C65.6723 10.044 65.5043 9.56 65.1683 9.224C64.8403 8.88 64.4363 8.708 63.9563 8.708C63.4763 8.708 63.0723 8.88 62.7443 9.224C62.4243 9.56 62.2643 10.044 62.2643 10.676C62.2643 11.308 62.4203 11.796 62.7323 12.14C63.0523 12.476 63.4523 12.644 63.9323 12.644ZM68.2007 10.652C68.2007 9.98 68.3327 9.384 68.5967 8.864C68.8687 8.344 69.2367 7.944 69.7007 7.664C70.1647 7.384 70.6807 7.244 71.2487 7.244C71.6807 7.244 72.0927 7.34 72.4847 7.532C72.8767 7.716 73.1887 7.964 73.4207 8.276V5.12H75.1247V14H73.4207V13.016C73.2127 13.344 72.9207 13.608 72.5447 13.808C72.1687 14.008 71.7327 14.108 71.2367 14.108C70.6767 14.108 70.1647 13.964 69.7007 13.676C69.2367 13.388 68.8687 12.984 68.5967 12.464C68.3327 11.936 68.2007 11.332 68.2007 10.652ZM73.4327 10.676C73.4327 10.268 73.3527 9.92 73.1927 9.632C73.0327 9.336 72.8167 9.112 72.5447 8.96C72.2727 8.8 71.9807 8.72 71.6687 8.72C71.3567 8.72 71.0687 8.796 70.8047 8.948C70.5407 9.1 70.3247 9.324 70.1567 9.62C69.9967 9.908 69.9167 10.252 69.9167 10.652C69.9167 11.052 69.9967 11.404 70.1567 11.708C70.3247 12.004 70.5407 12.232 70.8047 12.392C71.0767 12.552 71.3647 12.632 71.6687 12.632C71.9807 12.632 72.2727 12.556 72.5447 12.404C72.8167 12.244 73.0327 12.02 73.1927 11.732C73.3527 11.436 73.4327 11.084 73.4327 10.676ZM83.0415 7.352V14H81.3495V13.16C81.1335 13.448 80.8495 13.676 80.4975 13.844C80.1535 14.004 79.7775 14.084 79.3695 14.084C78.8495 14.084 78.3895 13.976 77.9895 13.76C77.5895 13.536 77.2735 13.212 77.0415 12.788C76.8175 12.356 76.7055 11.844 76.7055 11.252V7.352H78.3855V11.012C78.3855 11.54 78.5175 11.948 78.7815 12.236C79.0455 12.516 79.4055 12.656 79.8615 12.656C80.3255 12.656 80.6895 12.516 80.9535 12.236C81.2175 11.948 81.3495 11.54 81.3495 11.012V7.352H83.0415ZM84.2671 10.676C84.2671 9.988 84.4071 9.388 84.6871 8.876C84.9671 8.356 85.3551 7.956 85.8511 7.676C86.3471 7.388 86.9151 7.244 87.5551 7.244C88.3791 7.244 89.0591 7.452 89.5951 7.868C90.1391 8.276 90.5031 8.852 90.6871 9.596H88.8751C88.7791 9.308 88.6151 9.084 88.3831 8.924C88.1591 8.756 87.8791 8.672 87.5431 8.672C87.0631 8.672 86.6831 8.848 86.4031 9.2C86.1231 9.544 85.9831 10.036 85.9831 10.676C85.9831 11.308 86.1231 11.8 86.4031 12.152C86.6831 12.496 87.0631 12.668 87.5431 12.668C88.2231 12.668 88.6671 12.364 88.8751 11.756H90.6871C90.5031 12.476 90.1391 13.048 89.5951 13.472C89.0511 13.896 88.3711 14.108 87.5551 14.108C86.9151 14.108 86.3471 13.968 85.8511 13.688C85.3551 13.4 84.9671 13 84.6871 12.488C84.4071 11.968 84.2671 11.364 84.2671 10.676ZM93.8738 8.732V11.948C93.8738 12.172 93.9258 12.336 94.0298 12.44C94.1418 12.536 94.3258 12.584 94.5818 12.584H95.3618V14H94.3058C92.8898 14 92.1818 13.312 92.1818 11.936V8.732H91.3898V7.352H92.1818V5.708H93.8738V7.352H95.3618V8.732H93.8738ZM97.4222 6.56C97.1262 6.56 96.8782 6.468 96.6782 6.284C96.4862 6.092 96.3902 5.856 96.3902 5.576C96.3902 5.296 96.4862 5.064 96.6782 4.88C96.8782 4.688 97.1262 4.592 97.4222 4.592C97.7182 4.592 97.9622 4.688 98.1542 4.88C98.3542 5.064 98.4542 5.296 98.4542 5.576C98.4542 5.856 98.3542 6.092 98.1542 6.284C97.9622 6.468 97.7182 6.56 97.4222 6.56ZM98.2502 7.352V14H96.5702V7.352H98.2502ZM102.862 14.108C102.222 14.108 101.646 13.968 101.134 13.688C100.622 13.4 100.218 12.996 99.922 12.476C99.634 11.956 99.49 11.356 99.49 10.676C99.49 9.996 99.638 9.396 99.934 8.876C100.238 8.356 100.65 7.956 101.17 7.676C101.69 7.388 102.27 7.244 102.91 7.244C103.55 7.244 104.13 7.388 104.65 7.676C105.17 7.956 105.578 8.356 105.874 8.876C106.178 9.396 106.33 9.996 106.33 10.676C106.33 11.356 106.174 11.956 105.862 12.476C105.558 12.996 105.142 13.4 104.614 13.688C104.094 13.968 103.51 14.108 102.862 14.108ZM102.862 12.644C103.166 12.644 103.45 12.572 103.714 12.428C103.986 12.276 104.202 12.052 104.362 11.756C104.522 11.46 104.602 11.1 104.602 10.676C104.602 10.044 104.434 9.56 104.098 9.224C103.77 8.88 103.366 8.708 102.886 8.708C102.406 8.708 102.002 8.88 101.674 9.224C101.354 9.56 101.194 10.044 101.194 10.676C101.194 11.308 101.35 11.796 101.662 12.14C101.982 12.476 102.382 12.644 102.862 12.644ZM111.246 7.256C112.038 7.256 112.678 7.508 113.166 8.012C113.654 8.508 113.898 9.204 113.898 10.1V14H112.218V10.328C112.218 9.8 112.086 9.396 111.822 9.116C111.558 8.828 111.198 8.684 110.742 8.684C110.278 8.684 109.91 8.828 109.638 9.116C109.374 9.396 109.242 9.8 109.242 10.328V14H107.562V7.352H109.242V8.18C109.466 7.892 109.75 7.668 110.094 7.508C110.446 7.34 110.83 7.256 111.246 7.256ZM48.396 30.676C48.396 29.988 48.536 29.388 48.816 28.876C49.096 28.356 49.484 27.956 49.98 27.676C50.476 27.388 51.044 27.244 51.684 27.244C52.508 27.244 53.188 27.452 53.724 27.868C54.268 28.276 54.632 28.852 54.816 29.596H53.004C52.908 29.308 52.744 29.084 52.512 28.924C52.288 28.756 52.008 28.672 51.672 28.672C51.192 28.672 50.812 28.848 50.532 29.2C50.252 29.544 50.112 30.036 50.112 30.676C50.112 31.308 50.252 31.8 50.532 32.152C50.812 32.496 51.192 32.668 51.672 32.668C52.352 32.668 52.796 32.364 53.004 31.756H54.816C54.632 32.476 54.268 33.048 53.724 33.472C53.18 33.896 52.5 34.108 51.684 34.108C51.044 34.108 50.476 33.968 49.98 33.688C49.484 33.4 49.096 33 48.816 32.488C48.536 31.968 48.396 31.364 48.396 30.676ZM58.9988 34.108C58.3588 34.108 57.7828 33.968 57.2708 33.688C56.7588 33.4 56.3548 32.996 56.0588 32.476C55.7708 31.956 55.6268 31.356 55.6268 30.676C55.6268 29.996 55.7748 29.396 56.0708 28.876C56.3748 28.356 56.7868 27.956 57.3068 27.676C57.8268 27.388 58.4068 27.244 59.0468 27.244C59.6868 27.244 60.2668 27.388 60.7868 27.676C61.3068 27.956 61.7148 28.356 62.0108 28.876C62.3148 29.396 62.4668 29.996 62.4668 30.676C62.4668 31.356 62.3108 31.956 61.9987 32.476C61.6948 32.996 61.2788 33.4 60.7508 33.688C60.2308 33.968 59.6468 34.108 58.9988 34.108ZM58.9988 32.644C59.3028 32.644 59.5868 32.572 59.8508 32.428C60.1228 32.276 60.3388 32.052 60.4988 31.756C60.6588 31.46 60.7388 31.1 60.7388 30.676C60.7388 30.044 60.5708 29.56 60.2348 29.224C59.9068 28.88 59.5028 28.708 59.0228 28.708C58.5428 28.708 58.1388 28.88 57.8108 29.224C57.4908 29.56 57.3308 30.044 57.3308 30.676C57.3308 31.308 57.4868 31.796 57.7988 32.14C58.1188 32.476 58.5188 32.644 58.9988 32.644ZM71.9551 27.256C72.7711 27.256 73.4271 27.508 73.9231 28.012C74.4271 28.508 74.6791 29.204 74.6791 30.1V34H72.9991V30.328C72.9991 29.808 72.8671 29.412 72.6031 29.14C72.3391 28.86 71.9791 28.72 71.5231 28.72C71.0671 28.72 70.7031 28.86 70.4311 29.14C70.1671 29.412 70.0351 29.808 70.0351 30.328V34H68.3551V30.328C68.3551 29.808 68.2231 29.412 67.9591 29.14C67.6951 28.86 67.3351 28.72 66.8791 28.72C66.4151 28.72 66.0471 28.86 65.7751 29.14C65.5111 29.412 65.3791 29.808 65.3791 30.328V34H63.6991V27.352H65.3791V28.156C65.5951 27.876 65.8711 27.656 66.2071 27.496C66.5511 27.336 66.9271 27.256 67.3351 27.256C67.8551 27.256 68.3191 27.368 68.7271 27.592C69.1351 27.808 69.4511 28.12 69.6751 28.528C69.8911 28.144 70.2031 27.836 70.6111 27.604C71.0271 27.372 71.4751 27.256 71.9551 27.256ZM77.9533 28.312C78.1693 28.008 78.4653 27.756 78.8413 27.556C79.2253 27.348 79.6613 27.244 80.1493 27.244C80.7173 27.244 81.2293 27.384 81.6853 27.664C82.1493 27.944 82.5133 28.344 82.7773 28.864C83.0493 29.376 83.1853 29.972 83.1853 30.652C83.1853 31.332 83.0493 31.936 82.7773 32.464C82.5133 32.984 82.1493 33.388 81.6853 33.676C81.2293 33.964 80.7173 34.108 80.1493 34.108C79.6613 34.108 79.2293 34.008 78.8533 33.808C78.4853 33.608 78.1853 33.356 77.9533 33.052V37.168H76.2733V27.352H77.9533V28.312ZM81.4693 30.652C81.4693 30.252 81.3853 29.908 81.2173 29.62C81.0573 29.324 80.8413 29.1 80.5693 28.948C80.3053 28.796 80.0173 28.72 79.7053 28.72C79.4013 28.72 79.1133 28.8 78.8413 28.96C78.5773 29.112 78.3613 29.336 78.1933 29.632C78.0333 29.928 77.9533 30.276 77.9533 30.676C77.9533 31.076 78.0333 31.424 78.1933 31.72C78.3613 32.016 78.5773 32.244 78.8413 32.404C79.1133 32.556 79.4013 32.632 79.7053 32.632C80.0173 32.632 80.3053 32.552 80.5693 32.392C80.8413 32.232 81.0573 32.004 81.2173 31.708C81.3853 31.412 81.4693 31.06 81.4693 30.652ZM86.0861 25.12V34H84.4061V25.12H86.0861ZM93.926 30.532C93.926 30.772 93.91 30.988 93.878 31.18H89.018C89.058 31.66 89.226 32.036 89.522 32.308C89.818 32.58 90.182 32.716 90.614 32.716C91.238 32.716 91.682 32.448 91.946 31.912H93.758C93.566 32.552 93.198 33.08 92.654 33.496C92.11 33.904 91.442 34.108 90.65 34.108C90.01 34.108 89.434 33.968 88.922 33.688C88.418 33.4 88.022 32.996 87.734 32.476C87.454 31.956 87.314 31.356 87.314 30.676C87.314 29.988 87.454 29.384 87.734 28.864C88.014 28.344 88.406 27.944 88.91 27.664C89.414 27.384 89.994 27.244 90.65 27.244C91.282 27.244 91.846 27.38 92.342 27.652C92.846 27.924 93.234 28.312 93.506 28.816C93.786 29.312 93.926 29.884 93.926 30.532ZM92.186 30.052C92.178 29.62 92.022 29.276 91.718 29.02C91.414 28.756 91.042 28.624 90.602 28.624C90.186 28.624 89.834 28.752 89.546 29.008C89.266 29.256 89.094 29.604 89.03 30.052H92.186ZM97.1082 28.732V31.948C97.1082 32.172 97.1602 32.336 97.2642 32.44C97.3762 32.536 97.5602 32.584 97.8162 32.584H98.5962V34H97.5402C96.1242 34 95.4162 33.312 95.4162 31.936V28.732H94.6242V27.352H95.4162V25.708H97.1082V27.352H98.5962V28.732H97.1082ZM105.985 30.532C105.985 30.772 105.969 30.988 105.937 31.18H101.077C101.117 31.66 101.285 32.036 101.581 32.308C101.877 32.58 102.241 32.716 102.673 32.716C103.297 32.716 103.741 32.448 104.005 31.912H105.817C105.625 32.552 105.257 33.08 104.713 33.496C104.169 33.904 103.501 34.108 102.709 34.108C102.069 34.108 101.493 33.968 100.981 33.688C100.477 33.4 100.081 32.996 99.7926 32.476C99.5126 31.956 99.3726 31.356 99.3726 30.676C99.3726 29.988 99.5126 29.384 99.7926 28.864C100.073 28.344 100.465 27.944 100.969 27.664C101.473 27.384 102.053 27.244 102.709 27.244C103.341 27.244 103.905 27.38 104.401 27.652C104.905 27.924 105.293 28.312 105.565 28.816C105.845 29.312 105.985 29.884 105.985 30.532ZM104.245 30.052C104.237 29.62 104.081 29.276 103.777 29.02C103.473 28.756 103.101 28.624 102.661 28.624C102.245 28.624 101.893 28.752 101.605 29.008C101.325 29.256 101.153 29.604 101.089 30.052H104.245ZM106.779 30.652C106.779 29.98 106.911 29.384 107.175 28.864C107.447 28.344 107.815 27.944 108.279 27.664C108.743 27.384 109.259 27.244 109.827 27.244C110.259 27.244 110.671 27.34 111.063 27.532C111.455 27.716 111.767 27.964 111.999 28.276V25.12H113.703V34H111.999V33.016C111.791 33.344 111.499 33.608 111.123 33.808C110.747 34.008 110.311 34.108 109.815 34.108C109.255 34.108 108.743 33.964 108.279 33.676C107.815 33.388 107.447 32.984 107.175 32.464C106.911 31.936 106.779 31.332 106.779 30.652ZM112.011 30.676C112.011 30.268 111.931 29.92 111.771 29.632C111.611 29.336 111.395 29.112 111.123 28.96C110.851 28.8 110.559 28.72 110.247 28.72C109.935 28.72 109.647 28.796 109.383 28.948C109.119 29.1 108.903 29.324 108.735 29.62C108.575 29.908 108.495 30.252 108.495 30.652C108.495 31.052 108.575 31.404 108.735 31.708C108.903 32.004 109.119 32.232 109.383 32.392C109.655 32.552 109.943 32.632 110.247 32.632C110.559 32.632 110.851 32.556 111.123 32.404C111.395 32.244 111.611 32.02 111.771 31.732C111.931 31.436 112.011 31.084 112.011 30.676Z" fill="white"/>
</svg>
