<svg width="115" height="40" viewBox="0 0 115 40" fill="none" xmlns="http://www.w3.org/2000/svg">
<rect width="40" height="40" rx="5.38607" fill="#3D3F4F"/>
<path d="M13.665 22.4126L14.4079 14.6096H17.8176L18.443 21.1758" stroke="white" stroke-width="1.21187" stroke-linecap="round" stroke-linejoin="round"/>
<path d="M11.921 28.068H28.0703V19.7122C28.0704 19.5907 28.0426 19.4707 27.9891 19.3616C27.9356 19.2525 27.8578 19.1571 27.7617 19.0827C27.6656 19.0083 27.5537 18.957 27.4346 18.9326C27.3156 18.9083 27.1925 18.9115 27.0749 18.9422L12.4591 22.7248C12.305 22.7646 12.1686 22.8545 12.0712 22.9804C11.9738 23.1062 11.921 23.2608 11.921 23.4199V28.068Z" stroke="white" stroke-width="1.21187" stroke-linecap="round" stroke-linejoin="round"/>
<path d="M25.5587 28.0676H21.9698V24.8539C21.9698 24.6592 22.0472 24.4725 22.1848 24.3349C22.3225 24.1972 22.5092 24.1199 22.7039 24.1199H24.8246C25.0193 24.1199 25.206 24.1972 25.3437 24.3349C25.4813 24.4725 25.5587 24.6592 25.5587 24.8539V28.0676Z" stroke="white" stroke-width="1.21187" stroke-linecap="round" stroke-linejoin="round"/>
<path d="M14.1243 17.8037H17.7945" stroke="white" stroke-width="1.21187" stroke-linecap="round" stroke-linejoin="round"/>
<path d="M26.2351 11.9321C25.9131 11.9329 25.5969 12.0188 25.3187 12.1811C25.0405 12.3434 24.8102 12.5763 24.651 12.8563C24.4855 12.7441 24.2925 12.679 24.0927 12.6682C23.893 12.6574 23.6941 12.7011 23.5174 12.7948C23.3406 12.8885 23.1928 13.0286 23.0896 13.2C22.9865 13.3714 22.932 13.5676 22.932 13.7677C22.932 13.9677 22.9865 14.1639 23.0896 14.3353C23.1928 14.5067 23.3406 14.6468 23.5174 14.7405C23.6941 14.8342 23.893 14.878 24.0927 14.8671C24.2925 14.8563 24.4855 14.7912 24.651 14.679C24.8114 14.9591 25.0428 15.192 25.3219 15.3541C25.601 15.5163 25.918 15.6019 26.2408 15.6024C26.5635 15.6029 26.8808 15.5183 27.1604 15.3571C27.44 15.1958 27.6722 14.9637 27.8334 14.6841C27.9947 14.4044 28.0793 14.0872 28.0788 13.7645C28.0783 13.4417 27.9927 13.1247 27.8306 12.8456C27.6685 12.5665 27.4356 12.3351 27.1555 12.1747C26.8754 12.0143 26.5579 11.9306 26.2351 11.9321Z" stroke="white" stroke-width="1.21187" stroke-linecap="round" stroke-linejoin="round"/>
<path d="M19.2609 13.7673C19.2609 13.9119 19.2893 14.0551 19.3447 14.1887C19.4 14.3223 19.4811 14.4437 19.5834 14.5459C19.6856 14.6482 19.807 14.7293 19.9406 14.7846C20.0742 14.8399 20.2174 14.8684 20.3619 14.8684C20.5065 14.8684 20.6497 14.8399 20.7833 14.7846C20.9169 14.7293 21.0383 14.6482 21.1405 14.5459C21.2428 14.4437 21.3239 14.3223 21.3792 14.1887C21.4346 14.0551 21.463 13.9119 21.463 13.7673C21.463 13.4753 21.347 13.1953 21.1405 12.9888C20.934 12.7823 20.654 12.6663 20.3619 12.6663C20.0699 12.6663 19.7899 12.7823 19.5834 12.9888C19.3769 13.1953 19.2609 13.4753 19.2609 13.7673Z" stroke="white" stroke-width="1.21187" stroke-linecap="round" stroke-linejoin="round"/>
<path d="M14.8568 24.4111H15.5909" stroke="white" stroke-width="1.05932" stroke-linecap="round" stroke-linejoin="round"/>
<path d="M14.8568 25.8789H15.5909" stroke="white" stroke-width="1.05932" stroke-linecap="round" stroke-linejoin="round"/>
<path d="M18.5282 24.4111H19.2623" stroke="white" stroke-width="1.21187" stroke-linecap="round" stroke-linejoin="round"/>
<path d="M18.5282 25.8789H19.2623" stroke="white" stroke-width="1.21187" stroke-linecap="round" stroke-linejoin="round"/>
<path d="M54.936 8.216C54.936 8.664 54.828 9.084 54.612 9.476C54.404 9.868 54.072 10.184 53.616 10.424C53.168 10.664 52.6 10.784 51.912 10.784H50.508V14H48.828V5.624H51.912C52.56 5.624 53.112 5.736 53.568 5.96C54.024 6.184 54.364 6.492 54.588 6.884C54.82 7.276 54.936 7.72 54.936 8.216ZM51.84 9.428C52.304 9.428 52.648 9.324 52.872 9.116C53.096 8.9 53.208 8.6 53.208 8.216C53.208 7.4 52.752 6.992 51.84 6.992H50.508V9.428H51.84ZM57.8088 8.384C58.0248 8.032 58.3048 7.756 58.6488 7.556C59.0008 7.356 59.4008 7.256 59.8488 7.256V9.02H59.4048C58.8768 9.02 58.4768 9.144 58.2048 9.392C57.9408 9.64 57.8088 10.072 57.8088 10.688V14H56.1288V7.352H57.8088V8.384ZM63.9323 14.108C63.2923 14.108 62.7163 13.968 62.2043 13.688C61.6923 13.4 61.2883 12.996 60.9923 12.476C60.7043 11.956 60.5603 11.356 60.5603 10.676C60.5603 9.996 60.7083 9.396 61.0043 8.876C61.3083 8.356 61.7203 7.956 62.2403 7.676C62.7603 7.388 63.3403 7.244 63.9803 7.244C64.6203 7.244 65.2003 7.388 65.7203 7.676C66.2403 7.956 66.6483 8.356 66.9443 8.876C67.2483 9.396 67.4003 9.996 67.4003 10.676C67.4003 11.356 67.2443 11.956 66.9323 12.476C66.6283 12.996 66.2123 13.4 65.6843 13.688C65.1643 13.968 64.5803 14.108 63.9323 14.108ZM63.9323 12.644C64.2363 12.644 64.5203 12.572 64.7843 12.428C65.0563 12.276 65.2723 12.052 65.4323 11.756C65.5923 11.46 65.6723 11.1 65.6723 10.676C65.6723 10.044 65.5043 9.56 65.1683 9.224C64.8403 8.88 64.4363 8.708 63.9563 8.708C63.4763 8.708 63.0723 8.88 62.7443 9.224C62.4243 9.56 62.2643 10.044 62.2643 10.676C62.2643 11.308 62.4203 11.796 62.7323 12.14C63.0523 12.476 63.4523 12.644 63.9323 12.644ZM68.2007 10.652C68.2007 9.98 68.3327 9.384 68.5967 8.864C68.8687 8.344 69.2367 7.944 69.7007 7.664C70.1647 7.384 70.6807 7.244 71.2487 7.244C71.6807 7.244 72.0927 7.34 72.4847 7.532C72.8767 7.716 73.1887 7.964 73.4207 8.276V5.12H75.1247V14H73.4207V13.016C73.2127 13.344 72.9207 13.608 72.5447 13.808C72.1687 14.008 71.7327 14.108 71.2367 14.108C70.6767 14.108 70.1647 13.964 69.7007 13.676C69.2367 13.388 68.8687 12.984 68.5967 12.464C68.3327 11.936 68.2007 11.332 68.2007 10.652ZM73.4327 10.676C73.4327 10.268 73.3527 9.92 73.1927 9.632C73.0327 9.336 72.8167 9.112 72.5447 8.96C72.2727 8.8 71.9807 8.72 71.6687 8.72C71.3567 8.72 71.0687 8.796 70.8047 8.948C70.5407 9.1 70.3247 9.324 70.1567 9.62C69.9967 9.908 69.9167 10.252 69.9167 10.652C69.9167 11.052 69.9967 11.404 70.1567 11.708C70.3247 12.004 70.5407 12.232 70.8047 12.392C71.0767 12.552 71.3647 12.632 71.6687 12.632C71.9807 12.632 72.2727 12.556 72.5447 12.404C72.8167 12.244 73.0327 12.02 73.1927 11.732C73.3527 11.436 73.4327 11.084 73.4327 10.676ZM83.0415 7.352V14H81.3495V13.16C81.1335 13.448 80.8495 13.676 80.4975 13.844C80.1535 14.004 79.7775 14.084 79.3695 14.084C78.8495 14.084 78.3895 13.976 77.9895 13.76C77.5895 13.536 77.2735 13.212 77.0415 12.788C76.8175 12.356 76.7055 11.844 76.7055 11.252V7.352H78.3855V11.012C78.3855 11.54 78.5175 11.948 78.7815 12.236C79.0455 12.516 79.4055 12.656 79.8615 12.656C80.3255 12.656 80.6895 12.516 80.9535 12.236C81.2175 11.948 81.3495 11.54 81.3495 11.012V7.352H83.0415ZM84.2671 10.676C84.2671 9.988 84.4071 9.388 84.6871 8.876C84.9671 8.356 85.3551 7.956 85.8511 7.676C86.3471 7.388 86.9151 7.244 87.5551 7.244C88.3791 7.244 89.0591 7.452 89.5951 7.868C90.1391 8.276 90.5031 8.852 90.6871 9.596H88.8751C88.7791 9.308 88.6151 9.084 88.3831 8.924C88.1591 8.756 87.8791 8.672 87.5431 8.672C87.0631 8.672 86.6831 8.848 86.4031 9.2C86.1231 9.544 85.9831 10.036 85.9831 10.676C85.9831 11.308 86.1231 11.8 86.4031 12.152C86.6831 12.496 87.0631 12.668 87.5431 12.668C88.2231 12.668 88.6671 12.364 88.8751 11.756H90.6871C90.5031 12.476 90.1391 13.048 89.5951 13.472C89.0511 13.896 88.3711 14.108 87.5551 14.108C86.9151 14.108 86.3471 13.968 85.8511 13.688C85.3551 13.4 84.9671 13 84.6871 12.488C84.4071 11.968 84.2671 11.364 84.2671 10.676ZM93.8738 8.732V11.948C93.8738 12.172 93.9258 12.336 94.0298 12.44C94.1418 12.536 94.3258 12.584 94.5818 12.584H95.3618V14H94.3058C92.8898 14 92.1818 13.312 92.1818 11.936V8.732H91.3898V7.352H92.1818V5.708H93.8738V7.352H95.3618V8.732H93.8738ZM97.4222 6.56C97.1262 6.56 96.8782 6.468 96.6782 6.284C96.4862 6.092 96.3902 5.856 96.3902 5.576C96.3902 5.296 96.4862 5.064 96.6782 4.88C96.8782 4.688 97.1262 4.592 97.4222 4.592C97.7182 4.592 97.9622 4.688 98.1542 4.88C98.3542 5.064 98.4542 5.296 98.4542 5.576C98.4542 5.856 98.3542 6.092 98.1542 6.284C97.9622 6.468 97.7182 6.56 97.4222 6.56ZM98.2502 7.352V14H96.5702V7.352H98.2502ZM102.862 14.108C102.222 14.108 101.646 13.968 101.134 13.688C100.622 13.4 100.218 12.996 99.922 12.476C99.634 11.956 99.49 11.356 99.49 10.676C99.49 9.996 99.638 9.396 99.934 8.876C100.238 8.356 100.65 7.956 101.17 7.676C101.69 7.388 102.27 7.244 102.91 7.244C103.55 7.244 104.13 7.388 104.65 7.676C105.17 7.956 105.578 8.356 105.874 8.876C106.178 9.396 106.33 9.996 106.33 10.676C106.33 11.356 106.174 11.956 105.862 12.476C105.558 12.996 105.142 13.4 104.614 13.688C104.094 13.968 103.51 14.108 102.862 14.108ZM102.862 12.644C103.166 12.644 103.45 12.572 103.714 12.428C103.986 12.276 104.202 12.052 104.362 11.756C104.522 11.46 104.602 11.1 104.602 10.676C104.602 10.044 104.434 9.56 104.098 9.224C103.77 8.88 103.366 8.708 102.886 8.708C102.406 8.708 102.002 8.88 101.674 9.224C101.354 9.56 101.194 10.044 101.194 10.676C101.194 11.308 101.35 11.796 101.662 12.14C101.982 12.476 102.382 12.644 102.862 12.644ZM111.246 7.256C112.038 7.256 112.678 7.508 113.166 8.012C113.654 8.508 113.898 9.204 113.898 10.1V14H112.218V10.328C112.218 9.8 112.086 9.396 111.822 9.116C111.558 8.828 111.198 8.684 110.742 8.684C110.278 8.684 109.91 8.828 109.638 9.116C109.374 9.396 109.242 9.8 109.242 10.328V14H107.562V7.352H109.242V8.18C109.466 7.892 109.75 7.668 110.094 7.508C110.446 7.34 110.83 7.256 111.246 7.256ZM51.372 34.108C50.828 34.108 50.34 34.012 49.908 33.82C49.476 33.62 49.132 33.352 48.876 33.016C48.628 32.68 48.492 32.308 48.468 31.9H50.16C50.192 32.156 50.316 32.368 50.532 32.536C50.756 32.704 51.032 32.788 51.36 32.788C51.68 32.788 51.928 32.724 52.104 32.596C52.288 32.468 52.38 32.304 52.38 32.104C52.38 31.888 52.268 31.728 52.044 31.624C51.828 31.512 51.48 31.392 51 31.264C50.504 31.144 50.096 31.02 49.776 30.892C49.464 30.764 49.192 30.568 48.96 30.304C48.736 30.04 48.624 29.684 48.624 29.236C48.624 28.868 48.728 28.532 48.936 28.228C49.152 27.924 49.456 27.684 49.848 27.508C50.248 27.332 50.716 27.244 51.252 27.244C52.044 27.244 52.676 27.444 53.148 27.844C53.62 28.236 53.88 28.768 53.928 29.44H52.32C52.296 29.176 52.184 28.968 51.984 28.816C51.792 28.656 51.532 28.576 51.204 28.576C50.9 28.576 50.664 28.632 50.496 28.744C50.336 28.856 50.256 29.012 50.256 29.212C50.256 29.436 50.368 29.608 50.592 29.728C50.816 29.84 51.164 29.956 51.636 30.076C52.116 30.196 52.512 30.32 52.824 30.448C53.136 30.576 53.404 30.776 53.628 31.048C53.86 31.312 53.98 31.664 53.988 32.104C53.988 32.488 53.88 32.832 53.664 33.136C53.456 33.44 53.152 33.68 52.752 33.856C52.36 34.024 51.9 34.108 51.372 34.108ZM57.3231 28.732V31.948C57.3231 32.172 57.3751 32.336 57.4791 32.44C57.5911 32.536 57.7751 32.584 58.0311 32.584H58.8111V34H57.7551C56.3391 34 55.6311 33.312 55.6311 31.936V28.732H54.8391V27.352H55.6311V25.708H57.3231V27.352H58.8111V28.732H57.3231ZM59.5874 30.652C59.5874 29.98 59.7194 29.384 59.9834 28.864C60.2554 28.344 60.6194 27.944 61.0754 27.664C61.5394 27.384 62.0554 27.244 62.6234 27.244C63.1194 27.244 63.5514 27.344 63.9194 27.544C64.2954 27.744 64.5954 27.996 64.8194 28.3V27.352H66.5114V34H64.8194V33.028C64.6034 33.34 64.3034 33.6 63.9194 33.808C63.5434 34.008 63.1074 34.108 62.6114 34.108C62.0514 34.108 61.5394 33.964 61.0754 33.676C60.6194 33.388 60.2554 32.984 59.9834 32.464C59.7194 31.936 59.5874 31.332 59.5874 30.652ZM64.8194 30.676C64.8194 30.268 64.7394 29.92 64.5794 29.632C64.4194 29.336 64.2034 29.112 63.9314 28.96C63.6594 28.8 63.3674 28.72 63.0554 28.72C62.7434 28.72 62.4554 28.796 62.1914 28.948C61.9274 29.1 61.7114 29.324 61.5434 29.62C61.3834 29.908 61.3034 30.252 61.3034 30.652C61.3034 31.052 61.3834 31.404 61.5434 31.708C61.7114 32.004 61.9274 32.232 62.1914 32.392C62.4634 32.552 62.7514 32.632 63.0554 32.632C63.3674 32.632 63.6594 32.556 63.9314 32.404C64.2034 32.244 64.4194 32.02 64.5794 31.732C64.7394 31.436 64.8194 31.084 64.8194 30.676ZM69.8322 28.384C70.0482 28.032 70.3282 27.756 70.6722 27.556C71.0242 27.356 71.4242 27.256 71.8722 27.256V29.02H71.4282C70.9002 29.02 70.5002 29.144 70.2282 29.392C69.9642 29.64 69.8322 30.072 69.8322 30.688V34H68.1522V27.352H69.8322V28.384ZM74.9598 28.732V31.948C74.9598 32.172 75.0118 32.336 75.1158 32.44C75.2278 32.536 75.4118 32.584 75.6678 32.584H76.4478V34H75.3918C73.9758 34 73.2678 33.312 73.2678 31.936V28.732H72.4758V27.352H73.2678V25.708H74.9598V27.352H76.4478V28.732H74.9598ZM80.2001 34.108C79.6561 34.108 79.1681 34.012 78.7361 33.82C78.3041 33.62 77.9601 33.352 77.7041 33.016C77.4561 32.68 77.3201 32.308 77.2961 31.9H78.9881C79.0201 32.156 79.1441 32.368 79.3601 32.536C79.5841 32.704 79.8601 32.788 80.1881 32.788C80.5081 32.788 80.7561 32.724 80.9321 32.596C81.1161 32.468 81.2081 32.304 81.2081 32.104C81.2081 31.888 81.0961 31.728 80.8721 31.624C80.6561 31.512 80.3081 31.392 79.8281 31.264C79.3321 31.144 78.9241 31.02 78.6041 30.892C78.2921 30.764 78.0201 30.568 77.7881 30.304C77.5641 30.04 77.4521 29.684 77.4521 29.236C77.4521 28.868 77.5561 28.532 77.7641 28.228C77.9801 27.924 78.2841 27.684 78.6761 27.508C79.0761 27.332 79.5441 27.244 80.0801 27.244C80.8721 27.244 81.5041 27.444 81.9761 27.844C82.4481 28.236 82.7081 28.768 82.7561 29.44H81.1481C81.1241 29.176 81.0121 28.968 80.8121 28.816C80.6201 28.656 80.3601 28.576 80.0321 28.576C79.7281 28.576 79.4921 28.632 79.3241 28.744C79.1641 28.856 79.0841 29.012 79.0841 29.212C79.0841 29.436 79.1961 29.608 79.4201 29.728C79.6441 29.84 79.9921 29.956 80.4641 30.076C80.9441 30.196 81.3401 30.32 81.6521 30.448C81.9641 30.576 82.2321 30.776 82.4561 31.048C82.6881 31.312 82.8081 31.664 82.8161 32.104C82.8161 32.488 82.7081 32.832 82.4921 33.136C82.2841 33.44 81.9801 33.68 81.5801 33.856C81.1881 34.024 80.7281 34.108 80.2001 34.108Z" fill="white"/>
</svg>
