<svg width="115" height="40" viewBox="0 0 115 40" fill="none" xmlns="http://www.w3.org/2000/svg">
<rect width="40" height="40" rx="5.38607" fill="#3D3F4F"/>
<path d="M13.6653 22.4126L14.4081 14.6096H17.8178L18.4433 21.1758" stroke="white" stroke-width="1.21187" stroke-linecap="round" stroke-linejoin="round"/>
<path d="M11.9211 28.068H28.0704V19.7122C28.0705 19.5907 28.0427 19.4707 27.9892 19.3616C27.9358 19.2525 27.858 19.1571 27.7618 19.0827C27.6657 19.0083 27.5538 18.957 27.4347 18.9326C27.3157 18.9083 27.1926 18.9115 27.075 18.9422L12.4592 22.7248C12.3052 22.7646 12.1687 22.8545 12.0713 22.9804C11.9739 23.1062 11.9211 23.2608 11.9211 23.4199V28.068Z" stroke="white" stroke-width="1.21187" stroke-linecap="round" stroke-linejoin="round"/>
<path d="M25.5585 28.0676H21.9697V24.8539C21.9697 24.6592 22.0471 24.4725 22.1847 24.3349C22.3224 24.1972 22.5091 24.1199 22.7038 24.1199H24.8245C25.0192 24.1199 25.2059 24.1972 25.3435 24.3349C25.4812 24.4725 25.5585 24.6592 25.5585 24.8539V28.0676Z" stroke="white" stroke-width="1.21187" stroke-linecap="round" stroke-linejoin="round"/>
<path d="M14.1245 17.8037H17.7948" stroke="white" stroke-width="1.21187" stroke-linecap="round" stroke-linejoin="round"/>
<path d="M26.2353 11.9321C25.9132 11.9329 25.597 12.0188 25.3189 12.1811C25.0407 12.3434 24.8103 12.5763 24.6512 12.8563C24.4856 12.7441 24.2926 12.679 24.0929 12.6682C23.8931 12.6574 23.6942 12.7011 23.5175 12.7948C23.3407 12.8885 23.1929 13.0286 23.0897 13.2C22.9866 13.3714 22.9321 13.5676 22.9321 13.7677C22.9321 13.9677 22.9866 14.1639 23.0897 14.3353C23.1929 14.5067 23.3407 14.6468 23.5175 14.7405C23.6942 14.8342 23.8931 14.878 24.0929 14.8671C24.2926 14.8563 24.4856 14.7912 24.6512 14.679C24.8115 14.9591 25.0429 15.192 25.322 15.3541C25.6012 15.5163 25.9181 15.6019 26.2409 15.6024C26.5637 15.6029 26.8809 15.5183 27.1605 15.3571C27.4401 15.1958 27.6723 14.9637 27.8335 14.6841C27.9948 14.4044 28.0794 14.0872 28.0789 13.7645C28.0785 13.4417 27.9928 13.1247 27.8307 12.8456C27.6686 12.5665 27.4357 12.3351 27.1556 12.1747C26.8755 12.0143 26.558 11.9306 26.2353 11.9321Z" stroke="white" stroke-width="1.21187" stroke-linecap="round" stroke-linejoin="round"/>
<path d="M19.261 13.7673C19.261 13.9119 19.2895 14.0551 19.3448 14.1887C19.4001 14.3223 19.4812 14.4437 19.5835 14.5459C19.6857 14.6482 19.8071 14.7293 19.9407 14.7846C20.0743 14.8399 20.2175 14.8684 20.3621 14.8684C20.5067 14.8684 20.6498 14.8399 20.7834 14.7846C20.917 14.7293 21.0384 14.6482 21.1407 14.5459C21.2429 14.4437 21.324 14.3223 21.3793 14.1887C21.4347 14.0551 21.4632 13.9119 21.4632 13.7673C21.4632 13.4753 21.3471 13.1953 21.1407 12.9888C20.9342 12.7823 20.6541 12.6663 20.3621 12.6663C20.07 12.6663 19.79 12.7823 19.5835 12.9888C19.377 13.1953 19.261 13.4753 19.261 13.7673Z" stroke="white" stroke-width="1.21187" stroke-linecap="round" stroke-linejoin="round"/>
<path d="M14.8572 24.4111H15.5912" stroke="white" stroke-width="1.05932" stroke-linecap="round" stroke-linejoin="round"/>
<path d="M14.8572 25.8789H15.5912" stroke="white" stroke-width="1.05932" stroke-linecap="round" stroke-linejoin="round"/>
<path d="M18.5283 24.4111H19.2624" stroke="white" stroke-width="1.21187" stroke-linecap="round" stroke-linejoin="round"/>
<path d="M18.5283 25.8789H19.2624" stroke="white" stroke-width="1.21187" stroke-linecap="round" stroke-linejoin="round"/>
<path d="M54.936 8.216C54.936 8.664 54.828 9.084 54.612 9.476C54.404 9.868 54.072 10.184 53.616 10.424C53.168 10.664 52.6 10.784 51.912 10.784H50.508V14H48.828V5.624H51.912C52.56 5.624 53.112 5.736 53.568 5.96C54.024 6.184 54.364 6.492 54.588 6.884C54.82 7.276 54.936 7.72 54.936 8.216ZM51.84 9.428C52.304 9.428 52.648 9.324 52.872 9.116C53.096 8.9 53.208 8.6 53.208 8.216C53.208 7.4 52.752 6.992 51.84 6.992H50.508V9.428H51.84ZM57.8088 8.384C58.0248 8.032 58.3048 7.756 58.6488 7.556C59.0008 7.356 59.4008 7.256 59.8488 7.256V9.02H59.4048C58.8768 9.02 58.4768 9.144 58.2048 9.392C57.9408 9.64 57.8088 10.072 57.8088 10.688V14H56.1288V7.352H57.8088V8.384ZM63.9323 14.108C63.2923 14.108 62.7163 13.968 62.2043 13.688C61.6923 13.4 61.2883 12.996 60.9923 12.476C60.7043 11.956 60.5603 11.356 60.5603 10.676C60.5603 9.996 60.7083 9.396 61.0043 8.876C61.3083 8.356 61.7203 7.956 62.2403 7.676C62.7603 7.388 63.3403 7.244 63.9803 7.244C64.6203 7.244 65.2003 7.388 65.7203 7.676C66.2403 7.956 66.6483 8.356 66.9443 8.876C67.2483 9.396 67.4003 9.996 67.4003 10.676C67.4003 11.356 67.2443 11.956 66.9323 12.476C66.6283 12.996 66.2123 13.4 65.6843 13.688C65.1643 13.968 64.5803 14.108 63.9323 14.108ZM63.9323 12.644C64.2363 12.644 64.5203 12.572 64.7843 12.428C65.0563 12.276 65.2723 12.052 65.4323 11.756C65.5923 11.46 65.6723 11.1 65.6723 10.676C65.6723 10.044 65.5043 9.56 65.1683 9.224C64.8403 8.88 64.4363 8.708 63.9563 8.708C63.4763 8.708 63.0723 8.88 62.7443 9.224C62.4243 9.56 62.2643 10.044 62.2643 10.676C62.2643 11.308 62.4203 11.796 62.7323 12.14C63.0523 12.476 63.4523 12.644 63.9323 12.644ZM68.2007 10.652C68.2007 9.98 68.3327 9.384 68.5967 8.864C68.8687 8.344 69.2367 7.944 69.7007 7.664C70.1647 7.384 70.6807 7.244 71.2487 7.244C71.6807 7.244 72.0927 7.34 72.4847 7.532C72.8767 7.716 73.1887 7.964 73.4207 8.276V5.12H75.1247V14H73.4207V13.016C73.2127 13.344 72.9207 13.608 72.5447 13.808C72.1687 14.008 71.7327 14.108 71.2367 14.108C70.6767 14.108 70.1647 13.964 69.7007 13.676C69.2367 13.388 68.8687 12.984 68.5967 12.464C68.3327 11.936 68.2007 11.332 68.2007 10.652ZM73.4327 10.676C73.4327 10.268 73.3527 9.92 73.1927 9.632C73.0327 9.336 72.8167 9.112 72.5447 8.96C72.2727 8.8 71.9807 8.72 71.6687 8.72C71.3567 8.72 71.0687 8.796 70.8047 8.948C70.5407 9.1 70.3247 9.324 70.1567 9.62C69.9967 9.908 69.9167 10.252 69.9167 10.652C69.9167 11.052 69.9967 11.404 70.1567 11.708C70.3247 12.004 70.5407 12.232 70.8047 12.392C71.0767 12.552 71.3647 12.632 71.6687 12.632C71.9807 12.632 72.2727 12.556 72.5447 12.404C72.8167 12.244 73.0327 12.02 73.1927 11.732C73.3527 11.436 73.4327 11.084 73.4327 10.676ZM83.0415 7.352V14H81.3495V13.16C81.1335 13.448 80.8495 13.676 80.4975 13.844C80.1535 14.004 79.7775 14.084 79.3695 14.084C78.8495 14.084 78.3895 13.976 77.9895 13.76C77.5895 13.536 77.2735 13.212 77.0415 12.788C76.8175 12.356 76.7055 11.844 76.7055 11.252V7.352H78.3855V11.012C78.3855 11.54 78.5175 11.948 78.7815 12.236C79.0455 12.516 79.4055 12.656 79.8615 12.656C80.3255 12.656 80.6895 12.516 80.9535 12.236C81.2175 11.948 81.3495 11.54 81.3495 11.012V7.352H83.0415ZM84.2671 10.676C84.2671 9.988 84.4071 9.388 84.6871 8.876C84.9671 8.356 85.3551 7.956 85.8511 7.676C86.3471 7.388 86.9151 7.244 87.5551 7.244C88.3791 7.244 89.0591 7.452 89.5951 7.868C90.1391 8.276 90.5031 8.852 90.6871 9.596H88.8751C88.7791 9.308 88.6151 9.084 88.3831 8.924C88.1591 8.756 87.8791 8.672 87.5431 8.672C87.0631 8.672 86.6831 8.848 86.4031 9.2C86.1231 9.544 85.9831 10.036 85.9831 10.676C85.9831 11.308 86.1231 11.8 86.4031 12.152C86.6831 12.496 87.0631 12.668 87.5431 12.668C88.2231 12.668 88.6671 12.364 88.8751 11.756H90.6871C90.5031 12.476 90.1391 13.048 89.5951 13.472C89.0511 13.896 88.3711 14.108 87.5551 14.108C86.9151 14.108 86.3471 13.968 85.8511 13.688C85.3551 13.4 84.9671 13 84.6871 12.488C84.4071 11.968 84.2671 11.364 84.2671 10.676ZM93.8738 8.732V11.948C93.8738 12.172 93.9258 12.336 94.0298 12.44C94.1418 12.536 94.3258 12.584 94.5818 12.584H95.3618V14H94.3058C92.8898 14 92.1818 13.312 92.1818 11.936V8.732H91.3898V7.352H92.1818V5.708H93.8738V7.352H95.3618V8.732H93.8738ZM97.4222 6.56C97.1262 6.56 96.8782 6.468 96.6782 6.284C96.4862 6.092 96.3902 5.856 96.3902 5.576C96.3902 5.296 96.4862 5.064 96.6782 4.88C96.8782 4.688 97.1262 4.592 97.4222 4.592C97.7182 4.592 97.9622 4.688 98.1542 4.88C98.3542 5.064 98.4542 5.296 98.4542 5.576C98.4542 5.856 98.3542 6.092 98.1542 6.284C97.9622 6.468 97.7182 6.56 97.4222 6.56ZM98.2502 7.352V14H96.5702V7.352H98.2502ZM102.862 14.108C102.222 14.108 101.646 13.968 101.134 13.688C100.622 13.4 100.218 12.996 99.922 12.476C99.634 11.956 99.49 11.356 99.49 10.676C99.49 9.996 99.638 9.396 99.934 8.876C100.238 8.356 100.65 7.956 101.17 7.676C101.69 7.388 102.27 7.244 102.91 7.244C103.55 7.244 104.13 7.388 104.65 7.676C105.17 7.956 105.578 8.356 105.874 8.876C106.178 9.396 106.33 9.996 106.33 10.676C106.33 11.356 106.174 11.956 105.862 12.476C105.558 12.996 105.142 13.4 104.614 13.688C104.094 13.968 103.51 14.108 102.862 14.108ZM102.862 12.644C103.166 12.644 103.45 12.572 103.714 12.428C103.986 12.276 104.202 12.052 104.362 11.756C104.522 11.46 104.602 11.1 104.602 10.676C104.602 10.044 104.434 9.56 104.098 9.224C103.77 8.88 103.366 8.708 102.886 8.708C102.406 8.708 102.002 8.88 101.674 9.224C101.354 9.56 101.194 10.044 101.194 10.676C101.194 11.308 101.35 11.796 101.662 12.14C101.982 12.476 102.382 12.644 102.862 12.644ZM111.246 7.256C112.038 7.256 112.678 7.508 113.166 8.012C113.654 8.508 113.898 9.204 113.898 10.1V14H112.218V10.328C112.218 9.8 112.086 9.396 111.822 9.116C111.558 8.828 111.198 8.684 110.742 8.684C110.278 8.684 109.91 8.828 109.638 9.116C109.374 9.396 109.242 9.8 109.242 10.328V14H107.562V7.352H109.242V8.18C109.466 7.892 109.75 7.668 110.094 7.508C110.446 7.34 110.83 7.256 111.246 7.256ZM48.396 30.652C48.396 29.98 48.528 29.384 48.792 28.864C49.064 28.344 49.432 27.944 49.896 27.664C50.36 27.384 50.876 27.244 51.444 27.244C51.876 27.244 52.288 27.34 52.68 27.532C53.072 27.716 53.384 27.964 53.616 28.276V25.12H55.32V34H53.616V33.016C53.408 33.344 53.116 33.608 52.74 33.808C52.364 34.008 51.928 34.108 51.432 34.108C50.872 34.108 50.36 33.964 49.896 33.676C49.432 33.388 49.064 32.984 48.792 32.464C48.528 31.936 48.396 31.332 48.396 30.652ZM53.628 30.676C53.628 30.268 53.548 29.92 53.388 29.632C53.228 29.336 53.012 29.112 52.74 28.96C52.468 28.8 52.176 28.72 51.864 28.72C51.552 28.72 51.264 28.796 51 28.948C50.736 29.1 50.52 29.324 50.352 29.62C50.192 29.908 50.112 30.252 50.112 30.652C50.112 31.052 50.192 31.404 50.352 31.708C50.52 32.004 50.736 32.232 51 32.392C51.272 32.552 51.56 32.632 51.864 32.632C52.176 32.632 52.468 32.556 52.74 32.404C53.012 32.244 53.228 32.02 53.388 31.732C53.548 31.436 53.628 31.084 53.628 30.676ZM63.1408 30.532C63.1408 30.772 63.1248 30.988 63.0928 31.18H58.2328C58.2728 31.66 58.4408 32.036 58.7368 32.308C59.0328 32.58 59.3968 32.716 59.8288 32.716C60.4528 32.716 60.8968 32.448 61.1608 31.912H62.9728C62.7808 32.552 62.4128 33.08 61.8688 33.496C61.3248 33.904 60.6568 34.108 59.8648 34.108C59.2248 34.108 58.6488 33.968 58.1368 33.688C57.6328 33.4 57.2368 32.996 56.9488 32.476C56.6688 31.956 56.5288 31.356 56.5288 30.676C56.5288 29.988 56.6688 29.384 56.9488 28.864C57.2288 28.344 57.6208 27.944 58.1248 27.664C58.6288 27.384 59.2088 27.244 59.8648 27.244C60.4968 27.244 61.0608 27.38 61.5568 27.652C62.0608 27.924 62.4488 28.312 62.7208 28.816C63.0008 29.312 63.1408 29.884 63.1408 30.532ZM61.4008 30.052C61.3928 29.62 61.2368 29.276 60.9328 29.02C60.6288 28.756 60.2568 28.624 59.8168 28.624C59.4008 28.624 59.0488 28.752 58.7608 29.008C58.4808 29.256 58.3088 29.604 58.2448 30.052H61.4008ZM66.0471 25.12V34H64.3671V25.12H66.0471ZM67.2749 30.652C67.2749 29.98 67.4069 29.384 67.6709 28.864C67.9429 28.344 68.3069 27.944 68.7629 27.664C69.2269 27.384 69.7429 27.244 70.3109 27.244C70.8069 27.244 71.2389 27.344 71.6069 27.544C71.9829 27.744 72.2829 27.996 72.5069 28.3V27.352H74.1989V34H72.5069V33.028C72.2909 33.34 71.9909 33.6 71.6069 33.808C71.2309 34.008 70.7949 34.108 70.2989 34.108C69.7389 34.108 69.2269 33.964 68.7629 33.676C68.3069 33.388 67.9429 32.984 67.6709 32.464C67.4069 31.936 67.2749 31.332 67.2749 30.652ZM72.5069 30.676C72.5069 30.268 72.4269 29.92 72.2669 29.632C72.1069 29.336 71.8909 29.112 71.6189 28.96C71.3469 28.8 71.0549 28.72 70.7429 28.72C70.4309 28.72 70.1429 28.796 69.8789 28.948C69.6149 29.1 69.3989 29.324 69.2309 29.62C69.0709 29.908 68.9909 30.252 68.9909 30.652C68.9909 31.052 69.0709 31.404 69.2309 31.708C69.3989 32.004 69.6149 32.232 69.8789 32.392C70.1509 32.552 70.4389 32.632 70.7429 32.632C71.0549 32.632 71.3469 32.556 71.6189 32.404C71.8909 32.244 72.1069 32.02 72.2669 31.732C72.4269 31.436 72.5069 31.084 72.5069 30.676ZM82.1997 27.352L78.0837 37.144H76.2957L77.7357 33.832L75.0717 27.352H76.9557L78.6717 31.996L80.4117 27.352H82.1997Z" fill="white"/>
</svg>
