<svg width="20" height="19" viewBox="0 0 20 19" fill="none" xmlns="http://www.w3.org/2000/svg">
<path d="M10.2058 2.58969C10.1906 2.55531 10.1419 2.55532 10.1267 2.58969L8.03216 7.34229C8.02781 7.35217 8.01992 7.36005 8.01005 7.36441L3.25669 9.4597C3.22231 9.47485 3.22232 9.52362 3.25669 9.53878L8.01005 11.6341C8.01992 11.6384 8.02781 11.6463 8.03216 11.6562L10.1267 16.4103C10.1419 16.4447 10.1906 16.4447 10.2058 16.4103L12.3018 11.6569C12.3062 11.6471 12.3141 11.6392 12.3239 11.6348L17.0766 9.53954C17.1109 9.52438 17.1109 9.47562 17.0766 9.46046L12.3239 7.36517C12.3141 7.36082 12.3062 7.35293 12.3018 7.34306L10.2058 2.58969Z" stroke="white" stroke-width="1.16667"/>
</svg>
