<svg width="106" height="31" viewBox="0 0 106 31" fill="none" xmlns="http://www.w3.org/2000/svg">
<g clip-path="url(#clip0_1_1049)">
<path d="M12.7947 1.90343C13.003 1.90343 13.1071 2.00793 13.3154 2.11244C12.0657 2.63496 10.8159 3.99351 10.1911 6.91961L7.8999 7.54663C8.62891 5.45656 10.0869 1.90343 12.7947 1.90343ZM13.9403 2.94847C14.1486 3.57549 14.3569 4.30702 14.3569 5.45656C14.3569 5.56106 14.3569 5.56106 14.3569 5.66557L11.3367 6.5016C11.9615 4.30702 13.003 3.36648 13.9403 2.94847ZM16.648 4.82954L15.2942 5.24755C15.2942 5.14305 15.2942 5.03854 15.2942 4.93404C15.2942 3.99351 15.19 3.26198 14.9817 2.63496C15.7107 2.84396 16.3356 3.7845 16.648 4.82954ZM23.4174 6.5016C23.4174 6.39709 23.3133 6.29259 23.2091 6.29259C23.0008 6.29259 20.8138 6.08358 20.8138 6.08358C20.8138 6.08358 19.2516 4.51602 19.0433 4.41152C18.8351 4.20251 18.5226 4.30702 18.4185 4.30702C18.4185 4.30702 18.106 4.41152 17.5853 4.62053C17.0646 3.15747 16.1273 1.79893 14.5651 1.79893H14.461C14.0444 1.1719 13.4196 0.962895 12.8988 0.962895C9.14963 0.858391 7.37918 5.56106 6.75431 7.96465C5.92115 8.17366 5.088 8.48717 4.1507 8.80068C3.31754 9.00969 3.31754 9.11419 3.2134 9.84572C3.10926 10.3682 1.02637 26.8798 1.02637 26.8798L17.5853 30.015L26.5417 28.0294C26.5417 28.0294 23.4174 6.7106 23.4174 6.5016Z" fill="white"/>
<path d="M23.1051 6.2927C23.001 6.2927 20.8139 6.08369 20.8139 6.08369C20.8139 6.08369 19.2518 4.51614 19.0435 4.41163C18.9393 4.30713 18.9393 4.30713 18.8352 4.30713L17.5854 30.0151L26.5419 28.0295C26.5419 28.0295 23.4175 6.71072 23.4175 6.50171C23.4175 6.39721 23.2092 6.2927 23.1051 6.2927Z" fill="#333645"/>
<path d="M14.5653 11.309L13.4197 14.6532C13.4197 14.6532 12.4824 14.1306 11.2327 14.1306C9.46224 14.1306 9.35809 15.1757 9.35809 15.4892C9.35809 16.9522 13.3156 17.5793 13.3156 21.1324C13.3156 23.954 11.5451 25.7306 9.1498 25.7306C6.3379 25.7306 4.87988 23.954 4.87988 23.954L5.60889 21.4459C5.60889 21.4459 7.06692 22.6999 8.31665 22.6999C9.1498 22.6999 9.46224 22.0729 9.46224 21.5504C9.46224 19.5648 6.23376 19.4603 6.23376 16.2207C6.23376 13.5036 8.2125 10.891 12.0658 10.891C13.8363 10.7865 14.5653 11.309 14.5653 11.309Z" fill="#333645"/>
<path d="M37.0603 17.4746C36.123 16.9521 35.7064 16.5341 35.7064 16.0115C35.7064 15.28 36.3313 14.862 37.3728 14.862C38.5184 14.862 39.5598 15.3845 39.5598 15.3845L40.3929 12.8764C40.3929 12.8764 39.6639 12.2494 37.4769 12.2494C34.3526 12.2494 32.2697 14.026 32.2697 16.5341C32.2697 17.9971 33.3111 19.0422 34.5609 19.7737C35.6023 20.4007 36.0189 20.8187 36.0189 21.4457C36.0189 22.0728 35.4982 22.6998 34.4567 22.6998C32.9987 22.6998 31.5407 21.9683 31.5407 21.9683L30.7075 24.4764C30.7075 24.4764 31.9573 25.3124 34.1443 25.3124C37.2686 25.3124 39.5598 23.7448 39.5598 20.9232C39.5598 19.3557 38.4142 18.2061 37.0603 17.4746ZM49.6618 12.1449C48.0996 12.1449 46.8499 12.8764 45.9126 14.026L47.2665 6.91971H43.7256L40.2888 24.9989H43.8297L44.9753 18.8331C45.3919 16.5341 46.6416 15.071 47.7872 15.071C48.6204 15.071 48.9328 15.5935 48.9328 16.4296C48.9328 16.9521 48.9328 17.4746 48.8286 17.9971L47.4748 25.1034H51.0157L52.3696 17.7881C52.4737 17.0566 52.5778 16.116 52.5778 15.489C52.5778 13.3989 51.5364 12.1449 49.6618 12.1449ZM58.7224 22.4908C57.4726 22.4908 57.0561 21.4457 57.0561 20.1917C57.0561 18.2061 58.0975 14.862 59.9721 14.862C61.2218 14.862 61.6384 15.907 61.6384 16.9521C61.6384 19.2512 60.597 22.4908 58.7224 22.4908ZM60.4928 12.1449C56.2229 12.1449 53.411 16.0115 53.411 20.2962C53.411 23.0133 55.0773 25.2079 58.3058 25.2079C62.4716 25.2079 65.2835 21.4457 65.2835 17.0566C65.2835 14.5485 63.8254 12.1449 60.4928 12.1449ZM70.9073 22.5953C69.97 22.5953 69.4492 22.0728 69.4492 22.0728L70.0741 18.7286C70.4907 16.5341 71.6363 15.071 72.886 15.071C73.9274 15.071 74.344 16.116 74.344 17.0566C74.2399 19.3557 72.886 22.5953 70.9073 22.5953ZM74.344 12.1449C71.9487 12.1449 70.5948 14.235 70.5948 14.235L70.8031 12.3539H67.6788C67.5746 13.608 67.2622 15.5935 66.9498 17.0566L64.4503 30.0151H67.9912L68.9285 24.7899H69.0327C69.0327 24.7899 69.7617 25.2079 71.1155 25.2079C75.2813 25.2079 77.9891 20.9232 77.9891 16.6386C77.9891 14.3395 76.9476 12.1449 74.344 12.1449ZM82.988 7.12872C81.8424 7.12872 81.0093 8.06925 81.0093 9.2188C81.0093 10.2638 81.6341 10.9954 82.6756 10.9954C83.8212 10.9954 84.7585 10.2638 84.7585 8.90528C84.7585 7.86025 84.0294 7.12872 82.988 7.12872ZM78.0932 24.9989H81.6341L84.0294 12.4584H80.4885L78.0932 24.9989ZM92.9859 12.4584H90.4864L90.5905 11.8314C90.7988 10.5773 91.5278 9.53231 92.6734 9.53231C93.2983 9.53231 93.819 9.74132 93.819 9.74132L94.548 6.91971C94.548 6.91971 93.9232 6.6062 92.6734 6.6062C91.4237 6.6062 90.174 6.91971 89.2367 7.75574C87.9869 8.80078 87.4662 10.2638 87.1538 11.7269L87.0496 12.3539H85.3833L84.8626 15.071H86.5289L84.6543 24.9989H88.1952L90.0698 15.071H92.4651L92.9859 12.4584ZM101.422 12.4584C101.422 12.4584 99.2345 17.9971 98.1931 21.0277C98.0889 20.0872 97.3599 12.4584 97.3599 12.4584H93.6107L95.6936 23.9538C95.6936 24.1628 95.6936 24.3718 95.5895 24.5809C95.1729 25.4169 94.4439 26.1484 93.7149 26.6709C93.09 27.1935 92.2569 27.507 91.7361 27.716L92.6734 30.7466C93.4024 30.6421 94.8605 30.0151 96.1102 28.8655C97.6724 27.4025 99.2345 24.9989 100.693 21.8638L104.962 12.5629L101.422 12.4584Z" fill="white"/>
</g>
<defs>
<clipPath id="clip0_1_1049">
<rect width="105.49" height="29.7853" fill="white" transform="translate(0.150879 0.859375)"/>
</clipPath>
</defs>
</svg>
