<svg width="31" height="24" viewBox="0 0 31 24" fill="none" xmlns="http://www.w3.org/2000/svg">
<path d="M27.1188 5.81655C27.1374 6.07183 27.1374 6.32717 27.1374 6.58245C27.1374 14.3689 21.1207 23.3407 10.1239 23.3407C6.73598 23.3407 3.58878 22.3742 0.941406 20.6966C1.42276 20.7513 1.88554 20.7695 2.38542 20.7695C5.18084 20.7695 7.7542 19.8395 9.80915 18.2531C7.18029 18.1983 4.97723 16.5025 4.21819 14.1683C4.58848 14.223 4.95871 14.2595 5.34753 14.2595C5.88439 14.2595 6.4213 14.1865 6.92112 14.0589C4.1812 13.5118 2.12619 11.1413 2.12619 8.27832V8.20541C2.92222 8.64306 3.84795 8.91658 4.82907 8.95301C3.21843 7.89534 2.16323 6.09007 2.16323 4.04771C2.16323 2.95361 2.45939 1.95067 2.97778 1.07537C5.92137 4.64948 10.346 6.98356 15.3075 7.2389C15.2149 6.80125 15.1593 6.34541 15.1593 5.88952C15.1593 2.6436 17.8252 -0.000488281 21.1391 -0.000488281C22.8608 -0.000488281 24.4158 0.710686 25.5081 1.85951C26.8596 1.60423 28.1555 1.11185 29.3033 0.437162C28.859 1.80484 27.9148 2.95366 26.6745 3.68303C27.8778 3.55544 29.0442 3.22713 30.1179 2.7713C29.3034 3.93831 28.2852 4.97768 27.1188 5.81655Z" fill="white"/>
</svg>
